<?xml version="1.0" encoding="UTF-8" standalone="no"?>
<!DOCTYPE svg PUBLIC "-//W3C//DTD SVG 1.1//EN"
 "http://www.w3.org/Graphics/SVG/1.1/DTD/svg11.dtd">
<!-- Generated by graphviz version 2.41.20170804.1643 (20170804.1643)
 -->
<!-- Title: G Pages: 1 -->
<svg width="425pt" height="386pt"
 viewBox="0.00 0.00 424.66 385.82" xmlns="http://www.w3.org/2000/svg" xmlns:xlink="http://www.w3.org/1999/xlink">
<g id="graph0" class="graph" transform="scale(1 1) rotate(0) translate(4 381.82)">
<title>G</title>
<polygon fill="white" stroke="transparent" points="-4,4 -4,-381.82 420.66,-381.82 420.66,4 -4,4"/>
<text text-anchor="middle" x="76" y="-362.62" font-family="sans bold" font-size="14.00">1970&#45;01&#45;01 00:00:00Z</text>
<!-- 192.0.2.14&#45;&#45;192.0.2.12/30 -->
<g id="edge1" class="edge">
<title>192.0.2.14&#45;&#45;192.0.2.12/30</title>
<path fill="none" stroke="#6a51a3" stroke-width="4" d="M118.27,-188.62C118.28,-188.62 118.3,-188.62 118.31,-188.62"/>
<path fill="none" stroke="#807dba" stroke-width="4" d="M118.31,-188.62C118.33,-188.62 118.34,-188.61 118.36,-188.61"/>
<path fill="none" stroke="#9e9ac8" stroke-width="4" d="M118.36,-188.61C118.38,-188.61 118.39,-188.61 118.41,-188.61"/>
<path fill="none" stroke="#807dba" stroke-width="4" d="M118.41,-188.61C118.42,-188.61 118.44,-188.6 118.45,-188.6"/>
<path fill="none" stroke="#6a51a3" stroke-width="4" d="M118.45,-188.6C118.48,-188.6 118.51,-188.6 118.54,-188.59"/>
<path fill="none" stroke="#807dba" stroke-width="4" d="M118.54,-188.59C118.56,-188.59 118.57,-188.59 118.59,-188.59"/>
<path fill="none" stroke="#9e9ac8" stroke-width="4" d="M118.59,-188.59C118.6,-188.59 118.62,-188.59 118.63,-188.58"/>
<path fill="none" stroke="#807dba" stroke-width="4" d="M118.63,-188.58C118.65,-188.58 118.66,-188.58 118.68,-188.58"/>
<path fill="none" stroke="#6a51a3" stroke-width="4" d="M118.68,-188.58C118.69,-188.58 118.71,-188.58 118.72,-188.57"/>
<polygon fill="#6a51a3" stroke="#6a51a3" stroke-width="4" points="107.71,-186.22 118.02,-188.65 108.45,-193.19 107.71,-186.22"/>
<polygon fill="#6a51a3" stroke="#6a51a3" stroke-width="4" points="119.54,-192.01 109.23,-189.58 118.8,-185.05 119.54,-192.01"/>
</g>
<!-- 192.0.2.3&#45;&#45;192.0.2.2/31 -->
<g id="edge2" class="edge">
<title>192.0.2.3&#45;&#45;192.0.2.2/31</title>
<path fill="none" stroke="#6a51a3" stroke-width="4" d="M361.84,-265.26C361.85,-265.25 361.86,-265.24 361.87,-265.24"/>
<path fill="none" stroke="#807dba" stroke-width="4" d="M361.87,-265.24C361.88,-265.23 361.89,-265.22 361.9,-265.22"/>
<path fill="none" stroke="#9e9ac8" stroke-width="4" d="M361.9,-265.22C361.91,-265.21 361.92,-265.2 361.93,-265.2"/>
<path fill="none" stroke="#807dba" stroke-width="4" d="M361.93,-265.2C361.94,-265.19 361.95,-265.18 361.96,-265.18"/>
<path fill="none" stroke="#6a51a3" stroke-width="4" d="M361.96,-265.18C361.98,-265.16 362,-265.15 362.02,-265.14"/>
<path fill="none" stroke="#807dba" stroke-width="4" d="M362.02,-265.14C362.03,-265.13 362.04,-265.12 362.05,-265.12"/>
<path fill="none" stroke="#9e9ac8" stroke-width="4" d="M362.05,-265.12C362.06,-265.11 362.07,-265.1 362.08,-265.1"/>
<path fill="none" stroke="#807dba" stroke-width="4" d="M362.08,-265.1C362.09,-265.09 362.1,-265.08 362.11,-265.08"/>
<path fill="none" stroke="#6a51a3" stroke-width="4" d="M362.11,-265.08C362.12,-265.07 362.13,-265.06 362.14,-265.06"/>
<polygon fill="#6a51a3" stroke="#6a51a3" stroke-width="4" points="351.4,-267.98 361.67,-265.37 355.26,-273.81 351.4,-267.98"/>
<polygon fill="#6a51a3" stroke="#6a51a3" stroke-width="4" points="372.37,-262.48 362.1,-265.08 368.5,-256.64 372.37,-262.48"/>
</g>
<!-- 192.0.2.3&#45;&#45;192.0.2.8/31 -->
<g id="edge3" class="edge">
<title>192.0.2.3&#45;&#45;192.0.2.8/31</title>
<path fill="none" stroke="#6a51a3" stroke-width="4" d="M248.96,-275.34C248.95,-275.33 248.94,-275.33 248.92,-275.32"/>
<path fill="none" stroke="#807dba" stroke-width="4" d="M248.92,-275.32C248.91,-275.32 248.9,-275.31 248.89,-275.31"/>
<path fill="none" stroke="#9e9ac8" stroke-width="4" d="M248.89,-275.31C248.88,-275.3 248.87,-275.3 248.86,-275.29"/>
<path fill="none" stroke="#807dba" stroke-width="4" d="M248.86,-275.29C248.85,-275.29 248.84,-275.28 248.83,-275.28"/>
<path fill="none" stroke="#6a51a3" stroke-width="4" d="M248.83,-275.28C248.81,-275.27 248.78,-275.26 248.76,-275.25"/>
<path fill="none" stroke="#807dba" stroke-width="4" d="M248.76,-275.25C248.75,-275.25 248.74,-275.24 248.73,-275.24"/>
<path fill="none" stroke="#9e9ac8" stroke-width="4" d="M248.73,-275.24C248.72,-275.23 248.71,-275.23 248.7,-275.22"/>
<path fill="none" stroke="#807dba" stroke-width="4" d="M248.7,-275.22C248.69,-275.22 248.68,-275.21 248.66,-275.21"/>
<path fill="none" stroke="#6a51a3" stroke-width="4" d="M248.66,-275.21C248.65,-275.21 248.64,-275.2 248.63,-275.2"/>
<polygon fill="#6a51a3" stroke="#6a51a3" stroke-width="4" points="256.78,-282.51 248.98,-275.35 259.55,-276.08 256.78,-282.51"/>
<polygon fill="#6a51a3" stroke="#6a51a3" stroke-width="4" points="241.06,-268.13 248.86,-275.29 238.29,-274.56 241.06,-268.13"/>
</g>
<!-- 192.0.2.7&#45;&#45;192.0.2.6/31 -->
<g id="edge4" class="edge">
<title>192.0.2.7&#45;&#45;192.0.2.6/31</title>
<path fill="none" stroke="#6a51a3" stroke-width="4" d="M350.89,-82.75C350.9,-82.76 350.91,-82.76 350.92,-82.77"/>
<path fill="none" stroke="#807dba" stroke-width="4" d="M350.92,-82.77C350.93,-82.77 350.94,-82.78 350.95,-82.78"/>
<path fill="none" stroke="#9e9ac8" stroke-width="4" d="M350.95,-82.78C350.96,-82.79 350.97,-82.79 350.99,-82.8"/>
<path fill="none" stroke="#807dba" stroke-width="4" d="M350.99,-82.8C351,-82.8 351.01,-82.81 351.02,-82.81"/>
<path fill="none" stroke="#6a51a3" stroke-width="4" d="M351.02,-82.81C351.04,-82.83 351.06,-82.84 351.08,-82.85"/>
<path fill="none" stroke="#807dba" stroke-width="4" d="M351.08,-82.85C351.09,-82.85 351.1,-82.86 351.11,-82.86"/>
<path fill="none" stroke="#9e9ac8" stroke-width="4" d="M351.11,-82.86C351.13,-82.87 351.14,-82.87 351.15,-82.88"/>
<path fill="none" stroke="#807dba" stroke-width="4" d="M351.15,-82.88C351.16,-82.88 351.17,-82.89 351.18,-82.89"/>
<path fill="none" stroke="#6a51a3" stroke-width="4" d="M351.18,-82.89C351.19,-82.9 351.2,-82.91 351.21,-82.91"/>
<polygon fill="#6a51a3" stroke="#6a51a3" stroke-width="4" points="343.3,-75.06 350.69,-82.65 340.17,-81.32 343.3,-75.06"/>
<polygon fill="#6a51a3" stroke="#6a51a3" stroke-width="4" points="358.57,-90.49 351.18,-82.89 361.69,-84.22 358.57,-90.49"/>
</g>
<!-- 192.0.2.7&#45;&#45;192.0.2.10/31 -->
<g id="edge5" class="edge">
<title>192.0.2.7&#45;&#45;192.0.2.10/31</title>
<path fill="none" stroke="#6a51a3" stroke-width="4" d="M237.52,-86.11C237.51,-86.11 237.49,-86.12 237.48,-86.13"/>
<path fill="none" stroke="#807dba" stroke-width="4" d="M237.48,-86.13C237.47,-86.13 237.46,-86.14 237.45,-86.14"/>
<path fill="none" stroke="#9e9ac8" stroke-width="4" d="M237.45,-86.14C237.44,-86.15 237.43,-86.16 237.42,-86.16"/>
<path fill="none" stroke="#807dba" stroke-width="4" d="M237.42,-86.16C237.41,-86.17 237.4,-86.17 237.39,-86.18"/>
<path fill="none" stroke="#6a51a3" stroke-width="4" d="M237.39,-86.18C237.37,-86.19 237.35,-86.2 237.33,-86.22"/>
<path fill="none" stroke="#807dba" stroke-width="4" d="M237.33,-86.22C237.32,-86.22 237.31,-86.23 237.3,-86.23"/>
<path fill="none" stroke="#9e9ac8" stroke-width="4" d="M237.3,-86.23C237.29,-86.24 237.28,-86.25 237.27,-86.25"/>
<path fill="none" stroke="#807dba" stroke-width="4" d="M237.27,-86.25C237.26,-86.26 237.25,-86.26 237.23,-86.27"/>
<path fill="none" stroke="#6a51a3" stroke-width="4" d="M237.23,-86.27C237.22,-86.28 237.21,-86.28 237.2,-86.29"/>
<polygon fill="#6a51a3" stroke="#6a51a3" stroke-width="4" points="248.09,-84.05 237.68,-86.02 244.59,-77.99 248.09,-84.05"/>
<polygon fill="#6a51a3" stroke="#6a51a3" stroke-width="4" points="226.86,-88.22 237.27,-86.25 230.36,-94.28 226.86,-88.22"/>
</g>
<!-- 192.0.2.9&#45;&#45;192.0.2.4/31 -->
<g id="edge6" class="edge">
<title>192.0.2.9&#45;&#45;192.0.2.4/31</title>
<path fill="none" stroke="#6a51a3" stroke-width="4" d="M271.73,-178.63C271.74,-178.63 271.75,-178.63 271.76,-178.63"/>
<path fill="none" stroke="#807dba" stroke-width="4" d="M271.76,-178.63C271.77,-178.63 271.78,-178.63 271.79,-178.63"/>
<path fill="none" stroke="#9e9ac8" stroke-width="4" d="M271.79,-178.63C271.79,-178.63 271.8,-178.63 271.81,-178.63"/>
<path fill="none" stroke="#807dba" stroke-width="4" d="M271.81,-178.63C271.82,-178.63 271.83,-178.63 271.84,-178.63"/>
<path fill="none" stroke="#6a51a3" stroke-width="4" d="M271.84,-178.63C271.85,-178.63 271.87,-178.63 271.89,-178.62"/>
<path fill="none" stroke="#807dba" stroke-width="4" d="M271.89,-178.62C271.9,-178.62 271.91,-178.62 271.91,-178.62"/>
<path fill="none" stroke="#9e9ac8" stroke-width="4" d="M271.91,-178.62C271.92,-178.62 271.93,-178.62 271.94,-178.62"/>
<path fill="none" stroke="#807dba" stroke-width="4" d="M271.94,-178.62C271.95,-178.62 271.96,-178.62 271.97,-178.62"/>
<path fill="none" stroke="#6a51a3" stroke-width="4" d="M271.97,-178.62C271.97,-178.62 271.98,-178.62 271.99,-178.62"/>
<polygon fill="#6a51a3" stroke="#6a51a3" stroke-width="4" points="261.41,-175.84 271.62,-178.64 261.89,-182.82 261.41,-175.84"/>
<polygon fill="#6a51a3" stroke="#6a51a3" stroke-width="4" points="273.97,-181.99 263.75,-179.19 273.49,-175.01 273.97,-181.99"/>
</g>
<!-- 192.0.2.9&#45;&#45;192.0.2.8/31 -->
<g id="edge7" class="edge">
<title>192.0.2.9&#45;&#45;192.0.2.8/31</title>
<path fill="none" stroke="#6a51a3" stroke-width="4" d="M224.98,-245.12C225.01,-245.25 225.05,-245.38 225.08,-245.52"/>
<path fill="none" stroke="#807dba" stroke-width="4" d="M225.08,-245.52C225.12,-245.65 225.16,-245.78 225.19,-245.91"/>
<path fill="none" stroke="#9e9ac8" stroke-width="4" d="M225.19,-245.91C225.23,-246.03 225.27,-246.16 225.3,-246.29"/>
<path fill="none" stroke="#807dba" stroke-width="4" d="M225.3,-246.29C225.34,-246.42 225.37,-246.55 225.41,-246.68"/>
<path fill="none" stroke="#6a51a3" stroke-width="4" d="M225.41,-246.68C225.48,-246.94 225.55,-247.19 225.62,-247.44"/>
<path fill="none" stroke="#807dba" stroke-width="4" d="M225.62,-247.44C225.66,-247.57 225.69,-247.7 225.73,-247.82"/>
<path fill="none" stroke="#9e9ac8" stroke-width="4" d="M225.73,-247.82C225.76,-247.95 225.8,-248.07 225.83,-248.2"/>
<path fill="none" stroke="#807dba" stroke-width="4" d="M225.83,-248.2C225.87,-248.33 225.9,-248.45 225.94,-248.57"/>
<path fill="none" stroke="#6a51a3" stroke-width="4" d="M225.94,-248.57C225.97,-248.7 226.01,-248.82 226.04,-248.95"/>
<polygon fill="#6a51a3" stroke="#6a51a3" stroke-width="4" points="225.59,-234.29 224.9,-244.86 218.85,-236.17 225.59,-234.29"/>
<polygon fill="#6a51a3" stroke="#6a51a3" stroke-width="4" points="225.43,-259.77 226.11,-249.2 232.17,-257.89 225.43,-259.77"/>
</g>
<!-- 192.0.2.9&#45;&#45;192.0.2.10/31 -->
<g id="edge8" class="edge">
<title>192.0.2.9&#45;&#45;192.0.2.10/31</title>
<path fill="none" stroke="#6a51a3" stroke-width="4" d="M217.09,-119.17C217.11,-119.04 217.13,-118.9 217.15,-118.77"/>
<path fill="none" stroke="#807dba" stroke-width="4" d="M217.15,-118.77C217.17,-118.64 217.19,-118.5 217.21,-118.37"/>
<path fill="none" stroke="#9e9ac8" stroke-width="4" d="M217.21,-118.37C217.23,-118.24 217.25,-118.1 217.27,-117.97"/>
<path fill="none" stroke="#807dba" stroke-width="4" d="M217.27,-117.97C217.29,-117.84 217.31,-117.71 217.33,-117.57"/>
<path fill="none" stroke="#6a51a3" stroke-width="4" d="M217.33,-117.57C217.37,-117.31 217.41,-117.05 217.45,-116.79"/>
<path fill="none" stroke="#807dba" stroke-width="4" d="M217.45,-116.79C217.47,-116.66 217.49,-116.53 217.5,-116.4"/>
<path fill="none" stroke="#9e9ac8" stroke-width="4" d="M217.5,-116.4C217.52,-116.27 217.54,-116.14 217.56,-116.01"/>
<path fill="none" stroke="#807dba" stroke-width="4" d="M217.56,-116.01C217.58,-115.88 217.6,-115.75 217.62,-115.62"/>
<path fill="none" stroke="#6a51a3" stroke-width="4" d="M217.62,-115.62C217.64,-115.49 217.66,-115.37 217.68,-115.24"/>
<polygon fill="#6a51a3" stroke="#6a51a3" stroke-width="4" points="212.13,-128.84 217.05,-119.46 219.06,-129.87 212.13,-128.84"/>
<polygon fill="#6a51a3" stroke="#6a51a3" stroke-width="4" points="222.64,-105.57 217.72,-114.96 215.71,-104.55 222.64,-105.57"/>
</g>
<!-- 192.0.2.9&#45;&#45;192.0.2.12/30 -->
<g id="edge9" class="edge">
<title>192.0.2.9&#45;&#45;192.0.2.12/30</title>
<path fill="none" stroke="#6a51a3" stroke-width="4" d="M143.34,-186.7C143.33,-186.7 143.31,-186.7 143.3,-186.7"/>
<path fill="none" stroke="#807dba" stroke-width="4" d="M143.3,-186.7C143.29,-186.7 143.27,-186.7 143.26,-186.7"/>
<path fill="none" stroke="#9e9ac8" stroke-width="4" d="M143.26,-186.7C143.25,-186.7 143.24,-186.71 143.22,-186.71"/>
<path fill="none" stroke="#807dba" stroke-width="4" d="M143.22,-186.71C143.21,-186.71 143.2,-186.71 143.18,-186.71"/>
<path fill="none" stroke="#6a51a3" stroke-width="4" d="M143.18,-186.71C143.16,-186.71 143.13,-186.71 143.1,-186.71"/>
<path fill="none" stroke="#807dba" stroke-width="4" d="M143.1,-186.71C143.09,-186.71 143.08,-186.71 143.06,-186.72"/>
<path fill="none" stroke="#9e9ac8" stroke-width="4" d="M143.06,-186.72C143.05,-186.72 143.04,-186.72 143.02,-186.72"/>
<path fill="none" stroke="#807dba" stroke-width="4" d="M143.02,-186.72C143.01,-186.72 143,-186.72 142.99,-186.72"/>
<path fill="none" stroke="#6a51a3" stroke-width="4" d="M142.99,-186.72C142.97,-186.72 142.96,-186.72 142.95,-186.72"/>
<polygon fill="#6a51a3" stroke="#6a51a3" stroke-width="4" points="153.69,-189.62 143.5,-186.69 153.29,-182.63 153.69,-189.62"/>
<polygon fill="#6a51a3" stroke="#6a51a3" stroke-width="4" points="137.3,-183.54 147.49,-186.46 137.7,-190.52 137.3,-183.54"/>
</g>
<!-- 198.51.100.1&#45;&#45;192.0.2.2/31 -->
<g id="edge10" class="edge">
<title>198.51.100.1&#45;&#45;192.0.2.2/31</title>
<path fill="none" stroke="#6a51a3" stroke-width="4" d="M374.89,-237.05C374.89,-237.06 374.89,-237.06 374.89,-237.07"/>
<path fill="none" stroke="#807dba" stroke-width="4" d="M374.89,-237.07C374.9,-237.08 374.9,-237.09 374.9,-237.1"/>
<path fill="none" stroke="#9e9ac8" stroke-width="4" d="M374.9,-237.1C374.9,-237.11 374.9,-237.12 374.91,-237.13"/>
<path fill="none" stroke="#807dba" stroke-width="4" d="M374.91,-237.13C374.91,-237.14 374.91,-237.15 374.91,-237.16"/>
<path fill="none" stroke="#6a51a3" stroke-width="4" d="M374.91,-237.16C374.92,-237.18 374.92,-237.2 374.92,-237.22"/>
<path fill="none" stroke="#807dba" stroke-width="4" d="M374.92,-237.22C374.92,-237.23 374.93,-237.24 374.93,-237.25"/>
<path fill="none" stroke="#9e9ac8" stroke-width="4" d="M374.93,-237.25C374.93,-237.26 374.93,-237.27 374.93,-237.28"/>
<path fill="none" stroke="#807dba" stroke-width="4" d="M374.93,-237.28C374.94,-237.29 374.94,-237.3 374.94,-237.31"/>
<path fill="none" stroke="#6a51a3" stroke-width="4" d="M374.94,-237.31C374.94,-237.32 374.94,-237.33 374.94,-237.34"/>
<polygon fill="#6a51a3" stroke="#6a51a3" stroke-width="4" points="376.4,-226.39 374.86,-236.87 369.53,-227.72 376.4,-226.39"/>
<polygon fill="#6a51a3" stroke="#6a51a3" stroke-width="4" points="373.06,-246.07 374.61,-235.59 379.94,-244.74 373.06,-246.07"/>
</g>
<!-- 198.51.100.1&#45;&#45;192.0.2.4/31 -->
<g id="edge11" class="edge">
<title>198.51.100.1&#45;&#45;192.0.2.4/31</title>
<path fill="none" stroke="#6a51a3" stroke-width="4" d="M298.57,-177.03C298.56,-177.03 298.54,-177.03 298.53,-177.03"/>
<path fill="none" stroke="#807dba" stroke-width="4" d="M298.53,-177.03C298.51,-177.03 298.5,-177.03 298.49,-177.04"/>
<path fill="none" stroke="#9e9ac8" stroke-width="4" d="M298.49,-177.04C298.47,-177.04 298.46,-177.04 298.44,-177.04"/>
<path fill="none" stroke="#807dba" stroke-width="4" d="M298.44,-177.04C298.43,-177.04 298.42,-177.04 298.4,-177.04"/>
<path fill="none" stroke="#6a51a3" stroke-width="4" d="M298.4,-177.04C298.37,-177.04 298.35,-177.04 298.32,-177.04"/>
<path fill="none" stroke="#807dba" stroke-width="4" d="M298.32,-177.04C298.3,-177.04 298.29,-177.05 298.28,-177.05"/>
<path fill="none" stroke="#9e9ac8" stroke-width="4" d="M298.28,-177.05C298.26,-177.05 298.25,-177.05 298.23,-177.05"/>
<path fill="none" stroke="#807dba" stroke-width="4" d="M298.23,-177.05C298.22,-177.05 298.21,-177.05 298.19,-177.05"/>
<path fill="none" stroke="#6a51a3" stroke-width="4" d="M298.19,-177.05C298.18,-177.05 298.16,-177.05 298.15,-177.05"/>
<polygon fill="#6a51a3" stroke="#6a51a3" stroke-width="4" points="308.86,-179.99 298.69,-177.02 308.49,-173 308.86,-179.99"/>
<polygon fill="#6a51a3" stroke="#6a51a3" stroke-width="4" points="292.17,-173.87 302.34,-176.83 292.54,-180.86 292.17,-173.87"/>
</g>
<!-- 198.51.100.1&#45;&#45;192.0.2.6/31 -->
<g id="edge12" class="edge">
<title>198.51.100.1&#45;&#45;192.0.2.6/31</title>
<path fill="none" stroke="#6a51a3" stroke-width="4" d="M367.26,-109.17C367.26,-109.16 367.26,-109.15 367.26,-109.14"/>
<path fill="none" stroke="#807dba" stroke-width="4" d="M367.26,-109.14C367.26,-109.13 367.26,-109.12 367.26,-109.11"/>
<path fill="none" stroke="#9e9ac8" stroke-width="4" d="M367.26,-109.11C367.26,-109.1 367.26,-109.09 367.26,-109.08"/>
<path fill="none" stroke="#807dba" stroke-width="4" d="M367.26,-109.08C367.27,-109.07 367.27,-109.06 367.27,-109.05"/>
<path fill="none" stroke="#6a51a3" stroke-width="4" d="M367.27,-109.05C367.27,-109.03 367.27,-109.01 367.27,-108.99"/>
<path fill="none" stroke="#807dba" stroke-width="4" d="M367.27,-108.99C367.27,-108.98 367.27,-108.97 367.27,-108.96"/>
<path fill="none" stroke="#9e9ac8" stroke-width="4" d="M367.27,-108.96C367.27,-108.95 367.27,-108.94 367.28,-108.93"/>
<path fill="none" stroke="#807dba" stroke-width="4" d="M367.28,-108.93C367.28,-108.92 367.28,-108.91 367.28,-108.9"/>
<path fill="none" stroke="#6a51a3" stroke-width="4" d="M367.28,-108.9C367.28,-108.89 367.28,-108.88 367.28,-108.87"/>
<polygon fill="#6a51a3" stroke="#6a51a3" stroke-width="4" points="363.04,-119.08 367.25,-109.35 370.03,-119.57 363.04,-119.08"/>
<polygon fill="#6a51a3" stroke="#6a51a3" stroke-width="4" points="371.36,-100.92 367.15,-110.64 364.37,-100.42 371.36,-100.92"/>
</g>
<!-- 192.0.2.14 -->
<g id="node1" class="node">
<title>192.0.2.14</title>
<ellipse fill="#dadaeb" stroke="#6a51a3" stroke-width="2" cx="54" cy="-195.45" rx="54" ry="54"/>
<text text-anchor="middle" x="54" y="-192.95" font-family="sans bold" font-size="10.00" fill="#4a1486">192.0.2.14</text>
</g>
<!-- 192.0.2.3 -->
<g id="node2" class="node">
<title>192.0.2.3</title>
<ellipse fill="#dadaeb" stroke="#6a51a3" stroke-width="2" cx="308.16" cy="-300.82" rx="54" ry="54"/>
<text text-anchor="middle" x="308.16" y="-298.32" font-family="sans bold" font-size="10.00" fill="#4a1486">192.0.2.3</text>
</g>
<!-- 192.0.2.7 -->
<g id="node3" class="node">
<title>192.0.2.7</title>
<ellipse fill="#dadaeb" stroke="#6a51a3" stroke-width="2" cx="293.16" cy="-54" rx="54" ry="54"/>
<text text-anchor="middle" x="293.16" y="-51.5" font-family="sans bold" font-size="10.00" fill="#4a1486">192.0.2.7</text>
</g>
<!-- 192.0.2.9 -->
<g id="node4" class="node">
<title>192.0.2.9</title>
<ellipse fill="#dadaeb" stroke="#6a51a3" stroke-width="2" cx="207.67" cy="-183.05" rx="54" ry="54"/>
<text text-anchor="middle" x="207.67" y="-180.55" font-family="sans bold" font-size="10.00" fill="#4a1486">192.0.2.9</text>
</g>
<!-- 198.51.100.1 -->
<g id="node5" class="node">
<title>198.51.100.1</title>
<ellipse fill="#dadaeb" stroke="#6a51a3" stroke-width="2" cx="362.66" cy="-173.63" rx="54" ry="54"/>
<text text-anchor="middle" x="362.66" y="-171.13" font-family="sans bold" font-size="10.00" fill="#4a1486">198.51.100.1</text>
</g>
<!-- 192.0.2.2/31 -->
<g id="node6" class="node">
<title>192.0.2.2/31</title>
<ellipse fill="#f2f0f7" stroke="#6a51a3" stroke-width="2" cx="378.23" cy="-254.4" rx="9" ry="9"/>
</g>
<!-- 192.0.2.4/31 -->
<g id="node7" class="node">
<title>192.0.2.4/31</title>
<ellipse fill="#f2f0f7" stroke="#6a51a3" stroke-width="2" cx="283.04" cy="-177.85" rx="9" ry="9"/>
</g>
<!-- 192.0.2.6/31 -->
<g id="node8" class="node">
<title>192.0.2.6/31</title>
<ellipse fill="#f2f0f7" stroke="#6a51a3" stroke-width="2" cx="368.52" cy="-91.53" rx="9" ry="9"/>
</g>
<!-- 192.0.2.8/31 -->
<g id="node9" class="node">
<title>192.0.2.8/31</title>
<ellipse fill="#f2f0f7" stroke="#6a51a3" stroke-width="2" cx="231.28" cy="-267.72" rx="9" ry="9"/>
</g>
<!-- 192.0.2.10/31 -->
<g id="node10" class="node">
<title>192.0.2.10/31</title>
<ellipse fill="#f2f0f7" stroke="#6a51a3" stroke-width="2" cx="220.53" cy="-95.91" rx="9" ry="9"/>
</g>
<!-- 192.0.2.12/30 -->
<g id="node11" class="node">
<title>192.0.2.12/30</title>
<ellipse fill="#f2f0f7" stroke="#6a51a3" stroke-width="2" cx="128.41" cy="-187.55" rx="9" ry="9"/>
</g>
</g>
</svg>
