<?xml version="1.0" encoding="UTF-8" standalone="no"?>
<!DOCTYPE svg PUBLIC "-//W3C//DTD SVG 1.1//EN"
 "http://www.w3.org/Graphics/SVG/1.1/DTD/svg11.dtd">
<!-- Generated by graphviz version 2.38.0 (20140413.2041)
 -->
<!-- Title: G Pages: 1 -->
<svg width="429pt" height="389pt"
 viewBox="0.00 0.00 428.76 389.09" xmlns="http://www.w3.org/2000/svg" xmlns:xlink="http://www.w3.org/1999/xlink">
<g id="graph0" class="graph" transform="scale(1 1) rotate(0) translate(264.493 203.245)">
<title>G</title>
<polygon fill="white" stroke="none" points="-264.493,185.849 -264.493,-203.245 164.269,-203.245 164.269,185.849 -264.493,185.849"/>
<text text-anchor="middle" x="-163.993" y="-184.045" font-family="sans bold" font-size="14.00">1970&#45;01&#45;01 00:00:00Z</text>
<!-- 192.0.2.14&#45;&#45;192.0.2.12/30 -->
<g id="edge1" class="edge"><title>192.0.2.14&#45;&#45;192.0.2.12/30</title>
<path fill="none" stroke="#6a51a3" stroke-width="4" d="M-142.409,-8.67117C-142.4,-8.67026 -142.392,-8.66934 -142.383,-8.66843"/>
<path fill="none" stroke="#807dba" stroke-width="4" d="M-142.383,-8.66843C-142.375,-8.66752 -142.366,-8.6666 -142.357,-8.66569"/>
<path fill="none" stroke="#9e9ac8" stroke-width="4" d="M-142.357,-8.66569C-142.349,-8.66478 -142.34,-8.66387 -142.332,-8.66296"/>
<path fill="none" stroke="#807dba" stroke-width="4" d="M-142.332,-8.66296C-142.323,-8.66204 -142.315,-8.66113 -142.306,-8.66022"/>
<path fill="none" stroke="#6a51a3" stroke-width="4" d="M-142.306,-8.66022C-142.289,-8.6584 -142.272,-8.65658 -142.255,-8.65476"/>
<path fill="none" stroke="#807dba" stroke-width="4" d="M-142.255,-8.65476C-142.246,-8.65385 -142.237,-8.65294 -142.229,-8.65203"/>
<path fill="none" stroke="#9e9ac8" stroke-width="4" d="M-142.229,-8.65203C-142.22,-8.65113 -142.212,-8.65022 -142.203,-8.64931"/>
<path fill="none" stroke="#807dba" stroke-width="4" d="M-142.203,-8.64931C-142.195,-8.6484 -142.186,-8.64749 -142.178,-8.64659"/>
<path fill="none" stroke="#6a51a3" stroke-width="4" d="M-142.178,-8.64659C-142.169,-8.64568 -142.161,-8.64477 -142.152,-8.64387"/>
<polygon fill="#6a51a3" stroke="#6a51a3" stroke-width="4" points="-152.87,-6.26257 -142.556,-8.68668 -152.13,-13.2234 -152.87,-6.26257"/>
<polygon fill="#6a51a3" stroke="#6a51a3" stroke-width="4" points="-140.047,-11.94 -150.361,-9.51629 -140.787,-4.97912 -140.047,-11.94"/>
</g>
<!-- 192.0.2.3&#45;&#45;192.0.2.2/31 -->
<g id="edge2" class="edge"><title>192.0.2.3&#45;&#45;192.0.2.2/31</title>
<path fill="none" stroke="#6a51a3" stroke-width="4" d="M104.835,-86.6095C104.869,-86.587 104.903,-86.5644 104.937,-86.5419"/>
<path fill="none" stroke="#807dba" stroke-width="4" d="M104.937,-86.5419C104.971,-86.5194 105.005,-86.4969 105.039,-86.4744"/>
<path fill="none" stroke="#9e9ac8" stroke-width="4" d="M105.039,-86.4744C105.073,-86.452 105.107,-86.4295 105.141,-86.4071"/>
<path fill="none" stroke="#807dba" stroke-width="4" d="M105.141,-86.4071C105.174,-86.3846 105.208,-86.3622 105.242,-86.3398"/>
<path fill="none" stroke="#6a51a3" stroke-width="4" d="M105.242,-86.3398C105.31,-86.2951 105.377,-86.2504 105.444,-86.2058"/>
<path fill="none" stroke="#807dba" stroke-width="4" d="M105.444,-86.2058C105.478,-86.1834 105.512,-86.1612 105.545,-86.1389"/>
<path fill="none" stroke="#9e9ac8" stroke-width="4" d="M105.545,-86.1389C105.579,-86.1166 105.613,-86.0944 105.646,-86.0722"/>
<path fill="none" stroke="#807dba" stroke-width="4" d="M105.646,-86.0722C105.68,-86.0499 105.713,-86.0277 105.747,-86.0056"/>
<path fill="none" stroke="#6a51a3" stroke-width="4" d="M105.747,-86.0056C105.78,-85.9834 105.814,-85.9612 105.847,-85.9391"/>
<polygon fill="#6a51a3" stroke="#6a51a3" stroke-width="4" points="94.4783,-89.2717 104.748,-86.6671 98.3441,-95.1075 94.4783,-89.2717"/>
<polygon fill="#6a51a3" stroke="#6a51a3" stroke-width="4" points="116.38,-83.1599 106.111,-85.7645 112.515,-77.3241 116.38,-83.1599"/>
</g>
<!-- 192.0.2.3&#45;&#45;192.0.2.8/31 -->
<g id="edge3" class="edge"><title>192.0.2.3&#45;&#45;192.0.2.8/31</title>
<path fill="none" stroke="#6a51a3" stroke-width="4" d="M-7.98047,-96.8412C-8.01783,-96.8251 -8.05515,-96.809 -8.09244,-96.793"/>
<path fill="none" stroke="#807dba" stroke-width="4" d="M-8.09244,-96.793C-8.12973,-96.7769 -8.16699,-96.7609 -8.20421,-96.7449"/>
<path fill="none" stroke="#9e9ac8" stroke-width="4" d="M-8.20421,-96.7449C-8.24144,-96.7289 -8.27863,-96.7128 -8.31578,-96.6969"/>
<path fill="none" stroke="#807dba" stroke-width="4" d="M-8.31578,-96.6969C-8.35293,-96.6809 -8.39005,-96.6649 -8.42714,-96.6489"/>
<path fill="none" stroke="#6a51a3" stroke-width="4" d="M-8.42714,-96.6489C-8.50131,-96.617 -8.57534,-96.5851 -8.64923,-96.5533"/>
<path fill="none" stroke="#807dba" stroke-width="4" d="M-8.64923,-96.5533C-8.68617,-96.5374 -8.72308,-96.5215 -8.75996,-96.5057"/>
<path fill="none" stroke="#9e9ac8" stroke-width="4" d="M-8.75996,-96.5057C-8.79683,-96.4898 -8.83367,-96.4739 -8.87047,-96.4581"/>
<path fill="none" stroke="#807dba" stroke-width="4" d="M-8.87047,-96.4581C-8.90728,-96.4423 -8.94405,-96.4264 -8.98078,-96.4106"/>
<path fill="none" stroke="#6a51a3" stroke-width="4" d="M-8.98078,-96.4106C-9.01751,-96.3948 -9.05421,-96.379 -9.09087,-96.3632"/>
<polygon fill="#6a51a3" stroke="#6a51a3" stroke-width="4" points="-0.122506,-104.034 -7.924,-96.8654 2.64505,-97.6042 -0.122506,-104.034"/>
<polygon fill="#6a51a3" stroke="#6a51a3" stroke-width="4" points="-17.1427,-89.0871 -9.34116,-96.2556 -19.9102,-95.5167 -17.1427,-89.0871"/>
</g>
<!-- 192.0.2.7&#45;&#45;192.0.2.6/31 -->
<g id="edge4" class="edge"><title>192.0.2.7&#45;&#45;192.0.2.6/31</title>
<path fill="none" stroke="#6a51a3" stroke-width="4" d="M93.382,99.1936C93.4316,99.1689 93.4811,99.1443 93.5305,99.1197"/>
<path fill="none" stroke="#807dba" stroke-width="4" d="M93.5305,99.1197C93.5799,99.095 93.6293,99.0705 93.6786,99.0459"/>
<path fill="none" stroke="#9e9ac8" stroke-width="4" d="M93.6786,99.0459C93.7279,99.0214 93.7771,98.9968 93.8263,98.9723"/>
<path fill="none" stroke="#807dba" stroke-width="4" d="M93.8263,98.9723C93.8755,98.9478 93.9246,98.9234 93.9737,98.899"/>
<path fill="none" stroke="#6a51a3" stroke-width="4" d="M93.9737,98.899C94.0718,98.8501 94.1697,98.8013 94.2673,98.7527"/>
<path fill="none" stroke="#807dba" stroke-width="4" d="M94.2673,98.7527C94.3161,98.7284 94.3649,98.7041 94.4135,98.6799"/>
<path fill="none" stroke="#9e9ac8" stroke-width="4" d="M94.4135,98.6799C94.4622,98.6556 94.5109,98.6314 94.5594,98.6072"/>
<path fill="none" stroke="#807dba" stroke-width="4" d="M94.5594,98.6072C94.608,98.5831 94.6565,98.5589 94.7049,98.5348"/>
<path fill="none" stroke="#6a51a3" stroke-width="4" d="M94.7049,98.5348C94.7534,98.5107 94.8017,98.4866 94.8501,98.4625"/>
<polygon fill="#6a51a3" stroke="#6a51a3" stroke-width="4" points="85.7598,106.899 93.151,99.3086 82.6393,100.633 85.7598,106.899"/>
<polygon fill="#6a51a3" stroke="#6a51a3" stroke-width="4" points="102.322,90.8316 94.9304,98.4225 105.442,97.0976 102.322,90.8316"/>
</g>
<!-- 192.0.2.7&#45;&#45;192.0.2.10/31 -->
<g id="edge5" class="edge"><title>192.0.2.7&#45;&#45;192.0.2.10/31</title>
<path fill="none" stroke="#6a51a3" stroke-width="4" d="M-19.9168,95.6741C-19.9521,95.6538 -19.9873,95.6334 -20.0226,95.6131"/>
<path fill="none" stroke="#807dba" stroke-width="4" d="M-20.0226,95.6131C-20.0578,95.5928 -20.093,95.5724 -20.1282,95.5522"/>
<path fill="none" stroke="#9e9ac8" stroke-width="4" d="M-20.1282,95.5522C-20.1633,95.5319 -20.1985,95.5116 -20.2336,95.4913"/>
<path fill="none" stroke="#807dba" stroke-width="4" d="M-20.2336,95.4913C-20.2687,95.4711 -20.3037,95.4508 -20.3388,95.4306"/>
<path fill="none" stroke="#6a51a3" stroke-width="4" d="M-20.3388,95.4306C-20.4088,95.3902 -20.4788,95.3498 -20.5486,95.3095"/>
<path fill="none" stroke="#807dba" stroke-width="4" d="M-20.5486,95.3095C-20.5835,95.2894 -20.6183,95.2693 -20.6532,95.2492"/>
<path fill="none" stroke="#9e9ac8" stroke-width="4" d="M-20.6532,95.2492C-20.688,95.2291 -20.7228,95.209 -20.7576,95.1889"/>
<path fill="none" stroke="#807dba" stroke-width="4" d="M-20.7576,95.1889C-20.7924,95.1689 -20.8271,95.1488 -20.8618,95.1288"/>
<path fill="none" stroke="#6a51a3" stroke-width="4" d="M-20.8618,95.1288C-20.8965,95.1088 -20.9312,95.0888 -20.9658,95.0688"/>
<polygon fill="#6a51a3" stroke="#6a51a3" stroke-width="4" points="-9.4365,97.6809 -19.8472,95.7142 -12.9352,103.744 -9.4365,97.6809"/>
<polygon fill="#6a51a3" stroke="#6a51a3" stroke-width="4" points="-31.6292,92.9564 -21.2185,94.923 -28.1305,86.8934 -31.6292,92.9564"/>
</g>
<!-- 192.0.2.9&#45;&#45;192.0.2.4/31 -->
<g id="edge6" class="edge"><title>192.0.2.9&#45;&#45;192.0.2.4/31</title>
<path fill="none" stroke="#6a51a3" stroke-width="4" d="M13.545,1.519C13.5575,1.51986 13.5699,1.52072 13.5824,1.52158"/>
<path fill="none" stroke="#807dba" stroke-width="4" d="M13.5824,1.52158C13.5948,1.52244 13.6073,1.5233 13.6197,1.52415"/>
<path fill="none" stroke="#9e9ac8" stroke-width="4" d="M13.6197,1.52415C13.6322,1.52501 13.6446,1.52587 13.657,1.52673"/>
<path fill="none" stroke="#807dba" stroke-width="4" d="M13.657,1.52673C13.6695,1.52759 13.6819,1.52844 13.6943,1.5293"/>
<path fill="none" stroke="#6a51a3" stroke-width="4" d="M13.6943,1.5293C13.7191,1.53101 13.7439,1.53272 13.7687,1.53443"/>
<path fill="none" stroke="#807dba" stroke-width="4" d="M13.7687,1.53443C13.7811,1.53529 13.7935,1.53614 13.8058,1.53699"/>
<path fill="none" stroke="#9e9ac8" stroke-width="4" d="M13.8058,1.53699C13.8182,1.53785 13.8306,1.5387 13.8429,1.53955"/>
<path fill="none" stroke="#807dba" stroke-width="4" d="M13.8429,1.53955C13.8553,1.5404 13.8676,1.54126 13.88,1.54211"/>
<path fill="none" stroke="#6a51a3" stroke-width="4" d="M13.88,1.54211C13.8923,1.54296 13.9046,1.54381 13.917,1.54466"/>
<polygon fill="#6a51a3" stroke="#6a51a3" stroke-width="4" points="3.2616,4.3179 13.4788,1.51452 3.74342,-2.6655 3.2616,4.3179"/>
<polygon fill="#6a51a3" stroke="#6a51a3" stroke-width="4" points="16.6354,-1.77614 6.41806,1.02696 16.1533,5.20727 16.6354,-1.77614"/>
</g>
<!-- 192.0.2.9&#45;&#45;192.0.2.8/31 -->
<g id="edge7" class="edge"><title>192.0.2.9&#45;&#45;192.0.2.8/31</title>
<path fill="none" stroke="#6a51a3" stroke-width="4" d="M-33.4225,-65.1834C-33.3785,-65.3413 -33.3346,-65.4988 -33.2908,-65.6558"/>
<path fill="none" stroke="#807dba" stroke-width="4" d="M-33.2908,-65.6558C-33.247,-65.8128 -33.2034,-65.9694 -33.1599,-66.1255"/>
<path fill="none" stroke="#9e9ac8" stroke-width="4" d="M-33.1599,-66.1255C-33.1164,-66.2816 -33.073,-66.4372 -33.0297,-66.5924"/>
<path fill="none" stroke="#807dba" stroke-width="4" d="M-33.0297,-66.5924C-32.9865,-66.7475 -32.9434,-66.9022 -32.9004,-67.0564"/>
<path fill="none" stroke="#6a51a3" stroke-width="4" d="M-32.9004,-67.0564C-32.8144,-67.3648 -32.729,-67.6712 -32.6442,-67.9755"/>
<path fill="none" stroke="#807dba" stroke-width="4" d="M-32.6442,-67.9755C-32.6018,-68.1277 -32.5595,-68.2794 -32.5173,-68.4305"/>
<path fill="none" stroke="#9e9ac8" stroke-width="4" d="M-32.5173,-68.4305C-32.4752,-68.5817 -32.4332,-68.7323 -32.3914,-68.8824"/>
<path fill="none" stroke="#807dba" stroke-width="4" d="M-32.3914,-68.8824C-32.3496,-69.0325 -32.3079,-69.182 -32.2663,-69.331"/>
<path fill="none" stroke="#6a51a3" stroke-width="4" d="M-32.2663,-69.331C-32.2248,-69.48 -32.1834,-69.6285 -32.1422,-69.7763"/>
<polygon fill="#6a51a3" stroke="#6a51a3" stroke-width="4" points="-32.8069,-54.3574 -33.4931,-64.93 -39.5498,-56.2371 -32.8069,-54.3574"/>
<polygon fill="#6a51a3" stroke="#6a51a3" stroke-width="4" points="-32.7126,-80.7648 -32.0263,-70.1922 -25.9696,-78.8851 -32.7126,-80.7648"/>
</g>
<!-- 192.0.2.9&#45;&#45;192.0.2.10/31 -->
<g id="edge8" class="edge"><title>192.0.2.9&#45;&#45;192.0.2.10/31</title>
<path fill="none" stroke="#6a51a3" stroke-width="4" d="M-41.3982,60.6856C-41.3688,60.8847 -41.3395,61.0831 -41.3104,61.2808"/>
<path fill="none" stroke="#807dba" stroke-width="4" d="M-41.3104,61.2808C-41.2812,61.4785 -41.2522,61.6756 -41.2232,61.8719"/>
<path fill="none" stroke="#9e9ac8" stroke-width="4" d="M-41.2232,61.8719C-41.1942,62.0683 -41.1654,62.2639 -41.1366,62.4588"/>
<path fill="none" stroke="#807dba" stroke-width="4" d="M-41.1366,62.4588C-41.1079,62.6538 -41.0792,62.8479 -41.0507,63.0414"/>
<path fill="none" stroke="#6a51a3" stroke-width="4" d="M-41.0507,63.0414C-40.9937,63.4283 -40.937,63.8122 -40.8809,64.193"/>
<path fill="none" stroke="#807dba" stroke-width="4" d="M-40.8809,64.193C-40.8528,64.3833 -40.8248,64.5729 -40.797,64.7617"/>
<path fill="none" stroke="#9e9ac8" stroke-width="4" d="M-40.797,64.7617C-40.7691,64.9505 -40.7414,65.1384 -40.7138,65.3256"/>
<path fill="none" stroke="#807dba" stroke-width="4" d="M-40.7138,65.3256C-40.6862,65.5127 -40.6587,65.699 -40.6314,65.8844"/>
<path fill="none" stroke="#6a51a3" stroke-width="4" d="M-40.6314,65.8844C-40.604,66.0699 -40.5768,66.2545 -40.5497,66.4382"/>
<polygon fill="#6a51a3" stroke="#6a51a3" stroke-width="4" points="-46.3283,51.2462 -41.4065,60.6285 -39.4032,50.2248 -46.3283,51.2462"/>
<polygon fill="#6a51a3" stroke="#6a51a3" stroke-width="4" points="-35.6125,75.9257 -40.5343,66.5435 -42.5376,76.9472 -35.6125,75.9257"/>
</g>
<!-- 192.0.2.9&#45;&#45;192.0.2.12/30 -->
<g id="edge9" class="edge"><title>192.0.2.9&#45;&#45;192.0.2.12/30</title>
<path fill="none" stroke="#6a51a3" stroke-width="4" d="M-114.953,-6.55479C-114.969,-6.55571 -114.985,-6.55662 -115.001,-6.55754"/>
<path fill="none" stroke="#807dba" stroke-width="4" d="M-115.001,-6.55754C-115.017,-6.55846 -115.033,-6.55937 -115.05,-6.56029"/>
<path fill="none" stroke="#9e9ac8" stroke-width="4" d="M-115.05,-6.56029C-115.066,-6.5612 -115.082,-6.56212 -115.098,-6.56303"/>
<path fill="none" stroke="#807dba" stroke-width="4" d="M-115.098,-6.56303C-115.114,-6.56394 -115.13,-6.56486 -115.146,-6.56577"/>
<path fill="none" stroke="#6a51a3" stroke-width="4" d="M-115.146,-6.56577C-115.179,-6.5676 -115.211,-6.56942 -115.243,-6.57124"/>
<path fill="none" stroke="#807dba" stroke-width="4" d="M-115.243,-6.57124C-115.259,-6.57215 -115.275,-6.57306 -115.291,-6.57398"/>
<path fill="none" stroke="#9e9ac8" stroke-width="4" d="M-115.291,-6.57398C-115.307,-6.57489 -115.323,-6.5758 -115.339,-6.5767"/>
<path fill="none" stroke="#807dba" stroke-width="4" d="M-115.339,-6.5767C-115.355,-6.57761 -115.371,-6.57852 -115.387,-6.57943"/>
<path fill="none" stroke="#6a51a3" stroke-width="4" d="M-115.387,-6.57943C-115.403,-6.58034 -115.42,-6.58125 -115.436,-6.58215"/>
<polygon fill="#6a51a3" stroke="#6a51a3" stroke-width="4" points="-104.599,-9.47375 -114.781,-6.54517 -104.995,-2.48496 -104.599,-9.47375"/>
<polygon fill="#6a51a3" stroke="#6a51a3" stroke-width="4" points="-122.208,-3.46026 -112.026,-6.38879 -121.811,-10.4491 -122.208,-3.46026"/>
</g>
<!-- 198.51.100.1&#45;&#45;192.0.2.2/31 -->
<g id="edge10" class="edge"><title>198.51.100.1&#45;&#45;192.0.2.2/31</title>
<path fill="none" stroke="#6a51a3" stroke-width="4" d="M118.479,-56.7029C118.481,-56.7141 118.483,-56.7252 118.485,-56.7364"/>
<path fill="none" stroke="#807dba" stroke-width="4" d="M118.485,-56.7364C118.488,-56.7476 118.49,-56.7587 118.492,-56.7699"/>
<path fill="none" stroke="#9e9ac8" stroke-width="4" d="M118.492,-56.7699C118.494,-56.7811 118.496,-56.7922 118.498,-56.8034"/>
<path fill="none" stroke="#807dba" stroke-width="4" d="M118.498,-56.8034C118.5,-56.8145 118.503,-56.8257 118.505,-56.8368"/>
<path fill="none" stroke="#6a51a3" stroke-width="4" d="M118.505,-56.8368C118.509,-56.8591 118.513,-56.8814 118.518,-56.9037"/>
<path fill="none" stroke="#807dba" stroke-width="4" d="M118.518,-56.9037C118.52,-56.9148 118.522,-56.926 118.524,-56.9371"/>
<path fill="none" stroke="#9e9ac8" stroke-width="4" d="M118.524,-56.9371C118.526,-56.9482 118.528,-56.9594 118.531,-56.9705"/>
<path fill="none" stroke="#807dba" stroke-width="4" d="M118.531,-56.9705C118.533,-56.9816 118.535,-56.9927 118.537,-57.0039"/>
<path fill="none" stroke="#6a51a3" stroke-width="4" d="M118.537,-57.0039C118.539,-57.015 118.541,-57.0261 118.543,-57.0372"/>
<polygon fill="#6a51a3" stroke="#6a51a3" stroke-width="4" points="119.965,-45.9225 118.421,-56.4042 113.092,-47.2476 119.965,-45.9225"/>
<polygon fill="#6a51a3" stroke="#6a51a3" stroke-width="4" points="116.886,-66.9275 118.429,-56.4457 123.759,-65.6024 116.886,-66.9275"/>
</g>
<!-- 198.51.100.1&#45;&#45;192.0.2.4/31 -->
<g id="edge11" class="edge"><title>198.51.100.1&#45;&#45;192.0.2.4/31</title>
<path fill="none" stroke="#6a51a3" stroke-width="4" d="M41.808,3.21046C41.7918,3.20959 41.7755,3.20873 41.7593,3.20787"/>
<path fill="none" stroke="#807dba" stroke-width="4" d="M41.7593,3.20787C41.7431,3.20701 41.7268,3.20615 41.7106,3.20529"/>
<path fill="none" stroke="#9e9ac8" stroke-width="4" d="M41.7106,3.20529C41.6944,3.20443 41.6782,3.20357 41.662,3.20271"/>
<path fill="none" stroke="#807dba" stroke-width="4" d="M41.662,3.20271C41.6458,3.20185 41.6296,3.20099 41.6134,3.20013"/>
<path fill="none" stroke="#6a51a3" stroke-width="4" d="M41.6134,3.20013C41.581,3.19841 41.5487,3.1967 41.5164,3.19498"/>
<path fill="none" stroke="#807dba" stroke-width="4" d="M41.5164,3.19498C41.5002,3.19413 41.4841,3.19327 41.4679,3.19241"/>
<path fill="none" stroke="#9e9ac8" stroke-width="4" d="M41.4679,3.19241C41.4518,3.19156 41.4357,3.1907 41.4196,3.18985"/>
<path fill="none" stroke="#807dba" stroke-width="4" d="M41.4196,3.18985C41.4034,3.18899 41.3873,3.18814 41.3712,3.18728"/>
<path fill="none" stroke="#6a51a3" stroke-width="4" d="M41.3712,3.18728C41.3551,3.18643 41.339,3.18557 41.323,3.18472"/>
<polygon fill="#6a51a3" stroke="#6a51a3" stroke-width="4" points="52.1945,0.256603 42.023,3.22177 51.8235,7.24677 52.1945,0.256603"/>
<polygon fill="#6a51a3" stroke="#6a51a3" stroke-width="4" points="34.534,6.32945 44.7054,3.36433 34.905,-0.660723 34.534,6.32945"/>
</g>
<!-- 198.51.100.1&#45;&#45;192.0.2.6/31 -->
<g id="edge12" class="edge"><title>198.51.100.1&#45;&#45;192.0.2.6/31</title>
<path fill="none" stroke="#6a51a3" stroke-width="4" d="M110.858,71.0113C110.859,71.0227 110.86,71.0341 110.861,71.0454"/>
<path fill="none" stroke="#807dba" stroke-width="4" d="M110.861,71.0454C110.861,71.0568 110.862,71.0681 110.863,71.0795"/>
<path fill="none" stroke="#9e9ac8" stroke-width="4" d="M110.863,71.0795C110.864,71.0908 110.865,71.1022 110.865,71.1135"/>
<path fill="none" stroke="#807dba" stroke-width="4" d="M110.865,71.1135C110.866,71.1248 110.867,71.1362 110.868,71.1475"/>
<path fill="none" stroke="#6a51a3" stroke-width="4" d="M110.868,71.1475C110.869,71.1702 110.871,71.1929 110.873,71.2155"/>
<path fill="none" stroke="#807dba" stroke-width="4" d="M110.873,71.2155C110.873,71.2268 110.874,71.2381 110.875,71.2495"/>
<path fill="none" stroke="#9e9ac8" stroke-width="4" d="M110.875,71.2495C110.876,71.2608 110.877,71.2721 110.877,71.2834"/>
<path fill="none" stroke="#807dba" stroke-width="4" d="M110.877,71.2834C110.878,71.2947 110.879,71.306 110.88,71.3173"/>
<path fill="none" stroke="#6a51a3" stroke-width="4" d="M110.88,71.3173C110.881,71.3286 110.882,71.3399 110.882,71.3512"/>
<polygon fill="#6a51a3" stroke="#6a51a3" stroke-width="4" points="106.634,60.975 110.836,70.7009 113.616,60.4773 106.634,60.975"/>
<polygon fill="#6a51a3" stroke="#6a51a3" stroke-width="4" points="115.042,80.4827 110.84,70.7568 108.06,80.9804 115.042,80.4827"/>
</g>
<!-- 192.0.2.14 -->
<g id="node1" class="node"><title>192.0.2.14</title>
<ellipse fill="#dadaeb" stroke="#6a51a3" stroke-width="2" cx="-206.493" cy="-15.4779" rx="54" ry="54"/>
<text text-anchor="middle" x="-206.493" y="-12.9779" font-family="sans bold" font-size="10.00" fill="#4a1486">192.0.2.14</text>
</g>
<!-- 192.0.2.3 -->
<g id="node2" class="node"><title>192.0.2.3</title>
<ellipse fill="#dadaeb" stroke="#6a51a3" stroke-width="2" cx="51.0393" cy="-122.245" rx="54" ry="54"/>
<text text-anchor="middle" x="51.0393" y="-119.745" font-family="sans bold" font-size="10.00" fill="#4a1486">192.0.2.3</text>
</g>
<!-- 192.0.2.7 -->
<g id="node3" class="node"><title>192.0.2.7</title>
<ellipse fill="#dadaeb" stroke="#6a51a3" stroke-width="2" cx="35.8409" cy="127.849" rx="54" ry="54"/>
<text text-anchor="middle" x="35.8409" y="130.349" font-family="sans bold" font-size="10.00" fill="#4a1486">192.0.2.7</text>
</g>
<!-- 192.0.2.9 -->
<g id="node4" class="node"><title>192.0.2.9</title>
<ellipse fill="#dadaeb" stroke="#6a51a3" stroke-width="2" cx="-50.7791" cy="-2.91851" rx="54" ry="54"/>
<text text-anchor="middle" x="-50.7791" y="-0.418513" font-family="sans bold" font-size="10.00" fill="#4a1486">192.0.2.9</text>
</g>
<!-- 198.51.100.1 -->
<g id="node5" class="node"><title>198.51.100.1</title>
<ellipse fill="#dadaeb" stroke="#6a51a3" stroke-width="2" cx="106.269" cy="6.63057" rx="54" ry="54"/>
<text text-anchor="middle" x="106.269" y="9.13057" font-family="sans bold" font-size="10.00" fill="#4a1486">198.51.100.1</text>
</g>
<!-- 192.0.2.2/31 -->
<g id="node6" class="node"><title>192.0.2.2/31</title>
<ellipse fill="#f2f0f7" stroke="#6a51a3" stroke-width="2" cx="122.046" cy="-75.2083" rx="9" ry="9"/>
</g>
<!-- 192.0.2.4/31 -->
<g id="node7" class="node"><title>192.0.2.4/31</title>
<ellipse fill="#f2f0f7" stroke="#6a51a3" stroke-width="2" cx="25.5923" cy="2.3501" rx="9" ry="9"/>
</g>
<!-- 192.0.2.6/31 -->
<g id="node8" class="node"><title>192.0.2.6/31</title>
<ellipse fill="#f2f0f7" stroke="#6a51a3" stroke-width="2" cx="112.199" cy="89.8228" rx="9" ry="9"/>
</g>
<!-- 192.0.2.8/31 -->
<g id="node9" class="node"><title>192.0.2.8/31</title>
<ellipse fill="#f2f0f7" stroke="#6a51a3" stroke-width="2" cx="-26.8634" cy="-88.7134" rx="9" ry="9"/>
</g>
<!-- 192.0.2.10/31 -->
<g id="node10" class="node"><title>192.0.2.10/31</title>
<ellipse fill="#f2f0f7" stroke="#6a51a3" stroke-width="2" cx="-37.756" cy="85.38" rx="9" ry="9"/>
</g>
<!-- 192.0.2.12/30 -->
<g id="node11" class="node"><title>192.0.2.12/30</title>
<ellipse fill="#f2f0f7" stroke="#6a51a3" stroke-width="2" cx="-131.096" cy="-7.46952" rx="9" ry="9"/>
</g>
</g>
</svg>
