<?xml version="1.0" encoding="UTF-8" standalone="no"?>
<!DOCTYPE svg PUBLIC "-//W3C//DTD SVG 1.1//EN"
 "http://www.w3.org/Graphics/SVG/1.1/DTD/svg11.dtd">
<!-- Generated by graphviz version 2.38.0 (20140413.2041)
 -->
<!-- Title: G Pages: 1 -->
<svg width="1820pt" height="1107pt"
 viewBox="0.00 0.00 1820.28 1107.12" xmlns="http://www.w3.org/2000/svg" xmlns:xlink="http://www.w3.org/1999/xlink">
<g id="graph0" class="graph" transform="scale(1 1) rotate(0) translate(4 1103.12)">
<title>G</title>
<polygon fill="white" stroke="none" points="-4,4 -4,-1103.12 1816.28,-1103.12 1816.28,4 -4,4"/>
<text text-anchor="middle" x="145" y="-1082.32" font-family="sans bold" font-size="16.00">2016&#45;08&#45;05 04:54:00.002956Z</text>
<!-- 10.250.0.1 -->
<g id="node1" class="node"><title>10.250.0.1</title>
<ellipse fill="#dadaeb" stroke="#6a51a3" stroke-width="2" cx="54" cy="-700.977" rx="54" ry="54"/>
<text text-anchor="middle" x="54" y="-699.077" font-family="sans bold" font-size="8.00" fill="#4a1486">10.250.0.1</text>
</g>
<!-- 10.250.0.0/30 -->
<g id="node14" class="node"><title>10.250.0.0/30</title>
<path fill="#f2f0f7" stroke="#6a51a3" stroke-width="2" d="M263.023,-718.321C263.023,-718.321 143.023,-718.321 143.023,-718.321 137.023,-718.321 131.023,-712.321 131.023,-706.321 131.023,-706.321 131.023,-694.321 131.023,-694.321 131.023,-688.321 137.023,-682.321 143.023,-682.321 143.023,-682.321 263.023,-682.321 263.023,-682.321 269.023,-682.321 275.023,-688.321 275.023,-694.321 275.023,-694.321 275.023,-706.321 275.023,-706.321 275.023,-712.321 269.023,-718.321 263.023,-718.321"/>
<text text-anchor="middle" x="203.023" y="-698.421" font-family="sans bold" font-size="8.00" fill="#4a1486">10.250.0.0/30</text>
</g>
<!-- 10.250.0.1&#45;&#45;10.250.0.0/30 -->
<g id="edge1" class="edge"><title>10.250.0.1&#45;&#45;10.250.0.0/30</title>
<path fill="none" stroke="#6a51a3" stroke-width="4" d="M108.222,-700.738C115.629,-700.705 123.325,-700.671 130.987,-700.638"/>
</g>
<!-- 192.0.2.225 -->
<g id="node2" class="node"><title>192.0.2.225</title>
<ellipse fill="#dadaeb" stroke="#6a51a3" stroke-width="2" cx="1758.28" cy="-803.385" rx="54" ry="54"/>
<text text-anchor="middle" x="1758.28" y="-801.485" font-family="sans bold" font-size="8.00" fill="#4a1486">192.0.2.225</text>
</g>
<!-- 192.0.2.224/30 -->
<g id="node15" class="node"><title>192.0.2.224/30</title>
<path fill="#f2f0f7" stroke="#6a51a3" stroke-width="2" d="M1684.26,-779.126C1684.26,-779.126 1564.26,-779.126 1564.26,-779.126 1558.26,-779.126 1552.26,-773.126 1552.26,-767.126 1552.26,-767.126 1552.26,-755.126 1552.26,-755.126 1552.26,-749.126 1558.26,-743.126 1564.26,-743.126 1564.26,-743.126 1684.26,-743.126 1684.26,-743.126 1690.26,-743.126 1696.26,-749.126 1696.26,-755.126 1696.26,-755.126 1696.26,-767.126 1696.26,-767.126 1696.26,-773.126 1690.26,-779.126 1684.26,-779.126"/>
<text text-anchor="middle" x="1624.26" y="-759.226" font-family="sans bold" font-size="8.00" fill="#4a1486">192.0.2.224/30</text>
</g>
<!-- 192.0.2.225&#45;&#45;192.0.2.224/30 -->
<g id="edge2" class="edge"><title>192.0.2.225&#45;&#45;192.0.2.224/30</title>
<path fill="none" stroke="#6a51a3" stroke-width="4" d="M1706.46,-787.046C1698.36,-784.492 1689.95,-781.838 1681.73,-779.246"/>
</g>
<!-- 172.20.0.5 -->
<g id="node3" class="node"><title>172.20.0.5</title>
<ellipse fill="#dadaeb" stroke="#6a51a3" stroke-width="2" cx="271.42" cy="-1019.12" rx="54" ry="54"/>
<text text-anchor="middle" x="271.42" y="-1017.22" font-family="sans bold" font-size="8.00" fill="#4a1486">172.20.0.5</text>
</g>
<!-- 172.20.0.4/30 -->
<g id="node17" class="node"><title>172.20.0.4/30</title>
<path fill="#f2f0f7" stroke="#6a51a3" stroke-width="2" d="M387.375,-899.53C387.375,-899.53 267.375,-899.53 267.375,-899.53 261.375,-899.53 255.375,-893.53 255.375,-887.53 255.375,-887.53 255.375,-875.53 255.375,-875.53 255.375,-869.53 261.375,-863.53 267.375,-863.53 267.375,-863.53 387.375,-863.53 387.375,-863.53 393.375,-863.53 399.375,-869.53 399.375,-875.53 399.375,-875.53 399.375,-887.53 399.375,-887.53 399.375,-893.53 393.375,-899.53 387.375,-899.53"/>
<text text-anchor="middle" x="327.375" y="-879.63" font-family="sans bold" font-size="8.00" fill="#4a1486">172.20.0.4/30</text>
</g>
<!-- 172.20.0.5&#45;&#45;172.20.0.4/30 -->
<g id="edge3" class="edge"><title>172.20.0.5&#45;&#45;172.20.0.4/30</title>
<path fill="none" stroke="#6a51a3" stroke-width="4" d="M291.779,-969.06C301.591,-944.932 312.756,-917.478 319.924,-899.851"/>
</g>
<!-- 172.31.36.254 -->
<g id="node4" class="node"><title>172.31.36.254</title>
<ellipse fill="#dadaeb" stroke="#6a51a3" stroke-width="2" cx="440.382" cy="-324.744" rx="54" ry="54"/>
<text text-anchor="middle" x="440.382" y="-322.844" font-family="sans bold" font-size="8.00" fill="#4a1486">3845</text>
</g>
<!-- 172.31.36.0/24 -->
<g id="node18" class="node"><title>172.31.36.0/24</title>
<path fill="#f2f0f7" stroke="#6a51a3" stroke-width="2" d="M646.379,-401.634C646.379,-401.634 526.379,-401.634 526.379,-401.634 520.379,-401.634 514.379,-395.634 514.379,-389.634 514.379,-389.634 514.379,-377.634 514.379,-377.634 514.379,-371.634 520.379,-365.634 526.379,-365.634 526.379,-365.634 646.379,-365.634 646.379,-365.634 652.379,-365.634 658.379,-371.634 658.379,-377.634 658.379,-377.634 658.379,-389.634 658.379,-389.634 658.379,-395.634 652.379,-401.634 646.379,-401.634"/>
<text text-anchor="middle" x="586.379" y="-381.734" font-family="sans bold" font-size="8.00" fill="#4a1486">172.31.36.0/24</text>
</g>
<!-- 172.31.36.254&#45;&#45;172.31.36.0/24 -->
<g id="edge4" class="edge"><title>172.31.36.254&#45;&#45;172.31.36.0/24</title>
<path fill="none" stroke="#6a51a3" stroke-width="4" d="M490.626,-345.011C507.122,-351.665 525.342,-359.014 541.421,-365.499"/>
</g>
<!-- 192.168.100.12 -->
<g id="node5" class="node"><title>192.168.100.12</title>
<ellipse fill="#dadaeb" stroke="#6a51a3" stroke-width="2" cx="612.593" cy="-98.9301" rx="54" ry="54"/>
<text text-anchor="middle" x="612.593" y="-97.0301" font-family="sans bold" font-size="8.00" fill="#4a1486">192.168.100.12</text>
</g>
<!-- 192.168.100.0/24 -->
<g id="node22" class="node"><title>192.168.100.0/24</title>
<path fill="#f2f0f7" stroke="#6a51a3" stroke-width="2" d="M744.591,-263.087C744.591,-263.087 624.591,-263.087 624.591,-263.087 618.591,-263.087 612.591,-257.087 612.591,-251.087 612.591,-251.087 612.591,-239.087 612.591,-239.087 612.591,-233.087 618.591,-227.087 624.591,-227.087 624.591,-227.087 744.591,-227.087 744.591,-227.087 750.591,-227.087 756.591,-233.087 756.591,-239.087 756.591,-239.087 756.591,-251.087 756.591,-251.087 756.591,-257.087 750.591,-263.087 744.591,-263.087"/>
<text text-anchor="middle" x="684.591" y="-243.187" font-family="sans bold" font-size="8.00" fill="#4a1486">192.168.100.0/24</text>
</g>
<!-- 192.168.100.12&#45;&#45;192.168.100.0/24 -->
<g id="edge5" class="edge"><title>192.168.100.12&#45;&#45;192.168.100.0/24</title>
<path fill="none" stroke="#6a51a3" stroke-width="4" d="M636.567,-147.598C649.985,-174.836 665.92,-207.184 675.64,-226.917"/>
</g>
<!-- 192.168.20.29 -->
<g id="node6" class="node"><title>192.168.20.29</title>
<ellipse fill="#dadaeb" stroke="#6a51a3" stroke-width="2" cx="991.866" cy="-774.067" rx="54" ry="54"/>
<text text-anchor="middle" x="991.866" y="-772.167" font-family="sans bold" font-size="8.00" fill="#4a1486">192.168.20.29</text>
</g>
<!-- 192.168.20.0/24 -->
<g id="node20" class="node"><title>192.168.20.0/24</title>
<path fill="#f2f0f7" stroke="#6a51a3" stroke-width="2" d="M973.055,-647.869C973.055,-647.869 853.055,-647.869 853.055,-647.869 847.055,-647.869 841.055,-641.869 841.055,-635.869 841.055,-635.869 841.055,-623.869 841.055,-623.869 841.055,-617.869 847.055,-611.869 853.055,-611.869 853.055,-611.869 973.055,-611.869 973.055,-611.869 979.055,-611.869 985.055,-617.869 985.055,-623.869 985.055,-623.869 985.055,-635.869 985.055,-635.869 985.055,-641.869 979.055,-647.869 973.055,-647.869"/>
<text text-anchor="middle" x="913.055" y="-627.969" font-family="sans bold" font-size="8.00" fill="#4a1486">192.168.20.0/24</text>
</g>
<!-- 192.168.20.29&#45;&#45;192.168.20.0/24 -->
<g id="edge6" class="edge"><title>192.168.20.29&#45;&#45;192.168.20.0/24</title>
<path fill="none" stroke="#6a51a3" stroke-width="4" d="M965.842,-726.452C951.136,-699.545 933.608,-667.475 922.909,-647.9"/>
</g>
<!-- 192.168.20.7 -->
<g id="node7" class="node"><title>192.168.20.7</title>
<ellipse fill="#dadaeb" stroke="#6a51a3" stroke-width="2" cx="838.213" cy="-768.883" rx="54" ry="54"/>
<text text-anchor="middle" x="838.213" y="-766.983" font-family="sans bold" font-size="8.00" fill="#4a1486">192.168.20.7</text>
</g>
<!-- 192.168.20.7&#45;&#45;192.168.20.0/24 -->
<g id="edge7" class="edge"><title>192.168.20.7&#45;&#45;192.168.20.0/24</title>
<path fill="none" stroke="#6a51a3" stroke-width="4" d="M863.969,-721.043C877.5,-695.91 893.291,-666.579 903.232,-648.114"/>
</g>
<!-- 192.168.31.3 -->
<g id="node8" class="node"><title>192.168.31.3</title>
<ellipse fill="#dadaeb" stroke="#6a51a3" stroke-width="2" cx="916.422" cy="-54" rx="54" ry="54"/>
<text text-anchor="middle" x="916.422" y="-52.1" font-family="sans bold" font-size="8.00" fill="#4a1486">192.168.31.3</text>
</g>
<!-- 192.168.31.0/28 -->
<g id="node21" class="node"><title>192.168.31.0/28</title>
<path fill="#f2f0f7" stroke="#6a51a3" stroke-width="2" d="M965.322,-237.332C965.322,-237.332 845.322,-237.332 845.322,-237.332 839.322,-237.332 833.322,-231.332 833.322,-225.332 833.322,-225.332 833.322,-213.332 833.322,-213.332 833.322,-207.332 839.322,-201.332 845.322,-201.332 845.322,-201.332 965.322,-201.332 965.322,-201.332 971.322,-201.332 977.322,-207.332 977.322,-213.332 977.322,-213.332 977.322,-225.332 977.322,-225.332 977.322,-231.332 971.322,-237.332 965.322,-237.332"/>
<text text-anchor="middle" x="905.322" y="-217.432" font-family="sans bold" font-size="8.00" fill="#4a1486">192.168.31.0/28</text>
</g>
<!-- 192.168.31.3&#45;&#45;192.168.31.0/28 -->
<g id="edge8" class="edge"><title>192.168.31.3&#45;&#45;192.168.31.0/28</title>
<path fill="none" stroke="#6a51a3" stroke-width="4" d="M912.788,-108.136C910.638,-140.155 908.051,-178.684 906.556,-200.957"/>
</g>
<!-- 192.168.31.4 -->
<g id="node9" class="node"><title>192.168.31.4</title>
<ellipse fill="#dadaeb" stroke="#6a51a3" stroke-width="2" cx="1051.65" cy="-145.371" rx="54" ry="54"/>
<text text-anchor="middle" x="1051.65" y="-143.471" font-family="sans bold" font-size="8.00" fill="#4a1486">192.168.31.4</text>
</g>
<!-- 192.168.31.4&#45;&#45;192.168.31.0/28 -->
<g id="edge9" class="edge"><title>192.168.31.4&#45;&#45;192.168.31.0/28</title>
<path fill="none" stroke="#6a51a3" stroke-width="4" d="M1003.33,-169.793C983.019,-180.06 959.808,-191.792 941.074,-201.261"/>
</g>
<!-- 198.51.100.1 -->
<g id="node10" class="node"><title>198.51.100.1</title>
<ellipse fill="#dadaeb" stroke="#6a51a3" stroke-width="2" cx="771.937" cy="-431.431" rx="54" ry="54"/>
<text text-anchor="middle" x="771.937" y="-429.531" font-family="sans bold" font-size="8.00" fill="#4a1486">Switch_Stack</text>
</g>
<!-- 198.51.100.1&#45;&#45;172.31.36.0/24 -->
<g id="edge10" class="edge"><title>198.51.100.1&#45;&#45;172.31.36.0/24</title>
<path fill="none" stroke="#6a51a3" stroke-width="4" d="M719.26,-417.862C699.759,-412.839 677.332,-407.062 656.522,-401.702"/>
</g>
<!-- 192.168.1.0/24 -->
<g id="node19" class="node"><title>192.168.1.0/24</title>
<path fill="#f2f0f7" stroke="#6a51a3" stroke-width="2" d="M915.486,-368.963C915.486,-368.963 795.486,-368.963 795.486,-368.963 789.486,-368.963 783.486,-362.963 783.486,-356.963 783.486,-356.963 783.486,-344.963 783.486,-344.963 783.486,-338.963 789.486,-332.963 795.486,-332.963 795.486,-332.963 915.486,-332.963 915.486,-332.963 921.486,-332.963 927.486,-338.963 927.486,-344.963 927.486,-344.963 927.486,-356.963 927.486,-356.963 927.486,-362.963 921.486,-368.963 915.486,-368.963"/>
<text text-anchor="middle" x="855.486" y="-349.063" font-family="sans bold" font-size="8.00" fill="#4a1486">192.168.1.0/24</text>
</g>
<!-- 198.51.100.1&#45;&#45;192.168.1.0/24 -->
<g id="edge11" class="edge"><title>198.51.100.1&#45;&#45;192.168.1.0/24</title>
<path fill="none" stroke="#6a51a3" stroke-width="4" d="M815.449,-398.875C826.091,-388.773 836.584,-378.013 844.203,-369.216"/>
</g>
<!-- 198.51.100.1&#45;&#45;192.168.1.0/24 -->
<g id="edge12" class="edge"><title>198.51.100.1&#45;&#45;192.168.1.0/24</title>
<path fill="none" stroke="#6a51a3" stroke-width="4" d="M806.104,-389.173C813.213,-382.225 820.621,-375.358 827.483,-369.386"/>
</g>
<!-- 198.51.100.1&#45;&#45;192.168.20.0/24 -->
<g id="edge13" class="edge"><title>198.51.100.1&#45;&#45;192.168.20.0/24</title>
<path fill="none" stroke="#6a51a3" stroke-width="4" d="M798.428,-478.534C826.547,-521.093 870.039,-581.464 894.669,-611.505"/>
</g>
<!-- 198.51.100.1&#45;&#45;192.168.20.0/24 -->
<g id="edge14" class="edge"><title>198.51.100.1&#45;&#45;192.168.20.0/24</title>
<path fill="none" stroke="#6a51a3" stroke-width="4" d="M807.917,-472.156C840.592,-514.94 886.263,-580.222 904.905,-611.719"/>
</g>
<!-- 198.51.100.1&#45;&#45;192.168.31.0/28 -->
<g id="edge15" class="edge"><title>198.51.100.1&#45;&#45;192.168.31.0/28</title>
<path fill="none" stroke="#6a51a3" stroke-width="4" d="M800.716,-385.67C829.818,-339.394 873.343,-270.183 893.852,-237.572"/>
</g>
<!-- 198.51.100.1&#45;&#45;192.168.100.0/24 -->
<g id="edge16" class="edge"><title>198.51.100.1&#45;&#45;192.168.100.0/24</title>
<path fill="none" stroke="#6a51a3" stroke-width="4" d="M754.442,-379.915C737.776,-341.166 713.351,-290.334 698.075,-263.489"/>
</g>
<!-- 198.51.100.1&#45;&#45;192.168.100.0/24 -->
<g id="edge17" class="edge"><title>198.51.100.1&#45;&#45;192.168.100.0/24</title>
<path fill="none" stroke="#6a51a3" stroke-width="4" d="M743.534,-385.028C723.549,-345.731 698.84,-291.473 688.714,-263.443"/>
</g>
<!-- 198.51.100.72/30 -->
<g id="node23" class="node"><title>198.51.100.72/30</title>
<path fill="#f2f0f7" stroke="#6a51a3" stroke-width="2" d="M1020.89,-512.408C1020.89,-512.408 900.892,-512.408 900.892,-512.408 894.892,-512.408 888.892,-506.408 888.892,-500.408 888.892,-500.408 888.892,-488.408 888.892,-488.408 888.892,-482.408 894.892,-476.408 900.892,-476.408 900.892,-476.408 1020.89,-476.408 1020.89,-476.408 1026.89,-476.408 1032.89,-482.408 1032.89,-488.408 1032.89,-488.408 1032.89,-500.408 1032.89,-500.408 1032.89,-506.408 1026.89,-512.408 1020.89,-512.408"/>
<text text-anchor="middle" x="960.892" y="-492.508" font-family="sans bold" font-size="8.00" fill="#4a1486">198.51.100.72/30</text>
</g>
<!-- 198.51.100.1&#45;&#45;198.51.100.72/30 -->
<g id="edge18" class="edge"><title>198.51.100.1&#45;&#45;198.51.100.72/30</title>
<path fill="none" stroke="#6a51a3" stroke-width="4" d="M823.57,-448.64C849.357,-457.235 880.548,-467.63 906.682,-476.34"/>
</g>
<!-- 198.51.100.86/31 -->
<g id="node24" class="node"><title>198.51.100.86/31</title>
<path fill="#f2f0f7" stroke="#6a51a3" stroke-width="2" d="M631.793,-602.615C631.793,-602.615 511.793,-602.615 511.793,-602.615 505.793,-602.615 499.793,-596.615 499.793,-590.615 499.793,-590.615 499.793,-578.615 499.793,-578.615 499.793,-572.615 505.793,-566.615 511.793,-566.615 511.793,-566.615 631.793,-566.615 631.793,-566.615 637.793,-566.615 643.793,-572.615 643.793,-578.615 643.793,-578.615 643.793,-590.615 643.793,-590.615 643.793,-596.615 637.793,-602.615 631.793,-602.615"/>
<text text-anchor="middle" x="571.793" y="-582.715" font-family="sans bold" font-size="8.00" fill="#4a1486">198.51.100.86/31</text>
</g>
<!-- 198.51.100.1&#45;&#45;198.51.100.86/31 -->
<g id="edge19" class="edge"><title>198.51.100.1&#45;&#45;198.51.100.86/31</title>
<path fill="none" stroke="#6a51a3" stroke-width="4" d="M729.001,-464.293C688.226,-495.501 628.417,-541.277 595.571,-566.416"/>
</g>
<!-- 198.51.100.2 -->
<g id="node11" class="node"><title>198.51.100.2</title>
<ellipse fill="#dadaeb" stroke="#6a51a3" stroke-width="2" cx="1468.78" cy="-712.073" rx="54" ry="54"/>
<text text-anchor="middle" x="1468.78" y="-710.173" font-family="sans bold" font-size="8.00" fill="#4a1486">DIA&#45;RTR</text>
</g>
<!-- 198.51.100.2&#45;&#45;192.0.2.224/30 -->
<g id="edge20" class="edge"><title>198.51.100.2&#45;&#45;192.0.2.224/30</title>
<path fill="none" stroke="#6a51a3" stroke-width="4" d="M1520.56,-728.407C1535.49,-733.117 1551.86,-738.282 1567.09,-743.09"/>
</g>
<!-- 192.0.2.0/24 -->
<g id="node16" class="node"><title>192.0.2.0/24</title>
<path fill="#f2f0f7" stroke="#6a51a3" stroke-width="2" d="M1356.22,-676.765C1356.22,-676.765 1236.22,-676.765 1236.22,-676.765 1230.22,-676.765 1224.22,-670.765 1224.22,-664.765 1224.22,-664.765 1224.22,-652.765 1224.22,-652.765 1224.22,-646.765 1230.22,-640.765 1236.22,-640.765 1236.22,-640.765 1356.22,-640.765 1356.22,-640.765 1362.22,-640.765 1368.22,-646.765 1368.22,-652.765 1368.22,-652.765 1368.22,-664.765 1368.22,-664.765 1368.22,-670.765 1362.22,-676.765 1356.22,-676.765"/>
<text text-anchor="middle" x="1296.22" y="-656.865" font-family="sans bold" font-size="8.00" fill="#4a1486">192.0.2.0/24</text>
</g>
<!-- 198.51.100.2&#45;&#45;192.0.2.0/24 -->
<g id="edge21" class="edge"><title>198.51.100.2&#45;&#45;192.0.2.0/24</title>
<path fill="none" stroke="#6a51a3" stroke-width="4" d="M1417.01,-696.079C1397.35,-690.006 1374.83,-683.05 1354.61,-676.802"/>
</g>
<!-- 198.51.100.54 -->
<g id="node12" class="node"><title>198.51.100.54</title>
<ellipse fill="#dadaeb" stroke="#6a51a3" stroke-width="2" cx="382.663" cy="-712.396" rx="54" ry="54"/>
<text text-anchor="middle" x="382.663" y="-710.496" font-family="sans bold" font-size="8.00" fill="#4a1486">MPLS&#45;CE</text>
</g>
<!-- 198.51.100.54&#45;&#45;10.250.0.0/30 -->
<g id="edge22" class="edge"><title>198.51.100.54&#45;&#45;10.250.0.0/30</title>
<path fill="none" stroke="#6a51a3" stroke-width="4" d="M328.765,-708.773C311.919,-707.64 293.055,-706.372 275.165,-705.17"/>
</g>
<!-- 198.51.100.54&#45;&#45;172.20.0.4/30 -->
<g id="edge23" class="edge"><title>198.51.100.54&#45;&#45;172.20.0.4/30</title>
<path fill="none" stroke="#6a51a3" stroke-width="4" d="M365.774,-764.061C354.723,-797.868 340.955,-839.986 333.269,-863.5"/>
</g>
<!-- 198.51.100.54&#45;&#45;198.51.100.86/31 -->
<g id="edge24" class="edge"><title>198.51.100.54&#45;&#45;198.51.100.86/31</title>
<path fill="none" stroke="#6a51a3" stroke-width="4" d="M427.484,-682.113C464.078,-657.39 514.564,-623.28 545.098,-602.651"/>
</g>
<!-- 198.51.100.73 -->
<g id="node13" class="node"><title>198.51.100.73</title>
<ellipse fill="#dadaeb" stroke="#6a51a3" stroke-width="2" cx="1099.08" cy="-602.187" rx="54" ry="54"/>
<text text-anchor="middle" x="1099.08" y="-600.287" font-family="sans bold" font-size="8.00" fill="#4a1486">Firewall</text>
</g>
<!-- 198.51.100.73&#45;&#45;192.0.2.0/24 -->
<g id="edge25" class="edge"><title>198.51.100.73&#45;&#45;192.0.2.0/24</title>
<path fill="none" stroke="#6a51a3" stroke-width="4" d="M1151.14,-617.126C1176.35,-624.361 1206.83,-633.109 1233.33,-640.714"/>
</g>
<!-- 198.51.100.73&#45;&#45;192.168.20.0/24 -->
<g id="edge26" class="edge"><title>198.51.100.73&#45;&#45;192.168.20.0/24</title>
<path fill="none" stroke="#6a51a3" stroke-width="4" d="M1045.28,-610.194C1026.5,-612.988 1005.11,-616.171 985.089,-619.15"/>
</g>
<!-- 198.51.100.73&#45;&#45;198.51.100.72/30 -->
<g id="edge27" class="edge"><title>198.51.100.73&#45;&#45;198.51.100.72/30</title>
<path fill="none" stroke="#6a51a3" stroke-width="4" d="M1056.49,-568.97C1032.7,-550.415 1003.97,-528.005 984.254,-512.628"/>
</g>
</g>
</svg>
