<?xml version="1.0" encoding="UTF-8" standalone="no"?>
<!DOCTYPE svg PUBLIC "-//W3C//DTD SVG 1.1//EN"
 "http://www.w3.org/Graphics/SVG/1.1/DTD/svg11.dtd">
<!-- Generated by graphviz version 2.40.1 (20161225.0304)
 -->
<!-- Title: G Pages: 1 -->
<svg width="429pt" height="389pt"
 viewBox="0.00 0.00 428.76 389.09" xmlns="http://www.w3.org/2000/svg" xmlns:xlink="http://www.w3.org/1999/xlink">
<g id="graph0" class="graph" transform="scale(1 1) rotate(0) translate(4 385.0942)">
<title>G</title>
<polygon fill="#ffffff" stroke="transparent" points="-4,4 -4,-385.0942 424.7622,-385.0942 424.7622,4 -4,4"/>
<text text-anchor="middle" x="76" y="-365.8942" font-family="sans bold" font-size="14.00" fill="#000000">1970&#45;01&#45;01 00:00:00Z</text>
<!-- 192.0.2.14&#45;&#45;192.0.2.12/30 -->
<g id="edge1" class="edge">
<title>192.0.2.14&#45;&#45;192.0.2.12/30</title>
<path fill="none" stroke="#6a51a3" stroke-width="4" d="M118.0836,-190.5203C118.0922,-190.5194 118.1008,-190.5185 118.1094,-190.5176"/>
<path fill="none" stroke="#807dba" stroke-width="4" d="M118.1094,-190.5176C118.118,-190.5167 118.1266,-190.5158 118.1352,-190.5149"/>
<path fill="none" stroke="#9e9ac8" stroke-width="4" d="M118.1352,-190.5149C118.1438,-190.514 118.1524,-190.513 118.161,-190.5121"/>
<path fill="none" stroke="#807dba" stroke-width="4" d="M118.161,-190.5121C118.1696,-190.5112 118.1781,-190.5103 118.1867,-190.5094"/>
<path fill="none" stroke="#6a51a3" stroke-width="4" d="M118.1867,-190.5094C118.2039,-190.5076 118.221,-190.5058 118.2381,-190.5039"/>
<path fill="none" stroke="#807dba" stroke-width="4" d="M118.2381,-190.5039C118.2467,-190.503 118.2553,-190.5021 118.2638,-190.5012"/>
<path fill="none" stroke="#9e9ac8" stroke-width="4" d="M118.2638,-190.5012C118.2724,-190.5003 118.2809,-190.4994 118.2895,-190.4985"/>
<path fill="none" stroke="#807dba" stroke-width="4" d="M118.2895,-190.4985C118.298,-190.4976 118.3065,-190.4967 118.3151,-190.4958"/>
<path fill="none" stroke="#6a51a3" stroke-width="4" d="M118.3151,-190.4958C118.3236,-190.4949 118.3322,-190.494 118.3407,-190.493"/>
<polygon fill="#6a51a3" stroke="#6a51a3" stroke-width="4" points="107.6231,-188.1117 117.9368,-190.5359 108.3625,-195.0726 107.6231,-188.1117"/>
<polygon fill="#6a51a3" stroke="#6a51a3" stroke-width="4" points="120.4459,-193.7891 110.132,-191.3655 119.7062,-186.8283 120.4459,-193.7891"/>
</g>
<!-- 192.0.2.3&#45;&#45;192.0.2.2/31 -->
<g id="edge2" class="edge">
<title>192.0.2.3&#45;&#45;192.0.2.2/31</title>
<path fill="none" stroke="#6a51a3" stroke-width="4" d="M365.3276,-268.4588C365.3617,-268.4363 365.3957,-268.4137 365.4297,-268.3912"/>
<path fill="none" stroke="#807dba" stroke-width="4" d="M365.4297,-268.3912C365.4637,-268.3687 365.4976,-268.3462 365.5315,-268.3237"/>
<path fill="none" stroke="#9e9ac8" stroke-width="4" d="M365.5315,-268.3237C365.5655,-268.3013 365.5994,-268.2788 365.6332,-268.2564"/>
<path fill="none" stroke="#807dba" stroke-width="4" d="M365.6332,-268.2564C365.6671,-268.2339 365.7009,-268.2115 365.7347,-268.1891"/>
<path fill="none" stroke="#6a51a3" stroke-width="4" d="M365.7347,-268.1891C365.8023,-268.1444 365.8698,-268.0997 365.9372,-268.055"/>
<path fill="none" stroke="#807dba" stroke-width="4" d="M365.9372,-268.055C365.9708,-268.0327 366.0045,-268.0105 366.0381,-267.9882"/>
<path fill="none" stroke="#9e9ac8" stroke-width="4" d="M366.0381,-267.9882C366.0717,-267.9659 366.1053,-267.9437 366.1388,-267.9215"/>
<path fill="none" stroke="#807dba" stroke-width="4" d="M366.1388,-267.9215C366.1724,-267.8992 366.2059,-267.877 366.2394,-267.8549"/>
<path fill="none" stroke="#6a51a3" stroke-width="4" d="M366.2394,-267.8549C366.2729,-267.8327 366.3063,-267.8105 366.3397,-267.7884"/>
<polygon fill="#6a51a3" stroke="#6a51a3" stroke-width="4" points="354.971,-271.121 365.2407,-268.5164 358.8368,-276.9568 354.971,-271.121"/>
<polygon fill="#6a51a3" stroke="#6a51a3" stroke-width="4" points="376.873,-265.0092 366.6033,-267.6138 373.0072,-259.1734 376.873,-265.0092"/>
</g>
<!-- 192.0.2.3&#45;&#45;192.0.2.8/31 -->
<g id="edge3" class="edge">
<title>192.0.2.3&#45;&#45;192.0.2.8/31</title>
<path fill="none" stroke="#6a51a3" stroke-width="4" d="M252.5122,-278.6904C252.4749,-278.6743 252.4375,-278.6583 252.4003,-278.6422"/>
<path fill="none" stroke="#807dba" stroke-width="4" d="M252.4003,-278.6422C252.363,-278.6262 252.3257,-278.6101 252.2885,-278.5941"/>
<path fill="none" stroke="#9e9ac8" stroke-width="4" d="M252.2885,-278.5941C252.2513,-278.5781 252.2141,-278.5621 252.1769,-278.5461"/>
<path fill="none" stroke="#807dba" stroke-width="4" d="M252.1769,-278.5461C252.1398,-278.5301 252.1026,-278.5141 252.0656,-278.4981"/>
<path fill="none" stroke="#6a51a3" stroke-width="4" d="M252.0656,-278.4981C251.9914,-278.4662 251.9174,-278.4344 251.8435,-278.4026"/>
<path fill="none" stroke="#807dba" stroke-width="4" d="M251.8435,-278.4026C251.8065,-278.3867 251.7696,-278.3708 251.7327,-278.3549"/>
<path fill="none" stroke="#9e9ac8" stroke-width="4" d="M251.7327,-278.3549C251.6959,-278.339 251.659,-278.3232 251.6222,-278.3073"/>
<path fill="none" stroke="#807dba" stroke-width="4" d="M251.6222,-278.3073C251.5854,-278.2915 251.5486,-278.2757 251.5119,-278.2598"/>
<path fill="none" stroke="#6a51a3" stroke-width="4" d="M251.5119,-278.2598C251.4752,-278.244 251.4385,-278.2282 251.4018,-278.2125"/>
<polygon fill="#6a51a3" stroke="#6a51a3" stroke-width="4" points="260.3702,-285.8832 252.5687,-278.7147 263.1378,-279.4535 260.3702,-285.8832"/>
<polygon fill="#6a51a3" stroke="#6a51a3" stroke-width="4" points="243.35,-270.9363 251.1515,-278.1048 240.5825,-277.366 243.35,-270.9363"/>
</g>
<!-- 192.0.2.7&#45;&#45;192.0.2.6/31 -->
<g id="edge4" class="edge">
<title>192.0.2.7&#45;&#45;192.0.2.6/31</title>
<path fill="none" stroke="#6a51a3" stroke-width="4" d="M353.8748,-82.6557C353.9243,-82.6804 353.9738,-82.705 354.0232,-82.7296"/>
<path fill="none" stroke="#807dba" stroke-width="4" d="M354.0232,-82.7296C354.0726,-82.7542 354.122,-82.7788 354.1713,-82.8034"/>
<path fill="none" stroke="#9e9ac8" stroke-width="4" d="M354.1713,-82.8034C354.2206,-82.8279 354.2699,-82.8524 354.319,-82.8769"/>
<path fill="none" stroke="#807dba" stroke-width="4" d="M354.319,-82.8769C354.3682,-82.9014 354.4173,-82.9259 354.4664,-82.9503"/>
<path fill="none" stroke="#6a51a3" stroke-width="4" d="M354.4664,-82.9503C354.5645,-82.9992 354.6624,-83.0479 354.76,-83.0965"/>
<path fill="none" stroke="#807dba" stroke-width="4" d="M354.76,-83.0965C354.8089,-83.1209 354.8576,-83.1451 354.9063,-83.1694"/>
<path fill="none" stroke="#9e9ac8" stroke-width="4" d="M354.9063,-83.1694C354.955,-83.1936 355.0036,-83.2178 355.0522,-83.242"/>
<path fill="none" stroke="#807dba" stroke-width="4" d="M355.0522,-83.242C355.1007,-83.2662 355.1492,-83.2904 355.1977,-83.3145"/>
<path fill="none" stroke="#6a51a3" stroke-width="4" d="M355.1977,-83.3145C355.2461,-83.3386 355.2945,-83.3627 355.3428,-83.3868"/>
<polygon fill="#6a51a3" stroke="#6a51a3" stroke-width="4" points="346.2526,-74.9498 353.6437,-82.5407 343.132,-81.2158 346.2526,-74.9498"/>
<polygon fill="#6a51a3" stroke="#6a51a3" stroke-width="4" points="362.8143,-91.0176 355.4232,-83.4267 365.9349,-84.7516 362.8143,-91.0176"/>
</g>
<!-- 192.0.2.7&#45;&#45;192.0.2.10/31 -->
<g id="edge5" class="edge">
<title>192.0.2.7&#45;&#45;192.0.2.10/31</title>
<path fill="none" stroke="#6a51a3" stroke-width="4" d="M240.576,-86.1751C240.5407,-86.1955 240.5054,-86.2158 240.4702,-86.2361"/>
<path fill="none" stroke="#807dba" stroke-width="4" d="M240.4702,-86.2361C240.435,-86.2565 240.3998,-86.2768 240.3646,-86.2971"/>
<path fill="none" stroke="#9e9ac8" stroke-width="4" d="M240.3646,-86.2971C240.3294,-86.3174 240.2943,-86.3376 240.2592,-86.3579"/>
<path fill="none" stroke="#807dba" stroke-width="4" d="M240.2592,-86.3579C240.2241,-86.3781 240.189,-86.3984 240.154,-86.4186"/>
<path fill="none" stroke="#6a51a3" stroke-width="4" d="M240.154,-86.4186C240.0839,-86.459 240.014,-86.4994 239.9442,-86.5397"/>
<path fill="none" stroke="#807dba" stroke-width="4" d="M239.9442,-86.5397C239.9093,-86.5598 239.8744,-86.5799 239.8396,-86.6"/>
<path fill="none" stroke="#9e9ac8" stroke-width="4" d="M239.8396,-86.6C239.8047,-86.6201 239.7699,-86.6402 239.7352,-86.6603"/>
<path fill="none" stroke="#807dba" stroke-width="4" d="M239.7352,-86.6603C239.7004,-86.6803 239.6657,-86.7004 239.631,-86.7204"/>
<path fill="none" stroke="#6a51a3" stroke-width="4" d="M239.631,-86.7204C239.5963,-86.7404 239.5616,-86.7604 239.5269,-86.7804"/>
<polygon fill="#6a51a3" stroke="#6a51a3" stroke-width="4" points="251.0563,-84.1684 240.6455,-86.135 247.5576,-78.1054 251.0563,-84.1684"/>
<polygon fill="#6a51a3" stroke="#6a51a3" stroke-width="4" points="228.8636,-88.8928 239.2743,-86.9262 232.3622,-94.9558 228.8636,-88.8928"/>
</g>
<!-- 192.0.2.9&#45;&#45;192.0.2.4/31 -->
<g id="edge6" class="edge">
<title>192.0.2.9&#45;&#45;192.0.2.4/31</title>
<path fill="none" stroke="#6a51a3" stroke-width="4" d="M274.0377,-180.3302C274.0502,-180.3294 274.0627,-180.3285 274.0751,-180.3277"/>
<path fill="none" stroke="#807dba" stroke-width="4" d="M274.0751,-180.3277C274.0876,-180.3268 274.1,-180.3259 274.1125,-180.3251"/>
<path fill="none" stroke="#9e9ac8" stroke-width="4" d="M274.1125,-180.3251C274.1249,-180.3242 274.1373,-180.3234 274.1498,-180.3225"/>
<path fill="none" stroke="#807dba" stroke-width="4" d="M274.1498,-180.3225C274.1622,-180.3216 274.1746,-180.3208 274.187,-180.3199"/>
<path fill="none" stroke="#6a51a3" stroke-width="4" d="M274.187,-180.3199C274.2119,-180.3182 274.2367,-180.3165 274.2614,-180.3148"/>
<path fill="none" stroke="#807dba" stroke-width="4" d="M274.2614,-180.3148C274.2738,-180.3139 274.2862,-180.3131 274.2986,-180.3122"/>
<path fill="none" stroke="#9e9ac8" stroke-width="4" d="M274.2986,-180.3122C274.3109,-180.3114 274.3233,-180.3105 274.3356,-180.3097"/>
<path fill="none" stroke="#807dba" stroke-width="4" d="M274.3356,-180.3097C274.348,-180.3088 274.3603,-180.308 274.3727,-180.3071"/>
<path fill="none" stroke="#6a51a3" stroke-width="4" d="M274.3727,-180.3071C274.385,-180.3063 274.3974,-180.3054 274.4097,-180.3046"/>
<polygon fill="#6a51a3" stroke="#6a51a3" stroke-width="4" points="263.7543,-177.5313 273.9715,-180.3347 264.2361,-184.5147 263.7543,-177.5313"/>
<polygon fill="#6a51a3" stroke="#6a51a3" stroke-width="4" points="277.1281,-183.6254 266.9108,-180.8223 276.6461,-176.642 277.1281,-183.6254"/>
</g>
<!-- 192.0.2.9&#45;&#45;192.0.2.8/31 -->
<g id="edge7" class="edge">
<title>192.0.2.9&#45;&#45;192.0.2.8/31</title>
<path fill="none" stroke="#6a51a3" stroke-width="4" d="M227.0702,-247.0326C227.1142,-247.1905 227.1581,-247.348 227.2019,-247.505"/>
<path fill="none" stroke="#807dba" stroke-width="4" d="M227.2019,-247.505C227.2457,-247.662 227.2893,-247.8186 227.3328,-247.9747"/>
<path fill="none" stroke="#9e9ac8" stroke-width="4" d="M227.3328,-247.9747C227.3763,-248.1308 227.4197,-248.2864 227.463,-248.4416"/>
<path fill="none" stroke="#807dba" stroke-width="4" d="M227.463,-248.4416C227.5062,-248.5967 227.5493,-248.7514 227.5923,-248.9056"/>
<path fill="none" stroke="#6a51a3" stroke-width="4" d="M227.5923,-248.9056C227.6783,-249.214 227.7637,-249.5204 227.8485,-249.8247"/>
<path fill="none" stroke="#807dba" stroke-width="4" d="M227.8485,-249.8247C227.891,-249.9769 227.9332,-250.1286 227.9754,-250.2797"/>
<path fill="none" stroke="#9e9ac8" stroke-width="4" d="M227.9754,-250.2797C228.0175,-250.4309 228.0595,-250.5815 228.1013,-250.7316"/>
<path fill="none" stroke="#807dba" stroke-width="4" d="M228.1013,-250.7316C228.1432,-250.8817 228.1848,-251.0312 228.2264,-251.1802"/>
<path fill="none" stroke="#6a51a3" stroke-width="4" d="M228.2264,-251.1802C228.2679,-251.3292 228.3093,-251.4777 228.3505,-251.6256"/>
<polygon fill="#6a51a3" stroke="#6a51a3" stroke-width="4" points="227.6859,-236.2066 226.9996,-246.7792 220.9429,-238.0863 227.6859,-236.2066"/>
<polygon fill="#6a51a3" stroke="#6a51a3" stroke-width="4" points="227.7801,-262.614 228.4664,-252.0414 234.5231,-260.7343 227.7801,-262.614"/>
</g>
<!-- 192.0.2.9&#45;&#45;192.0.2.10/31 -->
<g id="edge8" class="edge">
<title>192.0.2.9&#45;&#45;192.0.2.10/31</title>
<path fill="none" stroke="#6a51a3" stroke-width="4" d="M219.0946,-121.1636C219.1239,-120.9645 219.1532,-120.7661 219.1824,-120.5684"/>
<path fill="none" stroke="#807dba" stroke-width="4" d="M219.1824,-120.5684C219.2115,-120.3707 219.2406,-120.1736 219.2695,-119.9773"/>
<path fill="none" stroke="#9e9ac8" stroke-width="4" d="M219.2695,-119.9773C219.2985,-119.7809 219.3274,-119.5853 219.3561,-119.3904"/>
<path fill="none" stroke="#807dba" stroke-width="4" d="M219.3561,-119.3904C219.3848,-119.1955 219.4135,-119.0013 219.442,-118.8078"/>
<path fill="none" stroke="#6a51a3" stroke-width="4" d="M219.442,-118.8078C219.4991,-118.4209 219.5557,-118.037 219.6119,-117.6563"/>
<path fill="none" stroke="#807dba" stroke-width="4" d="M219.6119,-117.6563C219.6399,-117.4659 219.6679,-117.2763 219.6957,-117.0875"/>
<path fill="none" stroke="#9e9ac8" stroke-width="4" d="M219.6957,-117.0875C219.7236,-116.8987 219.7513,-116.7108 219.7789,-116.5236"/>
<path fill="none" stroke="#807dba" stroke-width="4" d="M219.7789,-116.5236C219.8065,-116.3365 219.834,-116.1502 219.8613,-115.9648"/>
<path fill="none" stroke="#6a51a3" stroke-width="4" d="M219.8613,-115.9648C219.8887,-115.7793 219.9159,-115.5947 219.943,-115.411"/>
<polygon fill="#6a51a3" stroke="#6a51a3" stroke-width="4" points="214.1645,-130.603 219.0862,-121.2207 221.0896,-131.6244 214.1645,-130.603"/>
<polygon fill="#6a51a3" stroke="#6a51a3" stroke-width="4" points="224.8802,-105.9235 219.9585,-115.3057 217.9551,-104.902 224.8802,-105.9235"/>
</g>
<!-- 192.0.2.9&#45;&#45;192.0.2.12/30 -->
<g id="edge9" class="edge">
<title>192.0.2.9&#45;&#45;192.0.2.12/30</title>
<path fill="none" stroke="#6a51a3" stroke-width="4" d="M145.5401,-188.404C145.5239,-188.4049 145.5077,-188.4058 145.4916,-188.4067"/>
<path fill="none" stroke="#807dba" stroke-width="4" d="M145.4916,-188.4067C145.4754,-188.4076 145.4593,-188.4086 145.4431,-188.4095"/>
<path fill="none" stroke="#9e9ac8" stroke-width="4" d="M145.4431,-188.4095C145.427,-188.4104 145.4108,-188.4113 145.3947,-188.4122"/>
<path fill="none" stroke="#807dba" stroke-width="4" d="M145.3947,-188.4122C145.3786,-188.4131 145.3624,-188.414 145.3463,-188.415"/>
<path fill="none" stroke="#6a51a3" stroke-width="4" d="M145.3463,-188.415C145.3141,-188.4168 145.2819,-188.4186 145.2498,-188.4204"/>
<path fill="none" stroke="#807dba" stroke-width="4" d="M145.2498,-188.4204C145.2337,-188.4213 145.2176,-188.4223 145.2015,-188.4232"/>
<path fill="none" stroke="#9e9ac8" stroke-width="4" d="M145.2015,-188.4232C145.1855,-188.4241 145.1694,-188.425 145.1534,-188.4259"/>
<path fill="none" stroke="#807dba" stroke-width="4" d="M145.1534,-188.4259C145.1373,-188.4268 145.1213,-188.4277 145.1053,-188.4286"/>
<path fill="none" stroke="#6a51a3" stroke-width="4" d="M145.1053,-188.4286C145.0892,-188.4295 145.0732,-188.4304 145.0572,-188.4313"/>
<polygon fill="#6a51a3" stroke="#6a51a3" stroke-width="4" points="155.8935,-191.3229 145.7115,-188.3944 155.4975,-184.3341 155.8935,-191.3229"/>
<polygon fill="#6a51a3" stroke="#6a51a3" stroke-width="4" points="138.2852,-185.3094 148.4672,-188.238 138.6813,-192.2982 138.2852,-185.3094"/>
</g>
<!-- 198.51.100.1&#45;&#45;192.0.2.2/31 -->
<g id="edge10" class="edge">
<title>198.51.100.1&#45;&#45;192.0.2.2/31</title>
<path fill="none" stroke="#6a51a3" stroke-width="4" d="M378.9716,-238.5522C378.9738,-238.5633 378.9759,-238.5745 378.9781,-238.5857"/>
<path fill="none" stroke="#807dba" stroke-width="4" d="M378.9781,-238.5857C378.9802,-238.5969 378.9824,-238.608 378.9845,-238.6192"/>
<path fill="none" stroke="#9e9ac8" stroke-width="4" d="M378.9845,-238.6192C378.9867,-238.6304 378.9888,-238.6415 378.991,-238.6527"/>
<path fill="none" stroke="#807dba" stroke-width="4" d="M378.991,-238.6527C378.9931,-238.6638 378.9953,-238.675 378.9974,-238.6861"/>
<path fill="none" stroke="#6a51a3" stroke-width="4" d="M378.9974,-238.6861C379.0017,-238.7084 379.006,-238.7307 379.0103,-238.753"/>
<path fill="none" stroke="#807dba" stroke-width="4" d="M379.0103,-238.753C379.0125,-238.7641 379.0146,-238.7753 379.0168,-238.7864"/>
<path fill="none" stroke="#9e9ac8" stroke-width="4" d="M379.0168,-238.7864C379.0189,-238.7975 379.0211,-238.8087 379.0232,-238.8198"/>
<path fill="none" stroke="#807dba" stroke-width="4" d="M379.0232,-238.8198C379.0253,-238.8309 379.0275,-238.842 379.0296,-238.8532"/>
<path fill="none" stroke="#6a51a3" stroke-width="4" d="M379.0296,-238.8532C379.0318,-238.8643 379.0339,-238.8754 379.0361,-238.8865"/>
<polygon fill="#6a51a3" stroke="#6a51a3" stroke-width="4" points="380.4578,-227.7717 378.9141,-238.2535 373.5844,-229.0969 380.4578,-227.7717"/>
<polygon fill="#6a51a3" stroke="#6a51a3" stroke-width="4" points="377.3783,-248.7768 378.922,-238.295 384.2517,-247.4517 377.3783,-248.7768"/>
</g>
<!-- 198.51.100.1&#45;&#45;192.0.2.4/31 -->
<g id="edge11" class="edge">
<title>198.51.100.1&#45;&#45;192.0.2.4/31</title>
<path fill="none" stroke="#6a51a3" stroke-width="4" d="M302.3007,-178.6388C302.2845,-178.6397 302.2682,-178.6405 302.252,-178.6414"/>
<path fill="none" stroke="#807dba" stroke-width="4" d="M302.252,-178.6414C302.2358,-178.6422 302.2195,-178.6431 302.2033,-178.644"/>
<path fill="none" stroke="#9e9ac8" stroke-width="4" d="M302.2033,-178.644C302.1871,-178.6448 302.1709,-178.6457 302.1547,-178.6465"/>
<path fill="none" stroke="#807dba" stroke-width="4" d="M302.1547,-178.6465C302.1385,-178.6474 302.1223,-178.6483 302.1061,-178.6491"/>
<path fill="none" stroke="#6a51a3" stroke-width="4" d="M302.1061,-178.6491C302.0737,-178.6508 302.0414,-178.6526 302.0091,-178.6543"/>
<path fill="none" stroke="#807dba" stroke-width="4" d="M302.0091,-178.6543C301.9929,-178.6551 301.9768,-178.656 301.9607,-178.6568"/>
<path fill="none" stroke="#9e9ac8" stroke-width="4" d="M301.9607,-178.6568C301.9445,-178.6577 301.9284,-178.6585 301.9123,-178.6594"/>
<path fill="none" stroke="#807dba" stroke-width="4" d="M301.9123,-178.6594C301.8962,-178.6603 301.8801,-178.6611 301.864,-178.662"/>
<path fill="none" stroke="#6a51a3" stroke-width="4" d="M301.864,-178.662C301.8479,-178.6628 301.8318,-178.6637 301.8157,-178.6645"/>
<polygon fill="#6a51a3" stroke="#6a51a3" stroke-width="4" points="312.6872,-181.5927 302.5158,-178.6275 312.3163,-174.6025 312.6872,-181.5927"/>
<polygon fill="#6a51a3" stroke="#6a51a3" stroke-width="4" points="295.0267,-175.5198 305.1982,-178.4849 295.3977,-182.51 295.0267,-175.5198"/>
</g>
<!-- 198.51.100.1&#45;&#45;192.0.2.6/31 -->
<g id="edge12" class="edge">
<title>198.51.100.1&#45;&#45;192.0.2.6/31</title>
<path fill="none" stroke="#6a51a3" stroke-width="4" d="M371.3508,-110.8379C371.3516,-110.8266 371.3525,-110.8152 371.3533,-110.8039"/>
<path fill="none" stroke="#807dba" stroke-width="4" d="M371.3533,-110.8039C371.3541,-110.7925 371.3549,-110.7812 371.3557,-110.7698"/>
<path fill="none" stroke="#9e9ac8" stroke-width="4" d="M371.3557,-110.7698C371.3565,-110.7585 371.3573,-110.7471 371.3581,-110.7358"/>
<path fill="none" stroke="#807dba" stroke-width="4" d="M371.3581,-110.7358C371.3589,-110.7244 371.3597,-110.7131 371.3605,-110.7018"/>
<path fill="none" stroke="#6a51a3" stroke-width="4" d="M371.3605,-110.7018C371.3622,-110.6791 371.3638,-110.6564 371.3654,-110.6338"/>
<path fill="none" stroke="#807dba" stroke-width="4" d="M371.3654,-110.6338C371.3662,-110.6225 371.367,-110.6111 371.3678,-110.5998"/>
<path fill="none" stroke="#9e9ac8" stroke-width="4" d="M371.3678,-110.5998C371.3686,-110.5885 371.3694,-110.5772 371.3702,-110.5659"/>
<path fill="none" stroke="#807dba" stroke-width="4" d="M371.3702,-110.5659C371.371,-110.5546 371.3718,-110.5433 371.3726,-110.532"/>
<path fill="none" stroke="#6a51a3" stroke-width="4" d="M371.3726,-110.532C371.3734,-110.5207 371.3742,-110.5094 371.3751,-110.4981"/>
<polygon fill="#6a51a3" stroke="#6a51a3" stroke-width="4" points="367.1266,-120.8743 371.3288,-111.1484 374.1089,-121.372 367.1266,-120.8743"/>
<polygon fill="#6a51a3" stroke="#6a51a3" stroke-width="4" points="375.5348,-101.3666 371.3326,-111.0924 368.5525,-100.8689 375.5348,-101.3666"/>
</g>
<!-- 192.0.2.14 -->
<g id="node1" class="node">
<title>192.0.2.14</title>
<ellipse fill="#dadaeb" stroke="#6a51a3" stroke-width="2" cx="54" cy="-197.3271" rx="54" ry="54"/>
<text text-anchor="middle" x="54" y="-194.8271" font-family="sans bold" font-size="10.00" fill="#4a1486">192.0.2.14</text>
</g>
<!-- 192.0.2.3 -->
<g id="node2" class="node">
<title>192.0.2.3</title>
<ellipse fill="#dadaeb" stroke="#6a51a3" stroke-width="2" cx="311.532" cy="-304.0942" rx="54" ry="54"/>
<text text-anchor="middle" x="311.532" y="-301.5942" font-family="sans bold" font-size="10.00" fill="#4a1486">192.0.2.3</text>
</g>
<!-- 192.0.2.7 -->
<g id="node3" class="node">
<title>192.0.2.7</title>
<ellipse fill="#dadaeb" stroke="#6a51a3" stroke-width="2" cx="296.3337" cy="-54" rx="54" ry="54"/>
<text text-anchor="middle" x="296.3337" y="-51.5" font-family="sans bold" font-size="10.00" fill="#4a1486">192.0.2.7</text>
</g>
<!-- 192.0.2.9 -->
<g id="node4" class="node">
<title>192.0.2.9</title>
<ellipse fill="#dadaeb" stroke="#6a51a3" stroke-width="2" cx="209.7136" cy="-184.7677" rx="54" ry="54"/>
<text text-anchor="middle" x="209.7136" y="-182.2677" font-family="sans bold" font-size="10.00" fill="#4a1486">192.0.2.9</text>
</g>
<!-- 198.51.100.1 -->
<g id="node5" class="node">
<title>198.51.100.1</title>
<ellipse fill="#dadaeb" stroke="#6a51a3" stroke-width="2" cx="366.7622" cy="-175.2187" rx="54" ry="54"/>
<text text-anchor="middle" x="366.7622" y="-172.7187" font-family="sans bold" font-size="10.00" fill="#4a1486">198.51.100.1</text>
</g>
<!-- 192.0.2.2/31 -->
<g id="node6" class="node">
<title>192.0.2.2/31</title>
<ellipse fill="#f2f0f7" stroke="#6a51a3" stroke-width="2" cx="382.5391" cy="-257.0576" rx="9" ry="9"/>
</g>
<!-- 192.0.2.4/31 -->
<g id="node7" class="node">
<title>192.0.2.4/31</title>
<ellipse fill="#f2f0f7" stroke="#6a51a3" stroke-width="2" cx="286.085" cy="-179.4991" rx="9" ry="9"/>
</g>
<!-- 192.0.2.6/31 -->
<g id="node8" class="node">
<title>192.0.2.6/31</title>
<ellipse fill="#f2f0f7" stroke="#6a51a3" stroke-width="2" cx="372.6916" cy="-92.0265" rx="9" ry="9"/>
</g>
<!-- 192.0.2.8/31 -->
<g id="node9" class="node">
<title>192.0.2.8/31</title>
<ellipse fill="#f2f0f7" stroke="#6a51a3" stroke-width="2" cx="233.6293" cy="-270.5626" rx="9" ry="9"/>
</g>
<!-- 192.0.2.10/31 -->
<g id="node10" class="node">
<title>192.0.2.10/31</title>
<ellipse fill="#f2f0f7" stroke="#6a51a3" stroke-width="2" cx="222.7367" cy="-96.4693" rx="9" ry="9"/>
</g>
<!-- 192.0.2.12/30 -->
<g id="node11" class="node">
<title>192.0.2.12/30</title>
<ellipse fill="#f2f0f7" stroke="#6a51a3" stroke-width="2" cx="129.3968" cy="-189.3187" rx="9" ry="9"/>
</g>
</g>
</svg>
