<?xml version="1.0" encoding="UTF-8" standalone="no"?>
<!DOCTYPE svg PUBLIC "-//W3C//DTD SVG 1.1//EN"
 "http://www.w3.org/Graphics/SVG/1.1/DTD/svg11.dtd">
<!-- Generated by graphviz version 2.47.3 (0)
 -->
<!-- Title: G Pages: 1 -->
<svg width="429pt" height="389pt"
 viewBox="0.00 0.00 428.76 389.09" xmlns="http://www.w3.org/2000/svg" xmlns:xlink="http://www.w3.org/1999/xlink">
<g id="graph0" class="graph" transform="scale(1 1) rotate(0) translate(4 385.09)">
<title>G</title>
<polygon fill="white" stroke="transparent" points="-4,4 -4,-385.09 424.76,-385.09 424.76,4 -4,4"/>
<text text-anchor="middle" x="76" y="-365.89" font-family="sans bold" font-size="14.00">1970&#45;01&#45;01 00:00:00Z</text>
<!-- 192.0.2.14&#45;&#45;192.0.2.12/30 -->
<g id="edge1" class="edge">
<title>192.0.2.14&#45;&#45;192.0.2.12/30</title>
<path fill="none" stroke="#6a51a3" stroke-width="4" d="M118.08,-190.52C118.09,-190.52 118.1,-190.52 118.11,-190.52"/>
<path fill="none" stroke="#807dba" stroke-width="4" d="M118.11,-190.52C118.12,-190.52 118.13,-190.52 118.14,-190.51"/>
<path fill="none" stroke="#9e9ac8" stroke-width="4" d="M118.14,-190.51C118.14,-190.51 118.15,-190.51 118.16,-190.51"/>
<path fill="none" stroke="#807dba" stroke-width="4" d="M118.16,-190.51C118.17,-190.51 118.18,-190.51 118.19,-190.51"/>
<path fill="none" stroke="#6a51a3" stroke-width="4" d="M118.19,-190.51C118.2,-190.51 118.22,-190.51 118.24,-190.5"/>
<path fill="none" stroke="#807dba" stroke-width="4" d="M118.24,-190.5C118.25,-190.5 118.26,-190.5 118.26,-190.5"/>
<path fill="none" stroke="#9e9ac8" stroke-width="4" d="M118.26,-190.5C118.27,-190.5 118.28,-190.5 118.29,-190.5"/>
<path fill="none" stroke="#807dba" stroke-width="4" d="M118.29,-190.5C118.3,-190.5 118.31,-190.5 118.32,-190.5"/>
<path fill="none" stroke="#6a51a3" stroke-width="4" d="M118.32,-190.5C118.32,-190.49 118.33,-190.49 118.34,-190.49"/>
<polygon fill="#6a51a3" stroke="#6a51a3" stroke-width="4" points="107.62,-188.11 117.94,-190.54 108.36,-195.07 107.62,-188.11"/>
<polygon fill="#6a51a3" stroke="#6a51a3" stroke-width="4" points="120.45,-193.79 110.13,-191.37 119.71,-186.83 120.45,-193.79"/>
</g>
<!-- 192.0.2.3&#45;&#45;192.0.2.2/31 -->
<g id="edge2" class="edge">
<title>192.0.2.3&#45;&#45;192.0.2.2/31</title>
<path fill="none" stroke="#6a51a3" stroke-width="4" d="M365.33,-268.46C365.36,-268.44 365.4,-268.41 365.43,-268.39"/>
<path fill="none" stroke="#807dba" stroke-width="4" d="M365.43,-268.39C365.46,-268.37 365.5,-268.35 365.53,-268.32"/>
<path fill="none" stroke="#9e9ac8" stroke-width="4" d="M365.53,-268.32C365.57,-268.3 365.6,-268.28 365.63,-268.26"/>
<path fill="none" stroke="#807dba" stroke-width="4" d="M365.63,-268.26C365.67,-268.23 365.7,-268.21 365.73,-268.19"/>
<path fill="none" stroke="#6a51a3" stroke-width="4" d="M365.73,-268.19C365.8,-268.14 365.87,-268.1 365.94,-268.05"/>
<path fill="none" stroke="#807dba" stroke-width="4" d="M365.94,-268.05C365.97,-268.03 366,-268.01 366.04,-267.99"/>
<path fill="none" stroke="#9e9ac8" stroke-width="4" d="M366.04,-267.99C366.07,-267.97 366.11,-267.94 366.14,-267.92"/>
<path fill="none" stroke="#807dba" stroke-width="4" d="M366.14,-267.92C366.17,-267.9 366.21,-267.88 366.24,-267.85"/>
<path fill="none" stroke="#6a51a3" stroke-width="4" d="M366.24,-267.85C366.27,-267.83 366.31,-267.81 366.34,-267.79"/>
<polygon fill="#6a51a3" stroke="#6a51a3" stroke-width="4" points="354.97,-271.12 365.24,-268.52 358.84,-276.96 354.97,-271.12"/>
<polygon fill="#6a51a3" stroke="#6a51a3" stroke-width="4" points="376.87,-265.01 366.6,-267.61 373.01,-259.17 376.87,-265.01"/>
</g>
<!-- 192.0.2.3&#45;&#45;192.0.2.8/31 -->
<g id="edge3" class="edge">
<title>192.0.2.3&#45;&#45;192.0.2.8/31</title>
<path fill="none" stroke="#6a51a3" stroke-width="4" d="M252.51,-278.69C252.47,-278.67 252.44,-278.66 252.4,-278.64"/>
<path fill="none" stroke="#807dba" stroke-width="4" d="M252.4,-278.64C252.36,-278.63 252.33,-278.61 252.29,-278.59"/>
<path fill="none" stroke="#9e9ac8" stroke-width="4" d="M252.29,-278.59C252.25,-278.58 252.21,-278.56 252.18,-278.55"/>
<path fill="none" stroke="#807dba" stroke-width="4" d="M252.18,-278.55C252.14,-278.53 252.1,-278.51 252.07,-278.5"/>
<path fill="none" stroke="#6a51a3" stroke-width="4" d="M252.07,-278.5C251.99,-278.47 251.92,-278.43 251.84,-278.4"/>
<path fill="none" stroke="#807dba" stroke-width="4" d="M251.84,-278.4C251.81,-278.39 251.77,-278.37 251.73,-278.35"/>
<path fill="none" stroke="#9e9ac8" stroke-width="4" d="M251.73,-278.35C251.7,-278.34 251.66,-278.32 251.62,-278.31"/>
<path fill="none" stroke="#807dba" stroke-width="4" d="M251.62,-278.31C251.59,-278.29 251.55,-278.28 251.51,-278.26"/>
<path fill="none" stroke="#6a51a3" stroke-width="4" d="M251.51,-278.26C251.48,-278.24 251.44,-278.23 251.4,-278.21"/>
<polygon fill="#6a51a3" stroke="#6a51a3" stroke-width="4" points="260.37,-285.88 252.57,-278.71 263.14,-279.45 260.37,-285.88"/>
<polygon fill="#6a51a3" stroke="#6a51a3" stroke-width="4" points="243.35,-270.94 251.15,-278.1 240.58,-277.37 243.35,-270.94"/>
</g>
<!-- 192.0.2.7&#45;&#45;192.0.2.6/31 -->
<g id="edge4" class="edge">
<title>192.0.2.7&#45;&#45;192.0.2.6/31</title>
<path fill="none" stroke="#6a51a3" stroke-width="4" d="M353.87,-82.66C353.92,-82.68 353.97,-82.7 354.02,-82.73"/>
<path fill="none" stroke="#807dba" stroke-width="4" d="M354.02,-82.73C354.07,-82.75 354.12,-82.78 354.17,-82.8"/>
<path fill="none" stroke="#9e9ac8" stroke-width="4" d="M354.17,-82.8C354.22,-82.83 354.27,-82.85 354.32,-82.88"/>
<path fill="none" stroke="#807dba" stroke-width="4" d="M354.32,-82.88C354.37,-82.9 354.42,-82.93 354.47,-82.95"/>
<path fill="none" stroke="#6a51a3" stroke-width="4" d="M354.47,-82.95C354.56,-83 354.66,-83.05 354.76,-83.1"/>
<path fill="none" stroke="#807dba" stroke-width="4" d="M354.76,-83.1C354.81,-83.12 354.86,-83.15 354.91,-83.17"/>
<path fill="none" stroke="#9e9ac8" stroke-width="4" d="M354.91,-83.17C354.95,-83.19 355,-83.22 355.05,-83.24"/>
<path fill="none" stroke="#807dba" stroke-width="4" d="M355.05,-83.24C355.1,-83.27 355.15,-83.29 355.2,-83.31"/>
<path fill="none" stroke="#6a51a3" stroke-width="4" d="M355.2,-83.31C355.25,-83.34 355.29,-83.36 355.34,-83.39"/>
<polygon fill="#6a51a3" stroke="#6a51a3" stroke-width="4" points="346.25,-74.95 353.64,-82.54 343.13,-81.22 346.25,-74.95"/>
<polygon fill="#6a51a3" stroke="#6a51a3" stroke-width="4" points="362.81,-91.02 355.42,-83.43 365.93,-84.75 362.81,-91.02"/>
</g>
<!-- 192.0.2.7&#45;&#45;192.0.2.10/31 -->
<g id="edge5" class="edge">
<title>192.0.2.7&#45;&#45;192.0.2.10/31</title>
<path fill="none" stroke="#6a51a3" stroke-width="4" d="M240.58,-86.18C240.54,-86.2 240.51,-86.22 240.47,-86.24"/>
<path fill="none" stroke="#807dba" stroke-width="4" d="M240.47,-86.24C240.43,-86.26 240.4,-86.28 240.36,-86.3"/>
<path fill="none" stroke="#9e9ac8" stroke-width="4" d="M240.36,-86.3C240.33,-86.32 240.29,-86.34 240.26,-86.36"/>
<path fill="none" stroke="#807dba" stroke-width="4" d="M240.26,-86.36C240.22,-86.38 240.19,-86.4 240.15,-86.42"/>
<path fill="none" stroke="#6a51a3" stroke-width="4" d="M240.15,-86.42C240.08,-86.46 240.01,-86.5 239.94,-86.54"/>
<path fill="none" stroke="#807dba" stroke-width="4" d="M239.94,-86.54C239.91,-86.56 239.87,-86.58 239.84,-86.6"/>
<path fill="none" stroke="#9e9ac8" stroke-width="4" d="M239.84,-86.6C239.8,-86.62 239.77,-86.64 239.74,-86.66"/>
<path fill="none" stroke="#807dba" stroke-width="4" d="M239.74,-86.66C239.7,-86.68 239.67,-86.7 239.63,-86.72"/>
<path fill="none" stroke="#6a51a3" stroke-width="4" d="M239.63,-86.72C239.6,-86.74 239.56,-86.76 239.53,-86.78"/>
<polygon fill="#6a51a3" stroke="#6a51a3" stroke-width="4" points="251.06,-84.17 240.65,-86.14 247.56,-78.11 251.06,-84.17"/>
<polygon fill="#6a51a3" stroke="#6a51a3" stroke-width="4" points="228.86,-88.89 239.27,-86.93 232.36,-94.96 228.86,-88.89"/>
</g>
<!-- 192.0.2.9&#45;&#45;192.0.2.4/31 -->
<g id="edge6" class="edge">
<title>192.0.2.9&#45;&#45;192.0.2.4/31</title>
<path fill="none" stroke="#6a51a3" stroke-width="4" d="M274.04,-180.33C274.05,-180.33 274.06,-180.33 274.08,-180.33"/>
<path fill="none" stroke="#807dba" stroke-width="4" d="M274.08,-180.33C274.09,-180.33 274.1,-180.33 274.11,-180.33"/>
<path fill="none" stroke="#9e9ac8" stroke-width="4" d="M274.11,-180.33C274.12,-180.32 274.14,-180.32 274.15,-180.32"/>
<path fill="none" stroke="#807dba" stroke-width="4" d="M274.15,-180.32C274.16,-180.32 274.17,-180.32 274.19,-180.32"/>
<path fill="none" stroke="#6a51a3" stroke-width="4" d="M274.19,-180.32C274.21,-180.32 274.24,-180.32 274.26,-180.31"/>
<path fill="none" stroke="#807dba" stroke-width="4" d="M274.26,-180.31C274.27,-180.31 274.29,-180.31 274.3,-180.31"/>
<path fill="none" stroke="#9e9ac8" stroke-width="4" d="M274.3,-180.31C274.31,-180.31 274.32,-180.31 274.34,-180.31"/>
<path fill="none" stroke="#807dba" stroke-width="4" d="M274.34,-180.31C274.35,-180.31 274.36,-180.31 274.37,-180.31"/>
<path fill="none" stroke="#6a51a3" stroke-width="4" d="M274.37,-180.31C274.39,-180.31 274.4,-180.31 274.41,-180.3"/>
<polygon fill="#6a51a3" stroke="#6a51a3" stroke-width="4" points="263.75,-177.53 273.97,-180.33 264.24,-184.51 263.75,-177.53"/>
<polygon fill="#6a51a3" stroke="#6a51a3" stroke-width="4" points="277.13,-183.63 266.91,-180.82 276.65,-176.64 277.13,-183.63"/>
</g>
<!-- 192.0.2.9&#45;&#45;192.0.2.8/31 -->
<g id="edge7" class="edge">
<title>192.0.2.9&#45;&#45;192.0.2.8/31</title>
<path fill="none" stroke="#6a51a3" stroke-width="4" d="M227.07,-247.03C227.11,-247.19 227.16,-247.35 227.2,-247.51"/>
<path fill="none" stroke="#807dba" stroke-width="4" d="M227.2,-247.51C227.25,-247.66 227.29,-247.82 227.33,-247.97"/>
<path fill="none" stroke="#9e9ac8" stroke-width="4" d="M227.33,-247.97C227.38,-248.13 227.42,-248.29 227.46,-248.44"/>
<path fill="none" stroke="#807dba" stroke-width="4" d="M227.46,-248.44C227.51,-248.6 227.55,-248.75 227.59,-248.91"/>
<path fill="none" stroke="#6a51a3" stroke-width="4" d="M227.59,-248.91C227.68,-249.21 227.76,-249.52 227.85,-249.82"/>
<path fill="none" stroke="#807dba" stroke-width="4" d="M227.85,-249.82C227.89,-249.98 227.93,-250.13 227.98,-250.28"/>
<path fill="none" stroke="#9e9ac8" stroke-width="4" d="M227.98,-250.28C228.02,-250.43 228.06,-250.58 228.1,-250.73"/>
<path fill="none" stroke="#807dba" stroke-width="4" d="M228.1,-250.73C228.14,-250.88 228.18,-251.03 228.23,-251.18"/>
<path fill="none" stroke="#6a51a3" stroke-width="4" d="M228.23,-251.18C228.27,-251.33 228.31,-251.48 228.35,-251.63"/>
<polygon fill="#6a51a3" stroke="#6a51a3" stroke-width="4" points="227.69,-236.21 227,-246.78 220.94,-238.09 227.69,-236.21"/>
<polygon fill="#6a51a3" stroke="#6a51a3" stroke-width="4" points="227.78,-262.61 228.47,-252.04 234.52,-260.73 227.78,-262.61"/>
</g>
<!-- 192.0.2.9&#45;&#45;192.0.2.10/31 -->
<g id="edge8" class="edge">
<title>192.0.2.9&#45;&#45;192.0.2.10/31</title>
<path fill="none" stroke="#6a51a3" stroke-width="4" d="M219.09,-121.16C219.12,-120.96 219.15,-120.77 219.18,-120.57"/>
<path fill="none" stroke="#807dba" stroke-width="4" d="M219.18,-120.57C219.21,-120.37 219.24,-120.17 219.27,-119.98"/>
<path fill="none" stroke="#9e9ac8" stroke-width="4" d="M219.27,-119.98C219.3,-119.78 219.33,-119.59 219.36,-119.39"/>
<path fill="none" stroke="#807dba" stroke-width="4" d="M219.36,-119.39C219.38,-119.2 219.41,-119 219.44,-118.81"/>
<path fill="none" stroke="#6a51a3" stroke-width="4" d="M219.44,-118.81C219.5,-118.42 219.56,-118.04 219.61,-117.66"/>
<path fill="none" stroke="#807dba" stroke-width="4" d="M219.61,-117.66C219.64,-117.47 219.67,-117.28 219.7,-117.09"/>
<path fill="none" stroke="#9e9ac8" stroke-width="4" d="M219.7,-117.09C219.72,-116.9 219.75,-116.71 219.78,-116.52"/>
<path fill="none" stroke="#807dba" stroke-width="4" d="M219.78,-116.52C219.81,-116.34 219.83,-116.15 219.86,-115.96"/>
<path fill="none" stroke="#6a51a3" stroke-width="4" d="M219.86,-115.96C219.89,-115.78 219.92,-115.59 219.94,-115.41"/>
<polygon fill="#6a51a3" stroke="#6a51a3" stroke-width="4" points="214.16,-130.6 219.09,-121.22 221.09,-131.62 214.16,-130.6"/>
<polygon fill="#6a51a3" stroke="#6a51a3" stroke-width="4" points="224.88,-105.92 219.96,-115.31 217.96,-104.9 224.88,-105.92"/>
</g>
<!-- 192.0.2.9&#45;&#45;192.0.2.12/30 -->
<g id="edge9" class="edge">
<title>192.0.2.9&#45;&#45;192.0.2.12/30</title>
<path fill="none" stroke="#6a51a3" stroke-width="4" d="M145.54,-188.4C145.52,-188.4 145.51,-188.41 145.49,-188.41"/>
<path fill="none" stroke="#807dba" stroke-width="4" d="M145.49,-188.41C145.48,-188.41 145.46,-188.41 145.44,-188.41"/>
<path fill="none" stroke="#9e9ac8" stroke-width="4" d="M145.44,-188.41C145.43,-188.41 145.41,-188.41 145.39,-188.41"/>
<path fill="none" stroke="#807dba" stroke-width="4" d="M145.39,-188.41C145.38,-188.41 145.36,-188.41 145.35,-188.42"/>
<path fill="none" stroke="#6a51a3" stroke-width="4" d="M145.35,-188.42C145.31,-188.42 145.28,-188.42 145.25,-188.42"/>
<path fill="none" stroke="#807dba" stroke-width="4" d="M145.25,-188.42C145.23,-188.42 145.22,-188.42 145.2,-188.42"/>
<path fill="none" stroke="#9e9ac8" stroke-width="4" d="M145.2,-188.42C145.19,-188.42 145.17,-188.43 145.15,-188.43"/>
<path fill="none" stroke="#807dba" stroke-width="4" d="M145.15,-188.43C145.14,-188.43 145.12,-188.43 145.11,-188.43"/>
<path fill="none" stroke="#6a51a3" stroke-width="4" d="M145.11,-188.43C145.09,-188.43 145.07,-188.43 145.06,-188.43"/>
<polygon fill="#6a51a3" stroke="#6a51a3" stroke-width="4" points="155.89,-191.32 145.71,-188.39 155.5,-184.33 155.89,-191.32"/>
<polygon fill="#6a51a3" stroke="#6a51a3" stroke-width="4" points="138.29,-185.31 148.47,-188.24 138.68,-192.3 138.29,-185.31"/>
</g>
<!-- 198.51.100.1&#45;&#45;192.0.2.2/31 -->
<g id="edge10" class="edge">
<title>198.51.100.1&#45;&#45;192.0.2.2/31</title>
<path fill="none" stroke="#6a51a3" stroke-width="4" d="M378.97,-238.55C378.97,-238.56 378.98,-238.57 378.98,-238.59"/>
<path fill="none" stroke="#807dba" stroke-width="4" d="M378.98,-238.59C378.98,-238.6 378.98,-238.61 378.98,-238.62"/>
<path fill="none" stroke="#9e9ac8" stroke-width="4" d="M378.98,-238.62C378.99,-238.63 378.99,-238.64 378.99,-238.65"/>
<path fill="none" stroke="#807dba" stroke-width="4" d="M378.99,-238.65C378.99,-238.66 379,-238.67 379,-238.69"/>
<path fill="none" stroke="#6a51a3" stroke-width="4" d="M379,-238.69C379,-238.71 379.01,-238.73 379.01,-238.75"/>
<path fill="none" stroke="#807dba" stroke-width="4" d="M379.01,-238.75C379.01,-238.76 379.01,-238.78 379.02,-238.79"/>
<path fill="none" stroke="#9e9ac8" stroke-width="4" d="M379.02,-238.79C379.02,-238.8 379.02,-238.81 379.02,-238.82"/>
<path fill="none" stroke="#807dba" stroke-width="4" d="M379.02,-238.82C379.03,-238.83 379.03,-238.84 379.03,-238.85"/>
<path fill="none" stroke="#6a51a3" stroke-width="4" d="M379.03,-238.85C379.03,-238.86 379.03,-238.88 379.04,-238.89"/>
<polygon fill="#6a51a3" stroke="#6a51a3" stroke-width="4" points="380.46,-227.77 378.91,-238.25 373.58,-229.1 380.46,-227.77"/>
<polygon fill="#6a51a3" stroke="#6a51a3" stroke-width="4" points="377.38,-248.78 378.92,-238.29 384.25,-247.45 377.38,-248.78"/>
</g>
<!-- 198.51.100.1&#45;&#45;192.0.2.4/31 -->
<g id="edge11" class="edge">
<title>198.51.100.1&#45;&#45;192.0.2.4/31</title>
<path fill="none" stroke="#6a51a3" stroke-width="4" d="M302.3,-178.64C302.28,-178.64 302.27,-178.64 302.25,-178.64"/>
<path fill="none" stroke="#807dba" stroke-width="4" d="M302.25,-178.64C302.24,-178.64 302.22,-178.64 302.2,-178.64"/>
<path fill="none" stroke="#9e9ac8" stroke-width="4" d="M302.2,-178.64C302.19,-178.64 302.17,-178.65 302.15,-178.65"/>
<path fill="none" stroke="#807dba" stroke-width="4" d="M302.15,-178.65C302.14,-178.65 302.12,-178.65 302.11,-178.65"/>
<path fill="none" stroke="#6a51a3" stroke-width="4" d="M302.11,-178.65C302.07,-178.65 302.04,-178.65 302.01,-178.65"/>
<path fill="none" stroke="#807dba" stroke-width="4" d="M302.01,-178.65C301.99,-178.66 301.98,-178.66 301.96,-178.66"/>
<path fill="none" stroke="#9e9ac8" stroke-width="4" d="M301.96,-178.66C301.94,-178.66 301.93,-178.66 301.91,-178.66"/>
<path fill="none" stroke="#807dba" stroke-width="4" d="M301.91,-178.66C301.9,-178.66 301.88,-178.66 301.86,-178.66"/>
<path fill="none" stroke="#6a51a3" stroke-width="4" d="M301.86,-178.66C301.85,-178.66 301.83,-178.66 301.82,-178.66"/>
<polygon fill="#6a51a3" stroke="#6a51a3" stroke-width="4" points="312.69,-181.59 302.52,-178.63 312.32,-174.6 312.69,-181.59"/>
<polygon fill="#6a51a3" stroke="#6a51a3" stroke-width="4" points="295.03,-175.52 305.2,-178.48 295.4,-182.51 295.03,-175.52"/>
</g>
<!-- 198.51.100.1&#45;&#45;192.0.2.6/31 -->
<g id="edge12" class="edge">
<title>198.51.100.1&#45;&#45;192.0.2.6/31</title>
<path fill="none" stroke="#6a51a3" stroke-width="4" d="M371.35,-110.84C371.35,-110.83 371.35,-110.82 371.35,-110.8"/>
<path fill="none" stroke="#807dba" stroke-width="4" d="M371.35,-110.8C371.35,-110.79 371.35,-110.78 371.36,-110.77"/>
<path fill="none" stroke="#9e9ac8" stroke-width="4" d="M371.36,-110.77C371.36,-110.76 371.36,-110.75 371.36,-110.74"/>
<path fill="none" stroke="#807dba" stroke-width="4" d="M371.36,-110.74C371.36,-110.72 371.36,-110.71 371.36,-110.7"/>
<path fill="none" stroke="#6a51a3" stroke-width="4" d="M371.36,-110.7C371.36,-110.68 371.36,-110.66 371.37,-110.63"/>
<path fill="none" stroke="#807dba" stroke-width="4" d="M371.37,-110.63C371.37,-110.62 371.37,-110.61 371.37,-110.6"/>
<path fill="none" stroke="#9e9ac8" stroke-width="4" d="M371.37,-110.6C371.37,-110.59 371.37,-110.58 371.37,-110.57"/>
<path fill="none" stroke="#807dba" stroke-width="4" d="M371.37,-110.57C371.37,-110.55 371.37,-110.54 371.37,-110.53"/>
<path fill="none" stroke="#6a51a3" stroke-width="4" d="M371.37,-110.53C371.37,-110.52 371.37,-110.51 371.38,-110.5"/>
<polygon fill="#6a51a3" stroke="#6a51a3" stroke-width="4" points="367.13,-120.87 371.33,-111.15 374.11,-121.37 367.13,-120.87"/>
<polygon fill="#6a51a3" stroke="#6a51a3" stroke-width="4" points="375.53,-101.37 371.33,-111.09 368.55,-100.87 375.53,-101.37"/>
</g>
<!-- 192.0.2.14 -->
<g id="node1" class="node">
<title>192.0.2.14</title>
<ellipse fill="#dadaeb" stroke="#6a51a3" stroke-width="2" cx="54" cy="-197.33" rx="54" ry="54"/>
<text text-anchor="middle" x="54" y="-194.83" font-family="sans bold" font-size="10.00" fill="#4a1486">192.0.2.14</text>
</g>
<!-- 192.0.2.3 -->
<g id="node2" class="node">
<title>192.0.2.3</title>
<ellipse fill="#dadaeb" stroke="#6a51a3" stroke-width="2" cx="311.53" cy="-304.09" rx="54" ry="54"/>
<text text-anchor="middle" x="311.53" y="-301.59" font-family="sans bold" font-size="10.00" fill="#4a1486">192.0.2.3</text>
</g>
<!-- 192.0.2.7 -->
<g id="node3" class="node">
<title>192.0.2.7</title>
<ellipse fill="#dadaeb" stroke="#6a51a3" stroke-width="2" cx="296.33" cy="-54" rx="54" ry="54"/>
<text text-anchor="middle" x="296.33" y="-51.5" font-family="sans bold" font-size="10.00" fill="#4a1486">192.0.2.7</text>
</g>
<!-- 192.0.2.9 -->
<g id="node4" class="node">
<title>192.0.2.9</title>
<ellipse fill="#dadaeb" stroke="#6a51a3" stroke-width="2" cx="209.71" cy="-184.77" rx="54" ry="54"/>
<text text-anchor="middle" x="209.71" y="-182.27" font-family="sans bold" font-size="10.00" fill="#4a1486">192.0.2.9</text>
</g>
<!-- 198.51.100.1 -->
<g id="node5" class="node">
<title>198.51.100.1</title>
<ellipse fill="#dadaeb" stroke="#6a51a3" stroke-width="2" cx="366.76" cy="-175.22" rx="54" ry="54"/>
<text text-anchor="middle" x="366.76" y="-172.72" font-family="sans bold" font-size="10.00" fill="#4a1486">198.51.100.1</text>
</g>
<!-- 192.0.2.2/31 -->
<g id="node6" class="node">
<title>192.0.2.2/31</title>
<ellipse fill="#f2f0f7" stroke="#6a51a3" stroke-width="2" cx="382.54" cy="-257.06" rx="9" ry="9"/>
</g>
<!-- 192.0.2.4/31 -->
<g id="node7" class="node">
<title>192.0.2.4/31</title>
<ellipse fill="#f2f0f7" stroke="#6a51a3" stroke-width="2" cx="286.09" cy="-179.5" rx="9" ry="9"/>
</g>
<!-- 192.0.2.6/31 -->
<g id="node8" class="node">
<title>192.0.2.6/31</title>
<ellipse fill="#f2f0f7" stroke="#6a51a3" stroke-width="2" cx="372.69" cy="-92.03" rx="9" ry="9"/>
</g>
<!-- 192.0.2.8/31 -->
<g id="node9" class="node">
<title>192.0.2.8/31</title>
<ellipse fill="#f2f0f7" stroke="#6a51a3" stroke-width="2" cx="233.63" cy="-270.56" rx="9" ry="9"/>
</g>
<!-- 192.0.2.10/31 -->
<g id="node10" class="node">
<title>192.0.2.10/31</title>
<ellipse fill="#f2f0f7" stroke="#6a51a3" stroke-width="2" cx="222.74" cy="-96.47" rx="9" ry="9"/>
</g>
<!-- 192.0.2.12/30 -->
<g id="node11" class="node">
<title>192.0.2.12/30</title>
<ellipse fill="#f2f0f7" stroke="#6a51a3" stroke-width="2" cx="129.4" cy="-189.32" rx="9" ry="9"/>
</g>
</g>
</svg>
