<?xml version="1.0" encoding="UTF-8" standalone="no"?>
<!DOCTYPE svg PUBLIC "-//W3C//DTD SVG 1.1//EN"
 "http://www.w3.org/Graphics/SVG/1.1/DTD/svg11.dtd">
<!-- Generated by graphviz version 2.38.0 (20140413.2041)
 -->
<!-- Title: G Pages: 1 -->
<svg width="1080pt" height="657pt"
 viewBox="0.00 0.00 1080.00 657.34" xmlns="http://www.w3.org/2000/svg" xmlns:xlink="http://www.w3.org/1999/xlink">
<g id="graph0" class="graph" transform="scale(0.28453 0.28453) rotate(0) translate(4 2306.27)">
<title>G</title>
<polygon fill="white" stroke="none" points="-4,4 -4,-2306.27 3791.74,-2306.27 3791.74,4 -4,4"/>
<text text-anchor="middle" x="311.5" y="-2269.47" font-family="sans bold" font-size="36.00">2016&#45;08&#45;05 04:54:00.002956Z</text>
<!-- 10.250.0.1 -->
<g id="node1" class="node"><title>10.250.0.1</title>
<ellipse fill="#dadaeb" stroke="#4a1486" stroke-width="2" cx="126" cy="-1468.23" rx="126" ry="126"/>
<text text-anchor="middle" x="126" y="-1465.73" font-family="sans bold" font-size="10.00" fill="#4a1486">10.250.0.1</text>
</g>
<!-- 10.250.0.0/30 -->
<g id="node14" class="node"><title>10.250.0.0/30</title>
<path fill="#f2f0f7" stroke="#4a1486" stroke-width="2" d="M567.167,-1484.87C567.167,-1484.87 303.167,-1484.87 303.167,-1484.87 297.167,-1484.87 291.167,-1478.87 291.167,-1472.87 291.167,-1472.87 291.167,-1460.87 291.167,-1460.87 291.167,-1454.87 297.167,-1448.87 303.167,-1448.87 303.167,-1448.87 567.167,-1448.87 567.167,-1448.87 573.167,-1448.87 579.167,-1454.87 579.167,-1460.87 579.167,-1460.87 579.167,-1472.87 579.167,-1472.87 579.167,-1478.87 573.167,-1484.87 567.167,-1484.87"/>
<text text-anchor="middle" x="435.167" y="-1464.37" font-family="sans bold" font-size="10.00" fill="#4a1486">10.250.0.0/30</text>
</g>
<!-- 10.250.0.1&#45;&#45;10.250.0.0/30 -->
<g id="edge1" class="edge"><title>10.250.0.1&#45;&#45;10.250.0.0/30</title>
<path fill="none" stroke="#4a1486" stroke-width="4" d="M252.196,-1467.68C264.969,-1467.62 278.01,-1467.57 290.954,-1467.51"/>
</g>
<!-- 192.0.2.225 -->
<g id="node2" class="node"><title>192.0.2.225</title>
<ellipse fill="#dadaeb" stroke="#4a1486" stroke-width="2" cx="3661.74" cy="-1680.69" rx="126" ry="126"/>
<text text-anchor="middle" x="3661.74" y="-1678.19" font-family="sans bold" font-size="10.00" fill="#4a1486">192.0.2.225</text>
</g>
<!-- 192.0.2.224/30 -->
<g id="node15" class="node"><title>192.0.2.224/30</title>
<path fill="#f2f0f7" stroke="#4a1486" stroke-width="2" d="M3515.71,-1611.02C3515.71,-1611.02 3251.71,-1611.02 3251.71,-1611.02 3245.71,-1611.02 3239.71,-1605.02 3239.71,-1599.02 3239.71,-1599.02 3239.71,-1587.02 3239.71,-1587.02 3239.71,-1581.02 3245.71,-1575.02 3251.71,-1575.02 3251.71,-1575.02 3515.71,-1575.02 3515.71,-1575.02 3521.71,-1575.02 3527.71,-1581.02 3527.71,-1587.02 3527.71,-1587.02 3527.71,-1599.02 3527.71,-1599.02 3527.71,-1605.02 3521.71,-1611.02 3515.71,-1611.02"/>
<text text-anchor="middle" x="3383.71" y="-1590.52" font-family="sans bold" font-size="10.00" fill="#4a1486">192.0.2.224/30</text>
</g>
<!-- 192.0.2.225&#45;&#45;192.0.2.224/30 -->
<g id="edge2" class="edge"><title>192.0.2.225&#45;&#45;192.0.2.224/30</title>
<path fill="none" stroke="#4a1486" stroke-width="4" d="M3541.41,-1642.75C3506.48,-1631.74 3469.95,-1620.22 3440.85,-1611.04"/>
</g>
<!-- 172.20.0.5 -->
<g id="node3" class="node"><title>172.20.0.5</title>
<ellipse fill="#dadaeb" stroke="#4a1486" stroke-width="2" cx="577.066" cy="-2128.27" rx="126" ry="126"/>
<text text-anchor="middle" x="577.066" y="-2125.77" font-family="sans bold" font-size="10.00" fill="#4a1486">172.20.0.5</text>
</g>
<!-- 172.20.0.4/30 -->
<g id="node17" class="node"><title>172.20.0.4/30</title>
<path fill="#f2f0f7" stroke="#4a1486" stroke-width="2" d="M825.151,-1860.82C825.151,-1860.82 561.151,-1860.82 561.151,-1860.82 555.151,-1860.82 549.151,-1854.82 549.151,-1848.82 549.151,-1848.82 549.151,-1836.82 549.151,-1836.82 549.151,-1830.82 555.151,-1824.82 561.151,-1824.82 561.151,-1824.82 825.151,-1824.82 825.151,-1824.82 831.151,-1824.82 837.151,-1830.82 837.151,-1836.82 837.151,-1836.82 837.151,-1848.82 837.151,-1848.82 837.151,-1854.82 831.151,-1860.82 825.151,-1860.82"/>
<text text-anchor="middle" x="693.151" y="-1840.32" font-family="sans bold" font-size="10.00" fill="#4a1486">172.20.0.4/30</text>
</g>
<!-- 172.20.0.5&#45;&#45;172.20.0.4/30 -->
<g id="edge3" class="edge"><title>172.20.0.5&#45;&#45;172.20.0.4/30</title>
<path fill="none" stroke="#4a1486" stroke-width="4" d="M624.617,-2011.34C647.91,-1954.07 673.534,-1891.06 685.806,-1860.88"/>
</g>
<!-- 172.31.36.254 -->
<g id="node4" class="node"><title>172.31.36.254</title>
<ellipse fill="#dadaeb" stroke="#4a1486" stroke-width="2" cx="927.598" cy="-687.693" rx="126" ry="126"/>
<text text-anchor="middle" x="927.598" y="-685.193" font-family="sans bold" font-size="10.00" fill="#4a1486">3845</text>
</g>
<!-- 172.31.36.0/24 -->
<g id="node18" class="node"><title>172.31.36.0/24</title>
<path fill="#f2f0f7" stroke="#4a1486" stroke-width="2" d="M1362.49,-827.867C1362.49,-827.867 1098.49,-827.867 1098.49,-827.867 1092.49,-827.867 1086.49,-821.867 1086.49,-815.867 1086.49,-815.867 1086.49,-803.867 1086.49,-803.867 1086.49,-797.867 1092.49,-791.867 1098.49,-791.867 1098.49,-791.867 1362.49,-791.867 1362.49,-791.867 1368.49,-791.867 1374.49,-797.867 1374.49,-803.867 1374.49,-803.867 1374.49,-815.867 1374.49,-815.867 1374.49,-821.867 1368.49,-827.867 1362.49,-827.867"/>
<text text-anchor="middle" x="1230.49" y="-807.367" font-family="sans bold" font-size="10.00" fill="#4a1486">172.31.36.0/24</text>
</g>
<!-- 172.31.36.254&#45;&#45;172.31.36.0/24 -->
<g id="edge4" class="edge"><title>172.31.36.254&#45;&#45;172.31.36.0/24</title>
<path fill="none" stroke="#4a1486" stroke-width="4" d="M1044.7,-734.929C1093.98,-754.804 1148.37,-776.745 1185.5,-791.72"/>
</g>
<!-- 192.168.100.12 -->
<g id="node5" class="node"><title>192.168.100.12</title>
<ellipse fill="#dadaeb" stroke="#4a1486" stroke-width="2" cx="1284.87" cy="-219.213" rx="126" ry="126"/>
<text text-anchor="middle" x="1284.87" y="-216.713" font-family="sans bold" font-size="10.00" fill="#4a1486">192.168.100.12</text>
</g>
<!-- 192.168.100.0/24 -->
<g id="node22" class="node"><title>192.168.100.0/24</title>
<path fill="#f2f0f7" stroke="#4a1486" stroke-width="2" d="M1566.24,-540.433C1566.24,-540.433 1302.24,-540.433 1302.24,-540.433 1296.24,-540.433 1290.24,-534.433 1290.24,-528.433 1290.24,-528.433 1290.24,-516.433 1290.24,-516.433 1290.24,-510.433 1296.24,-504.433 1302.24,-504.433 1302.24,-504.433 1566.24,-504.433 1566.24,-504.433 1572.24,-504.433 1578.24,-510.433 1578.24,-516.433 1578.24,-516.433 1578.24,-528.433 1578.24,-528.433 1578.24,-534.433 1572.24,-540.433 1566.24,-540.433"/>
<text text-anchor="middle" x="1434.24" y="-519.933" font-family="sans bold" font-size="10.00" fill="#4a1486">192.168.100.0/24</text>
</g>
<!-- 192.168.100.12&#45;&#45;192.168.100.0/24 -->
<g id="edge5" class="edge"><title>192.168.100.12&#45;&#45;192.168.100.0/24</title>
<path fill="none" stroke="#4a1486" stroke-width="4" d="M1340.7,-332.552C1372.36,-396.81 1408.85,-470.882 1425.33,-504.353"/>
</g>
<!-- 192.168.20.29 -->
<g id="node6" class="node"><title>192.168.20.29</title>
<ellipse fill="#dadaeb" stroke="#4a1486" stroke-width="2" cx="2071.72" cy="-1619.87" rx="126" ry="126"/>
<text text-anchor="middle" x="2071.72" y="-1617.37" font-family="sans bold" font-size="10.00" fill="#4a1486">192.168.20.29</text>
</g>
<!-- 192.168.20.0/24 -->
<g id="node20" class="node"><title>192.168.20.0/24</title>
<path fill="#f2f0f7" stroke="#4a1486" stroke-width="2" d="M2040.22,-1338.71C2040.22,-1338.71 1776.22,-1338.71 1776.22,-1338.71 1770.22,-1338.71 1764.22,-1332.71 1764.22,-1326.71 1764.22,-1326.71 1764.22,-1314.71 1764.22,-1314.71 1764.22,-1308.71 1770.22,-1302.71 1776.22,-1302.71 1776.22,-1302.71 2040.22,-1302.71 2040.22,-1302.71 2046.22,-1302.71 2052.22,-1308.71 2052.22,-1314.71 2052.22,-1314.71 2052.22,-1326.71 2052.22,-1326.71 2052.22,-1332.71 2046.22,-1338.71 2040.22,-1338.71"/>
<text text-anchor="middle" x="1908.22" y="-1318.21" font-family="sans bold" font-size="10.00" fill="#4a1486">192.168.20.0/24</text>
</g>
<!-- 192.168.20.29&#45;&#45;192.168.20.0/24 -->
<g id="edge6" class="edge"><title>192.168.20.29&#45;&#45;192.168.20.0/24</title>
<path fill="none" stroke="#4a1486" stroke-width="4" d="M2011.07,-1508.9C1976.45,-1445.55 1936.4,-1372.27 1918.17,-1338.93"/>
</g>
<!-- 192.168.20.7 -->
<g id="node7" class="node"><title>192.168.20.7</title>
<ellipse fill="#dadaeb" stroke="#4a1486" stroke-width="2" cx="1752.95" cy="-1609.12" rx="126" ry="126"/>
<text text-anchor="middle" x="1752.95" y="-1606.62" font-family="sans bold" font-size="10.00" fill="#4a1486">192.168.20.7</text>
</g>
<!-- 192.168.20.7&#45;&#45;192.168.20.0/24 -->
<g id="edge7" class="edge"><title>192.168.20.7&#45;&#45;192.168.20.0/24</title>
<path fill="none" stroke="#4a1486" stroke-width="4" d="M1812.76,-1498.02C1844.88,-1438.36 1881.31,-1370.7 1898.39,-1338.97"/>
</g>
<!-- 192.168.31.3 -->
<g id="node8" class="node"><title>192.168.31.3</title>
<ellipse fill="#dadaeb" stroke="#4a1486" stroke-width="2" cx="1915.2" cy="-126" rx="126" ry="126"/>
<text text-anchor="middle" x="1915.2" y="-123.5" font-family="sans bold" font-size="10.00" fill="#4a1486">192.168.31.3</text>
</g>
<!-- 192.168.31.0/28 -->
<g id="node21" class="node"><title>192.168.31.0/28</title>
<path fill="#f2f0f7" stroke="#4a1486" stroke-width="2" d="M2024.18,-487.002C2024.18,-487.002 1760.18,-487.002 1760.18,-487.002 1754.18,-487.002 1748.18,-481.002 1748.18,-475.002 1748.18,-475.002 1748.18,-463.002 1748.18,-463.002 1748.18,-457.002 1754.18,-451.002 1760.18,-451.002 1760.18,-451.002 2024.18,-451.002 2024.18,-451.002 2030.18,-451.002 2036.18,-457.002 2036.18,-463.002 2036.18,-463.002 2036.18,-475.002 2036.18,-475.002 2036.18,-481.002 2030.18,-487.002 2024.18,-487.002"/>
<text text-anchor="middle" x="1892.18" y="-466.502" font-family="sans bold" font-size="10.00" fill="#4a1486">192.168.31.0/28</text>
</g>
<!-- 192.168.31.3&#45;&#45;192.168.31.0/28 -->
<g id="edge8" class="edge"><title>192.168.31.3&#45;&#45;192.168.31.0/28</title>
<path fill="none" stroke="#4a1486" stroke-width="4" d="M1906.76,-251.774C1901.74,-326.532 1895.88,-413.795 1893.39,-450.865"/>
</g>
<!-- 192.168.31.4 -->
<g id="node9" class="node"><title>192.168.31.4</title>
<ellipse fill="#dadaeb" stroke="#4a1486" stroke-width="2" cx="2195.75" cy="-315.56" rx="126" ry="126"/>
<text text-anchor="middle" x="2195.75" y="-313.06" font-family="sans bold" font-size="10.00" fill="#4a1486">192.168.31.4</text>
</g>
<!-- 192.168.31.4&#45;&#45;192.168.31.0/28 -->
<g id="edge9" class="edge"><title>192.168.31.4&#45;&#45;192.168.31.0/28</title>
<path fill="none" stroke="#4a1486" stroke-width="4" d="M2083.14,-372.478C2028.3,-400.197 1966.14,-431.618 1928.04,-450.873"/>
</g>
<!-- 198.51.100.1 -->
<g id="node10" class="node"><title>198.51.100.1</title>
<ellipse fill="#dadaeb" stroke="#4a1486" stroke-width="2" cx="1615.45" cy="-909.029" rx="126" ry="126"/>
<text text-anchor="middle" x="1615.45" y="-906.529" font-family="sans bold" font-size="10.00" fill="#4a1486">Switch_Stack</text>
</g>
<!-- 198.51.100.1&#45;&#45;172.31.36.0/24 -->
<g id="edge10" class="edge"><title>198.51.100.1&#45;&#45;172.31.36.0/24</title>
<path fill="none" stroke="#4a1486" stroke-width="4" d="M1493.38,-877.585C1429.74,-861.191 1354.18,-841.729 1300.44,-827.885"/>
</g>
<!-- 192.168.1.0/24 -->
<g id="node19" class="node"><title>192.168.1.0/24</title>
<path fill="#f2f0f7" stroke="#4a1486" stroke-width="2" d="M1920.78,-760.086C1920.78,-760.086 1656.78,-760.086 1656.78,-760.086 1650.78,-760.086 1644.78,-754.086 1644.78,-748.086 1644.78,-748.086 1644.78,-736.086 1644.78,-736.086 1644.78,-730.086 1650.78,-724.086 1656.78,-724.086 1656.78,-724.086 1920.78,-724.086 1920.78,-724.086 1926.78,-724.086 1932.78,-730.086 1932.78,-736.086 1932.78,-736.086 1932.78,-748.086 1932.78,-748.086 1932.78,-754.086 1926.78,-760.086 1920.78,-760.086"/>
<text text-anchor="middle" x="1788.78" y="-739.586" font-family="sans bold" font-size="10.00" fill="#4a1486">192.168.1.0/24</text>
</g>
<!-- 198.51.100.1&#45;&#45;192.168.1.0/24 -->
<g id="edge11" class="edge"><title>198.51.100.1&#45;&#45;192.168.1.0/24</title>
<path fill="none" stroke="#4a1486" stroke-width="4" d="M1710.86,-826.503C1736.68,-801.513 1761.46,-776.41 1775.94,-760.115"/>
</g>
<!-- 198.51.100.1&#45;&#45;192.168.1.0/24 -->
<g id="edge12" class="edge"><title>198.51.100.1&#45;&#45;192.168.1.0/24</title>
<path fill="none" stroke="#4a1486" stroke-width="4" d="M1701.5,-816.789C1723.99,-795.226 1746.54,-774.448 1763.11,-760.273"/>
</g>
<!-- 198.51.100.1&#45;&#45;192.168.20.0/24 -->
<g id="edge13" class="edge"><title>198.51.100.1&#45;&#45;192.168.20.0/24</title>
<path fill="none" stroke="#4a1486" stroke-width="4" d="M1683.74,-1015.29C1751.97,-1114.16 1852.12,-1253.37 1891.54,-1302.63"/>
</g>
<!-- 198.51.100.1&#45;&#45;192.168.20.0/24 -->
<g id="edge14" class="edge"><title>198.51.100.1&#45;&#45;192.168.20.0/24</title>
<path fill="none" stroke="#4a1486" stroke-width="4" d="M1693.41,-1008.41C1765.95,-1107.44 1867.35,-1251.79 1898.72,-1302.4"/>
</g>
<!-- 198.51.100.1&#45;&#45;192.168.31.0/28 -->
<g id="edge15" class="edge"><title>198.51.100.1&#45;&#45;192.168.31.0/28</title>
<path fill="none" stroke="#4a1486" stroke-width="4" d="M1682.62,-802.23C1749.8,-695.394 1847.78,-539.602 1880.82,-487.064"/>
</g>
<!-- 198.51.100.1&#45;&#45;192.168.100.0/24 -->
<g id="edge16" class="edge"><title>198.51.100.1&#45;&#45;192.168.100.0/24</title>
<path fill="none" stroke="#4a1486" stroke-width="4" d="M1567.57,-792.228C1526.66,-701.945 1470.78,-585.123 1446.3,-540.667"/>
</g>
<!-- 198.51.100.1&#45;&#45;192.168.100.0/24 -->
<g id="edge17" class="edge"><title>198.51.100.1&#45;&#45;192.168.100.0/24</title>
<path fill="none" stroke="#4a1486" stroke-width="4" d="M1556.31,-797.508C1512.23,-706.532 1456.9,-585.938 1439.48,-540.635"/>
</g>
<!-- 198.51.100.72/30 -->
<g id="node23" class="node"><title>198.51.100.72/30</title>
<path fill="#f2f0f7" stroke="#4a1486" stroke-width="2" d="M2139.46,-1057.68C2139.46,-1057.68 1875.46,-1057.68 1875.46,-1057.68 1869.46,-1057.68 1863.46,-1051.68 1863.46,-1045.68 1863.46,-1045.68 1863.46,-1033.68 1863.46,-1033.68 1863.46,-1027.68 1869.46,-1021.68 1875.46,-1021.68 1875.46,-1021.68 2139.46,-1021.68 2139.46,-1021.68 2145.46,-1021.68 2151.46,-1027.68 2151.46,-1033.68 2151.46,-1033.68 2151.46,-1045.68 2151.46,-1045.68 2151.46,-1051.68 2145.46,-1057.68 2139.46,-1057.68"/>
<text text-anchor="middle" x="2007.46" y="-1037.18" font-family="sans bold" font-size="10.00" fill="#4a1486">198.51.100.72/30</text>
</g>
<!-- 198.51.100.1&#45;&#45;198.51.100.72/30 -->
<g id="edge18" class="edge"><title>198.51.100.1&#45;&#45;198.51.100.72/30</title>
<path fill="none" stroke="#4a1486" stroke-width="4" d="M1735.2,-948.939C1807.93,-973.179 1897.25,-1002.95 1953.28,-1021.63"/>
</g>
<!-- 198.51.100.86/31 -->
<g id="node24" class="node"><title>198.51.100.86/31</title>
<path fill="#f2f0f7" stroke="#4a1486" stroke-width="2" d="M1332.23,-1244.83C1332.23,-1244.83 1068.23,-1244.83 1068.23,-1244.83 1062.23,-1244.83 1056.23,-1238.83 1056.23,-1232.83 1056.23,-1232.83 1056.23,-1220.83 1056.23,-1220.83 1056.23,-1214.83 1062.23,-1208.83 1068.23,-1208.83 1068.23,-1208.83 1332.23,-1208.83 1332.23,-1208.83 1338.23,-1208.83 1344.23,-1214.83 1344.23,-1220.83 1344.23,-1220.83 1344.23,-1232.83 1344.23,-1232.83 1344.23,-1238.83 1338.23,-1244.83 1332.23,-1244.83"/>
<text text-anchor="middle" x="1200.23" y="-1224.33" font-family="sans bold" font-size="10.00" fill="#4a1486">198.51.100.86/31</text>
</g>
<!-- 198.51.100.1&#45;&#45;198.51.100.86/31 -->
<g id="edge19" class="edge"><title>198.51.100.1&#45;&#45;198.51.100.86/31</title>
<path fill="none" stroke="#4a1486" stroke-width="4" d="M1515.2,-985.757C1418.49,-1059.78 1278.88,-1166.63 1223.83,-1208.77"/>
</g>
<!-- 198.51.100.2 -->
<g id="node11" class="node"><title>198.51.100.2</title>
<ellipse fill="#dadaeb" stroke="#4a1486" stroke-width="2" cx="3061.15" cy="-1491.25" rx="126" ry="126"/>
<text text-anchor="middle" x="3061.15" y="-1488.75" font-family="sans bold" font-size="10.00" fill="#4a1486">DIA&#45;RTR</text>
</g>
<!-- 198.51.100.2&#45;&#45;192.0.2.224/30 -->
<g id="edge20" class="edge"><title>198.51.100.2&#45;&#45;192.0.2.224/30</title>
<path fill="none" stroke="#4a1486" stroke-width="4" d="M3181.72,-1529.29C3231.29,-1544.93 3286.34,-1562.3 3326.44,-1574.95"/>
</g>
<!-- 192.0.2.0/24 -->
<g id="node16" class="node"><title>192.0.2.0/24</title>
<path fill="#f2f0f7" stroke="#4a1486" stroke-width="2" d="M2835.14,-1398.66C2835.14,-1398.66 2571.14,-1398.66 2571.14,-1398.66 2565.14,-1398.66 2559.14,-1392.66 2559.14,-1386.66 2559.14,-1386.66 2559.14,-1374.66 2559.14,-1374.66 2559.14,-1368.66 2565.14,-1362.66 2571.14,-1362.66 2571.14,-1362.66 2835.14,-1362.66 2835.14,-1362.66 2841.14,-1362.66 2847.14,-1368.66 2847.14,-1374.66 2847.14,-1374.66 2847.14,-1386.66 2847.14,-1386.66 2847.14,-1392.66 2841.14,-1398.66 2835.14,-1398.66"/>
<text text-anchor="middle" x="2703.14" y="-1378.16" font-family="sans bold" font-size="10.00" fill="#4a1486">192.0.2.0/24</text>
</g>
<!-- 198.51.100.2&#45;&#45;192.0.2.0/24 -->
<g id="edge21" class="edge"><title>198.51.100.2&#45;&#45;192.0.2.0/24</title>
<path fill="none" stroke="#4a1486" stroke-width="4" d="M2940.44,-1453.97C2880.16,-1435.34 2809.96,-1413.66 2761.64,-1398.73"/>
</g>
<!-- 198.51.100.54 -->
<g id="node12" class="node"><title>198.51.100.54</title>
<ellipse fill="#dadaeb" stroke="#4a1486" stroke-width="2" cx="807.853" cy="-1491.93" rx="126" ry="126"/>
<text text-anchor="middle" x="807.853" y="-1489.43" font-family="sans bold" font-size="10.00" fill="#4a1486">MPLS&#45;CE</text>
</g>
<!-- 198.51.100.54&#45;&#45;10.250.0.0/30 -->
<g id="edge22" class="edge"><title>198.51.100.54&#45;&#45;10.250.0.0/30</title>
<path fill="none" stroke="#4a1486" stroke-width="4" d="M681.938,-1483.46C648.984,-1481.25 613.203,-1478.84 579.376,-1476.57"/>
</g>
<!-- 198.51.100.54&#45;&#45;172.20.0.4/30 -->
<g id="edge23" class="edge"><title>198.51.100.54&#45;&#45;172.20.0.4/30</title>
<path fill="none" stroke="#4a1486" stroke-width="4" d="M768.7,-1611.7C743,-1690.32 711.861,-1785.58 699.07,-1824.71"/>
</g>
<!-- 198.51.100.54&#45;&#45;198.51.100.86/31 -->
<g id="edge24" class="edge"><title>198.51.100.54&#45;&#45;198.51.100.86/31</title>
<path fill="none" stroke="#4a1486" stroke-width="4" d="M912.486,-1421.23C1000.57,-1361.72 1120.4,-1280.76 1173.27,-1245.04"/>
</g>
<!-- 198.51.100.73 -->
<g id="node13" class="node"><title>198.51.100.73</title>
<ellipse fill="#dadaeb" stroke="#4a1486" stroke-width="2" cx="2294.16" cy="-1263.28" rx="126" ry="126"/>
<text text-anchor="middle" x="2294.16" y="-1260.78" font-family="sans bold" font-size="10.00" fill="#4a1486">Firewall</text>
</g>
<!-- 198.51.100.73&#45;&#45;192.0.2.0/24 -->
<g id="edge25" class="edge"><title>198.51.100.73&#45;&#45;192.0.2.0/24</title>
<path fill="none" stroke="#4a1486" stroke-width="4" d="M2415.49,-1298.1C2489.32,-1319.29 2580.58,-1345.49 2640.25,-1362.61"/>
</g>
<!-- 198.51.100.73&#45;&#45;192.168.20.0/24 -->
<g id="edge26" class="edge"><title>198.51.100.73&#45;&#45;192.168.20.0/24</title>
<path fill="none" stroke="#4a1486" stroke-width="4" d="M2169.39,-1281.85C2124.46,-1288.54 2073.87,-1296.06 2029.27,-1302.7"/>
</g>
<!-- 198.51.100.73&#45;&#45;198.51.100.72/30 -->
<g id="edge27" class="edge"><title>198.51.100.73&#45;&#45;198.51.100.72/30</title>
<path fill="none" stroke="#4a1486" stroke-width="4" d="M2194.69,-1185.71C2135.82,-1139.79 2066.03,-1085.36 2030.59,-1057.72"/>
</g>
</g>
</svg>
