<?xml version="1.0" encoding="UTF-8" standalone="no"?>
<!DOCTYPE svg PUBLIC "-//W3C//DTD SVG 1.1//EN"
 "http://www.w3.org/Graphics/SVG/1.1/DTD/svg11.dtd">
<!-- Generated by graphviz version 2.38.0 (20140413.2041)
 -->
<!-- Title: G Pages: 1 -->
<svg width="732pt" height="594pt"
 viewBox="0.00 0.00 732.24 594.40" xmlns="http://www.w3.org/2000/svg" xmlns:xlink="http://www.w3.org/1999/xlink">
<g id="graph0" class="graph" transform="scale(1 1) rotate(0) translate(434.005 303.597)">
<title>G</title>
<polygon fill="white" stroke="none" points="-434.005,290.802 -434.005,-303.597 298.236,-303.597 298.236,290.802 -434.005,290.802"/>
<text text-anchor="middle" x="-333.505" y="-284.397" font-family="sans bold" font-size="14.00">1970&#45;01&#45;01 00:00:00Z</text>
<!-- 192.0.2.14 -->
<g id="node1" class="node"><title>192.0.2.14</title>
<ellipse fill="#dadaeb" stroke="#6a51a3" stroke-width="2" cx="-376.005" cy="-28.184" rx="54" ry="54"/>
<text text-anchor="middle" x="-376.005" y="-25.684" font-family="sans bold" font-size="10.00" fill="#4a1486">192.0.2.14</text>
</g>
<!-- 192.0.2.12/30 -->
<g id="node11" class="node"><title>192.0.2.12/30</title>
<path fill="#f2f0f7" stroke="#6a51a3" stroke-width="2" d="M-178.714,-31.6013C-178.714,-31.6013 -298.714,-31.6013 -298.714,-31.6013 -304.714,-31.6013 -310.714,-25.6013 -310.714,-19.6013 -310.714,-19.6013 -310.714,-7.60134 -310.714,-7.60134 -310.714,-1.60134 -304.714,4.39866 -298.714,4.39866 -298.714,4.39866 -178.714,4.39866 -178.714,4.39866 -172.714,4.39866 -166.714,-1.60134 -166.714,-7.60134 -166.714,-7.60134 -166.714,-19.6013 -166.714,-19.6013 -166.714,-25.6013 -172.714,-31.6013 -178.714,-31.6013"/>
<text text-anchor="middle" x="-238.714" y="-11.1013" font-family="sans bold" font-size="10.00" fill="#4a1486">192.0.2.12/30</text>
</g>
<!-- 192.0.2.14&#45;&#45;192.0.2.12/30 -->
<g id="edge1" class="edge"><title>192.0.2.14&#45;&#45;192.0.2.12/30</title>
<path fill="none" stroke="#6a51a3" stroke-width="4" d="M-322.138,-22.4624C-318.382,-22.0634 -314.564,-21.6579 -310.731,-21.2508"/>
</g>
<!-- 192.0.2.3 -->
<g id="node2" class="node"><title>192.0.2.3</title>
<ellipse fill="#dadaeb" stroke="#6a51a3" stroke-width="2" cx="92.938" cy="-222.597" rx="54" ry="54"/>
<text text-anchor="middle" x="92.938" y="-220.097" font-family="sans bold" font-size="10.00" fill="#4a1486">192.0.2.3</text>
</g>
<!-- 192.0.2.2/31 -->
<g id="node6" class="node"><title>192.0.2.2/31</title>
<path fill="#f2f0f7" stroke="#6a51a3" stroke-width="2" d="M282.236,-154.948C282.236,-154.948 162.236,-154.948 162.236,-154.948 156.236,-154.948 150.236,-148.948 150.236,-142.948 150.236,-142.948 150.236,-130.948 150.236,-130.948 150.236,-124.948 156.236,-118.948 162.236,-118.948 162.236,-118.948 282.236,-118.948 282.236,-118.948 288.236,-118.948 294.236,-124.948 294.236,-130.948 294.236,-130.948 294.236,-142.948 294.236,-142.948 294.236,-148.948 288.236,-154.948 282.236,-154.948"/>
<text text-anchor="middle" x="222.236" y="-134.448" font-family="sans bold" font-size="10.00" fill="#4a1486">192.0.2.2/31</text>
</g>
<!-- 192.0.2.3&#45;&#45;192.0.2.2/31 -->
<g id="edge2" class="edge"><title>192.0.2.3&#45;&#45;192.0.2.2/31</title>
<path fill="none" stroke="#6a51a3" stroke-width="4" d="M138.16,-192.641C157.094,-180.099 178.479,-165.933 194.943,-155.027"/>
</g>
<!-- 192.0.2.8/31 -->
<g id="node9" class="node"><title>192.0.2.8/31</title>
<path fill="#f2f0f7" stroke="#6a51a3" stroke-width="2" d="M11.0842,-179.539C11.0842,-179.539 -108.916,-179.539 -108.916,-179.539 -114.916,-179.539 -120.916,-173.539 -120.916,-167.539 -120.916,-167.539 -120.916,-155.539 -120.916,-155.539 -120.916,-149.539 -114.916,-143.539 -108.916,-143.539 -108.916,-143.539 11.0842,-143.539 11.0842,-143.539 17.0842,-143.539 23.0842,-149.539 23.0842,-155.539 23.0842,-155.539 23.0842,-167.539 23.0842,-167.539 23.0842,-173.539 17.0842,-179.539 11.0842,-179.539"/>
<text text-anchor="middle" x="-48.9158" y="-159.039" font-family="sans bold" font-size="10.00" fill="#4a1486">192.0.2.8/31</text>
</g>
<!-- 192.0.2.3&#45;&#45;192.0.2.8/31 -->
<g id="edge3" class="edge"><title>192.0.2.3&#45;&#45;192.0.2.8/31</title>
<path fill="none" stroke="#6a51a3" stroke-width="4" d="M43.3244,-201.242C26.8659,-194.158 8.71949,-186.347 -7.09233,-179.541"/>
</g>
<!-- 192.0.2.7 -->
<g id="node3" class="node"><title>192.0.2.7</title>
<ellipse fill="#dadaeb" stroke="#6a51a3" stroke-width="2" cx="65.2631" cy="232.802" rx="54" ry="54"/>
<text text-anchor="middle" x="65.2631" y="235.302" font-family="sans bold" font-size="10.00" fill="#4a1486">192.0.2.7</text>
</g>
<!-- 192.0.2.6/31 -->
<g id="node8" class="node"><title>192.0.2.6/31</title>
<path fill="#f2f0f7" stroke="#6a51a3" stroke-width="2" d="M264.304,145.559C264.304,145.559 144.304,145.559 144.304,145.559 138.304,145.559 132.304,151.559 132.304,157.559 132.304,157.559 132.304,169.559 132.304,169.559 132.304,175.559 138.304,181.559 144.304,181.559 144.304,181.559 264.304,181.559 264.304,181.559 270.304,181.559 276.304,175.559 276.304,169.559 276.304,169.559 276.304,157.559 276.304,157.559 276.304,151.559 270.304,145.559 264.304,145.559"/>
<text text-anchor="middle" x="204.304" y="166.059" font-family="sans bold" font-size="10.00" fill="#4a1486">192.0.2.6/31</text>
</g>
<!-- 192.0.2.7&#45;&#45;192.0.2.6/31 -->
<g id="edge4" class="edge"><title>192.0.2.7&#45;&#45;192.0.2.6/31</title>
<path fill="none" stroke="#6a51a3" stroke-width="4" d="M113.893,208.584C131.591,199.77 151.281,189.965 167.756,181.76"/>
</g>
<!-- 192.0.2.10/31 -->
<g id="node10" class="node"><title>192.0.2.10/31</title>
<path fill="#f2f0f7" stroke="#6a51a3" stroke-width="2" d="M-8.75032,137.469C-8.75032,137.469 -128.75,137.469 -128.75,137.469 -134.75,137.469 -140.75,143.469 -140.75,149.469 -140.75,149.469 -140.75,161.469 -140.75,161.469 -140.75,167.469 -134.75,173.469 -128.75,173.469 -128.75,173.469 -8.75032,173.469 -8.75032,173.469 -2.75032,173.469 3.24968,167.469 3.24968,161.469 3.24968,161.469 3.24968,149.469 3.24968,149.469 3.24968,143.469 -2.75032,137.469 -8.75032,137.469"/>
<text text-anchor="middle" x="-68.7503" y="157.969" font-family="sans bold" font-size="10.00" fill="#4a1486">192.0.2.10/31</text>
</g>
<!-- 192.0.2.7&#45;&#45;192.0.2.10/31 -->
<g id="edge5" class="edge"><title>192.0.2.7&#45;&#45;192.0.2.10/31</title>
<path fill="none" stroke="#6a51a3" stroke-width="4" d="M18.3917,205.755C-0.0253454,195.127 -20.6796,183.209 -37.256,173.643"/>
</g>
<!-- 192.0.2.9 -->
<g id="node4" class="node"><title>192.0.2.9</title>
<ellipse fill="#dadaeb" stroke="#6a51a3" stroke-width="2" cx="-92.4643" cy="-5.31435" rx="54" ry="54"/>
<text text-anchor="middle" x="-92.4643" y="-2.81435" font-family="sans bold" font-size="10.00" fill="#4a1486">192.0.2.9</text>
</g>
<!-- 192.0.2.4/31 -->
<g id="node7" class="node"><title>192.0.2.4/31</title>
<path fill="#f2f0f7" stroke="#6a51a3" stroke-width="2" d="M106.601,-13.7207C106.601,-13.7207 -13.3987,-13.7207 -13.3987,-13.7207 -19.3987,-13.7207 -25.3987,-7.72067 -25.3987,-1.72067 -25.3987,-1.72067 -25.3987,10.2793 -25.3987,10.2793 -25.3987,16.2793 -19.3987,22.2793 -13.3987,22.2793 -13.3987,22.2793 106.601,22.2793 106.601,22.2793 112.601,22.2793 118.601,16.2793 118.601,10.2793 118.601,10.2793 118.601,-1.72067 118.601,-1.72067 118.601,-7.72067 112.601,-13.7207 106.601,-13.7207"/>
<text text-anchor="middle" x="46.6013" y="6.77933" font-family="sans bold" font-size="10.00" fill="#4a1486">192.0.2.4/31</text>
</g>
<!-- 192.0.2.9&#45;&#45;192.0.2.4/31 -->
<g id="edge6" class="edge"><title>192.0.2.9&#45;&#45;192.0.2.4/31</title>
<path fill="none" stroke="#6a51a3" stroke-width="4" d="M-38.2997,-1.57771C-34.1814,-1.29361 -29.9874,-1.00428 -25.7795,-0.71399"/>
</g>
<!-- 192.0.2.9&#45;&#45;192.0.2.8/31 -->
<g id="edge7" class="edge"><title>192.0.2.9&#45;&#45;192.0.2.8/31</title>
<path fill="none" stroke="#6a51a3" stroke-width="4" d="M-77.9633,-57.335C-69.6992,-86.9813 -59.856,-122.293 -54.0107,-143.262"/>
</g>
<!-- 192.0.2.9&#45;&#45;192.0.2.10/31 -->
<g id="edge8" class="edge"><title>192.0.2.9&#45;&#45;192.0.2.10/31</title>
<path fill="none" stroke="#6a51a3" stroke-width="4" d="M-84.5679,48.2243C-80.0138,79.1011 -74.5792,115.949 -71.4112,137.428"/>
</g>
<!-- 192.0.2.9&#45;&#45;192.0.2.12/30 -->
<g id="edge9" class="edge"><title>192.0.2.9&#45;&#45;192.0.2.12/30</title>
<path fill="none" stroke="#6a51a3" stroke-width="4" d="M-146.507,-8.37657C-153.098,-8.75004 -159.911,-9.1361 -166.711,-9.52143"/>
</g>
<!-- 198.51.100.1 -->
<g id="node5" class="node"><title>198.51.100.1</title>
<ellipse fill="#dadaeb" stroke="#6a51a3" stroke-width="2" cx="193.507" cy="12.0737" rx="54" ry="54"/>
<text text-anchor="middle" x="193.507" y="14.5737" font-family="sans bold" font-size="10.00" fill="#4a1486">198.51.100.1</text>
</g>
<!-- 198.51.100.1&#45;&#45;192.0.2.2/31 -->
<g id="edge10" class="edge"><title>198.51.100.1&#45;&#45;192.0.2.2/31</title>
<path fill="none" stroke="#6a51a3" stroke-width="4" d="M203.798,-41.3055C209.014,-68.3646 215.012,-99.477 218.713,-118.677"/>
</g>
<!-- 198.51.100.1&#45;&#45;192.0.2.4/31 -->
<g id="edge11" class="edge"><title>198.51.100.1&#45;&#45;192.0.2.4/31</title>
<path fill="none" stroke="#6a51a3" stroke-width="4" d="M139.222,9.19349C132.52,8.83789 125.589,8.47015 118.674,8.10327"/>
</g>
<!-- 198.51.100.1&#45;&#45;192.0.2.6/31 -->
<g id="edge12" class="edge"><title>198.51.100.1&#45;&#45;192.0.2.6/31</title>
<path fill="none" stroke="#6a51a3" stroke-width="4" d="M197.375,66.3356C199.347,94.0119 201.617,125.86 203.006,145.347"/>
</g>
</g>
</svg>
