<?xml version="1.0" encoding="UTF-8" standalone="no"?>
<!DOCTYPE svg PUBLIC "-//W3C//DTD SVG 1.1//EN"
 "http://www.w3.org/Graphics/SVG/1.1/DTD/svg11.dtd">
<!-- Generated by graphviz version 2.38.0 (20140413.2041)
 -->
<!-- Title: G Pages: 1 -->
<svg width="429pt" height="389pt"
 viewBox="0.00 0.00 428.76 389.09" xmlns="http://www.w3.org/2000/svg" xmlns:xlink="http://www.w3.org/1999/xlink">
<g id="graph0" class="graph" transform="scale(1 1) rotate(0) translate(264.493 203.245)">
<title>G</title>
<polygon fill="white" stroke="none" points="-264.493,185.849 -264.493,-203.245 164.269,-203.245 164.269,185.849 -264.493,185.849"/>
<text text-anchor="middle" x="-163.993" y="-184.045" font-family="sans bold" font-size="14.00">1970&#45;01&#45;01 00:00:00Z</text>
<!-- 192.0.2.14 -->
<g id="node1" class="node"><title>192.0.2.14</title>
<ellipse fill="#dadaeb" stroke="#6a51a3" stroke-width="2" cx="-206.493" cy="-15.4779" rx="54" ry="54"/>
<text text-anchor="middle" x="-206.493" y="-12.9779" font-family="sans bold" font-size="10.00" fill="#4a1486">192.0.2.14</text>
</g>
<!-- 192.0.2.12/30 -->
<g id="node11" class="node"><title>192.0.2.12/30</title>
<ellipse fill="#f2f0f7" stroke="#6a51a3" stroke-width="2" cx="-131.096" cy="-7.46952" rx="9" ry="9"/>
</g>
<!-- 192.0.2.14&#45;&#45;192.0.2.12/30 -->
<g id="edge1" class="edge"><title>192.0.2.14&#45;&#45;192.0.2.12/30</title>
<path fill="none" stroke="#6a51a3" stroke-width="4" d="M-152.5,-9.74299C-147.968,-9.26162 -143.825,-8.82157 -140.417,-8.45955"/>
</g>
<!-- 192.0.2.3 -->
<g id="node2" class="node"><title>192.0.2.3</title>
<ellipse fill="#dadaeb" stroke="#6a51a3" stroke-width="2" cx="51.0393" cy="-122.245" rx="54" ry="54"/>
<text text-anchor="middle" x="51.0393" y="-119.745" font-family="sans bold" font-size="10.00" fill="#4a1486">192.0.2.3</text>
</g>
<!-- 192.0.2.2/31 -->
<g id="node6" class="node"><title>192.0.2.2/31</title>
<ellipse fill="#f2f0f7" stroke="#6a51a3" stroke-width="2" cx="122.046" cy="-75.2083" rx="9" ry="9"/>
</g>
<!-- 192.0.2.3&#45;&#45;192.0.2.2/31 -->
<g id="edge2" class="edge"><title>192.0.2.3&#45;&#45;192.0.2.2/31</title>
<path fill="none" stroke="#6a51a3" stroke-width="4" d="M96.4112,-92.1896C103.369,-87.5804 109.778,-83.335 114.447,-80.242"/>
</g>
<!-- 192.0.2.8/31 -->
<g id="node9" class="node"><title>192.0.2.8/31</title>
<ellipse fill="#f2f0f7" stroke="#6a51a3" stroke-width="2" cx="-26.8634" cy="-88.7134" rx="9" ry="9"/>
</g>
<!-- 192.0.2.3&#45;&#45;192.0.2.8/31 -->
<g id="edge3" class="edge"><title>192.0.2.3&#45;&#45;192.0.2.8/31</title>
<path fill="none" stroke="#6a51a3" stroke-width="4" d="M1.26127,-100.819C-6.37256,-97.5333 -13.4037,-94.5069 -18.5264,-92.3019"/>
</g>
<!-- 192.0.2.7 -->
<g id="node3" class="node"><title>192.0.2.7</title>
<ellipse fill="#dadaeb" stroke="#6a51a3" stroke-width="2" cx="35.8409" cy="127.849" rx="54" ry="54"/>
<text text-anchor="middle" x="35.8409" y="130.349" font-family="sans bold" font-size="10.00" fill="#4a1486">192.0.2.7</text>
</g>
<!-- 192.0.2.6/31 -->
<g id="node8" class="node"><title>192.0.2.6/31</title>
<ellipse fill="#f2f0f7" stroke="#6a51a3" stroke-width="2" cx="112.199" cy="89.8228" rx="9" ry="9"/>
</g>
<!-- 192.0.2.7&#45;&#45;192.0.2.6/31 -->
<g id="edge4" class="edge"><title>192.0.2.7&#45;&#45;192.0.2.6/31</title>
<path fill="none" stroke="#6a51a3" stroke-width="4" d="M84.1996,103.766C91.7764,99.9932 98.7763,96.5072 103.882,93.9646"/>
</g>
<!-- 192.0.2.10/31 -->
<g id="node10" class="node"><title>192.0.2.10/31</title>
<ellipse fill="#f2f0f7" stroke="#6a51a3" stroke-width="2" cx="-37.756" cy="85.38" rx="9" ry="9"/>
</g>
<!-- 192.0.2.7&#45;&#45;192.0.2.10/31 -->
<g id="edge5" class="edge"><title>192.0.2.7&#45;&#45;192.0.2.10/31</title>
<path fill="none" stroke="#6a51a3" stroke-width="4" d="M-11.1858,100.712C-18.3977,96.5507 -25.0403,92.7176 -29.8799,89.9249"/>
</g>
<!-- 192.0.2.9 -->
<g id="node4" class="node"><title>192.0.2.9</title>
<ellipse fill="#dadaeb" stroke="#6a51a3" stroke-width="2" cx="-50.7791" cy="-2.91851" rx="54" ry="54"/>
<text text-anchor="middle" x="-50.7791" y="-0.418513" font-family="sans bold" font-size="10.00" fill="#4a1486">192.0.2.9</text>
</g>
<!-- 192.0.2.4/31 -->
<g id="node7" class="node"><title>192.0.2.4/31</title>
<ellipse fill="#f2f0f7" stroke="#6a51a3" stroke-width="2" cx="25.5923" cy="2.3501" rx="9" ry="9"/>
</g>
<!-- 192.0.2.9&#45;&#45;192.0.2.4/31 -->
<g id="edge6" class="edge"><title>192.0.2.9&#45;&#45;192.0.2.4/31</title>
<path fill="none" stroke="#6a51a3" stroke-width="4" d="M3.50251,0.8262C8.36174,1.16142 12.7953,1.46728 16.3944,1.71557"/>
</g>
<!-- 192.0.2.9&#45;&#45;192.0.2.8/31 -->
<g id="edge7" class="edge"><title>192.0.2.9&#45;&#45;192.0.2.8/31</title>
<path fill="none" stroke="#6a51a3" stroke-width="4" d="M-36.1783,-55.2972C-33.5331,-64.7867 -31.0695,-73.6245 -29.3411,-79.8249"/>
</g>
<!-- 192.0.2.9&#45;&#45;192.0.2.10/31 -->
<g id="edge8" class="edge"><title>192.0.2.9&#45;&#45;192.0.2.10/31</title>
<path fill="none" stroke="#6a51a3" stroke-width="4" d="M-42.8657,50.7355C-41.3957,60.7026 -40.0257,69.9912 -39.0751,76.4365"/>
</g>
<!-- 192.0.2.9&#45;&#45;192.0.2.12/30 -->
<g id="edge9" class="edge"><title>192.0.2.9&#45;&#45;192.0.2.12/30</title>
<path fill="none" stroke="#6a51a3" stroke-width="4" d="M-104.797,-5.97935C-111.381,-6.35238 -117.397,-6.69332 -122.01,-6.95466"/>
</g>
<!-- 198.51.100.1 -->
<g id="node5" class="node"><title>198.51.100.1</title>
<ellipse fill="#dadaeb" stroke="#6a51a3" stroke-width="2" cx="106.269" cy="6.63057" rx="54" ry="54"/>
<text text-anchor="middle" x="106.269" y="9.13057" font-family="sans bold" font-size="10.00" fill="#4a1486">198.51.100.1</text>
</g>
<!-- 198.51.100.1&#45;&#45;192.0.2.2/31 -->
<g id="edge10" class="edge"><title>198.51.100.1&#45;&#45;192.0.2.2/31</title>
<path fill="none" stroke="#6a51a3" stroke-width="4" d="M116.528,-46.585C117.988,-54.1563 119.328,-61.1085 120.322,-66.265"/>
</g>
<!-- 198.51.100.1&#45;&#45;192.0.2.4/31 -->
<g id="edge11" class="edge"><title>198.51.100.1&#45;&#45;192.0.2.4/31</title>
<path fill="none" stroke="#6a51a3" stroke-width="4" d="M52.009,3.75169C45.3962,3.40083 39.3523,3.08016 34.7195,2.83436"/>
</g>
<!-- 198.51.100.1&#45;&#45;192.0.2.6/31 -->
<g id="edge12" class="edge"><title>198.51.100.1&#45;&#45;192.0.2.6/31</title>
<path fill="none" stroke="#6a51a3" stroke-width="4" d="M110.125,60.7262C110.674,68.4227 111.177,75.4898 111.551,80.7315"/>
</g>
</g>
</svg>
