<?xml version="1.0" encoding="UTF-8" standalone="no"?>
<!DOCTYPE svg PUBLIC "-//W3C//DTD SVG 1.1//EN"
 "http://www.w3.org/Graphics/SVG/1.1/DTD/svg11.dtd">
<!-- Generated by graphviz version 2.38.0 (20140413.2041)
 -->
<!-- Title: G Pages: 1 -->
<svg width="1496pt" height="1685pt"
 viewBox="0.00 0.00 1496.00 1684.50" xmlns="http://www.w3.org/2000/svg" xmlns:xlink="http://www.w3.org/1999/xlink">
<g id="graph0" class="graph" transform="scale(1 1) rotate(0) translate(4 1680.5)">
<title>G</title>
<polygon fill="white" stroke="none" points="-4,4 -4,-1680.5 1492,-1680.5 1492,4 -4,4"/>
<text text-anchor="middle" x="96.5" y="-1661.3" font-family="sans bold" font-size="14.00">1970&#45;01&#45;01 00:00:00Z</text>
<!-- 192.0.2.3&#45;&gt;192.0.2.7 -->
<g id="edge1" class="edge"><title>192.0.2.3&#45;&gt;192.0.2.7:w</title>
<path fill="none" stroke="#bcbddc" stroke-width="2" d="M180.276,-702C247.252,-702 327,-702 327,-702"/>
<text text-anchor="middle" x="302" y="-699.5" font-family="sans bold" font-size="10.00" fill="#4a1486">Gi1/24</text>
<text text-anchor="middle" x="205.276" y="-699.5" font-family="sans bold" font-size="10.00" fill="#4a1486">Gi1/1</text>
</g>
<!-- 192.0.2.7&#45;&gt;192.0.2.10 -->
<g id="edge2" class="edge"><title>192.0.2.7&#45;&gt;192.0.2.10:w</title>
<path fill="none" stroke="#bcbddc" stroke-width="2" d="M363,-1386.18C363,-1531.97 363,-1643 363,-1643 363,-1643 654,-1643 654,-1643"/>
<text text-anchor="middle" x="629" y="-1640.5" font-family="sans bold" font-size="10.00" fill="#4a1486">Gi1/24</text>
<text text-anchor="middle" x="363" y="-1408.68" font-family="sans bold" font-size="10.00" fill="#4a1486">Gi1/1</text>
</g>
<!-- 192.0.2.7&#45;&gt;192.0.2.20 -->
<g id="edge3" class="edge"><title>192.0.2.7&#45;&gt;192.0.2.20:w</title>
<path fill="none" stroke="#bcbddc" stroke-width="2" d="M399,-1386.23C399,-1511.74 399,-1604 399,-1604 399,-1604 654,-1604 654,-1604"/>
<text text-anchor="middle" x="629" y="-1601.5" font-family="sans bold" font-size="10.00" fill="#4a1486">Gi1/24</text>
<text text-anchor="middle" x="399" y="-1408.73" font-family="sans bold" font-size="10.00" fill="#4a1486">Gi1/2</text>
</g>
<!-- 192.0.2.7&#45;&gt;192.0.2.30 -->
<g id="edge4" class="edge"><title>192.0.2.7&#45;&gt;192.0.2.30:w</title>
<path fill="none" stroke="#bcbddc" stroke-width="2" d="M435,-1386.19C435,-1490.93 435,-1565 435,-1565 435,-1565 654,-1565 654,-1565"/>
<text text-anchor="middle" x="629" y="-1562.5" font-family="sans bold" font-size="10.00" fill="#4a1486">Gi1/24</text>
<text text-anchor="middle" x="435" y="-1408.69" font-family="sans bold" font-size="10.00" fill="#4a1486">Gi1/3</text>
</g>
<!-- 192.0.2.7&#45;&gt;192.0.2.40 -->
<g id="edge5" class="edge"><title>192.0.2.7&#45;&gt;192.0.2.40:w</title>
<path fill="none" stroke="#bcbddc" stroke-width="2" d="M471,-1386.22C471,-1469.56 471,-1526 471,-1526 471,-1526 654,-1526 654,-1526"/>
<text text-anchor="middle" x="629" y="-1523.5" font-family="sans bold" font-size="10.00" fill="#4a1486">Gi1/24</text>
<text text-anchor="middle" x="471" y="-1408.72" font-family="sans bold" font-size="10.00" fill="#4a1486">Gi1/4</text>
</g>
<!-- 192.0.2.7&#45;&gt;192.0.2.50 -->
<g id="edge6" class="edge"><title>192.0.2.7&#45;&gt;192.0.2.50:w</title>
<path fill="none" stroke="#bcbddc" stroke-width="2" d="M507.276,-1279.5C574.252,-1279.5 654,-1279.5 654,-1279.5"/>
<text text-anchor="middle" x="629" y="-1277" font-family="sans bold" font-size="10.00" fill="#4a1486">Gi1/24</text>
<text text-anchor="middle" x="532.276" y="-1277" font-family="sans bold" font-size="10.00" fill="#4a1486">Gi1/5</text>
</g>
<!-- 192.0.2.7&#45;&gt;192.0.2.60 -->
<g id="edge7" class="edge"><title>192.0.2.7&#45;&gt;192.0.2.60:w</title>
<path fill="none" stroke="#bcbddc" stroke-width="2" d="M507.276,-1144C574.252,-1144 654,-1144 654,-1144"/>
<text text-anchor="middle" x="629" y="-1141.5" font-family="sans bold" font-size="10.00" fill="#4a1486">Gi1/24</text>
<text text-anchor="middle" x="532.276" y="-1141.5" font-family="sans bold" font-size="10.00" fill="#4a1486">Gi1/6</text>
</g>
<!-- 192.0.2.7&#45;&gt;192.0.2.70 -->
<g id="edge8" class="edge"><title>192.0.2.7&#45;&gt;192.0.2.70:w</title>
<path fill="none" stroke="#bcbddc" stroke-width="2" d="M507.276,-1105C574.252,-1105 654,-1105 654,-1105"/>
<text text-anchor="middle" x="629" y="-1102.5" font-family="sans bold" font-size="10.00" fill="#4a1486">Gi1/24</text>
<text text-anchor="middle" x="532.276" y="-1102.5" font-family="sans bold" font-size="10.00" fill="#4a1486">Gi1/7</text>
</g>
<!-- 192.0.2.7&#45;&gt;192.0.2.80 -->
<g id="edge9" class="edge"><title>192.0.2.7&#45;&gt;192.0.2.80:w</title>
<path fill="none" stroke="#bcbddc" stroke-width="2" d="M507.276,-1066C574.252,-1066 654,-1066 654,-1066"/>
<text text-anchor="middle" x="629" y="-1063.5" font-family="sans bold" font-size="10.00" fill="#4a1486">Gi1/24</text>
<text text-anchor="middle" x="532.276" y="-1063.5" font-family="sans bold" font-size="10.00" fill="#4a1486">Gi1/8</text>
</g>
<!-- 192.0.2.7&#45;&gt;192.0.2.90 -->
<g id="edge10" class="edge"><title>192.0.2.7&#45;&gt;192.0.2.90:w</title>
<path fill="none" stroke="#bcbddc" stroke-width="2" d="M507.276,-1027C574.252,-1027 654,-1027 654,-1027"/>
<text text-anchor="middle" x="629" y="-1024.5" font-family="sans bold" font-size="10.00" fill="#4a1486">Gi1/24</text>
<text text-anchor="middle" x="532.276" y="-1024.5" font-family="sans bold" font-size="10.00" fill="#4a1486">Gi1/9</text>
</g>
<!-- 192.0.2.7&#45;&gt;192.0.2.100 -->
<g id="edge11" class="edge"><title>192.0.2.7&#45;&gt;192.0.2.100:w</title>
<path fill="none" stroke="#bcbddc" stroke-width="2" d="M507.276,-836C574.252,-836 654,-836 654,-836"/>
<text text-anchor="middle" x="629" y="-833.5" font-family="sans bold" font-size="10.00" fill="#4a1486">Gi1/24</text>
<text text-anchor="middle" x="532.276" y="-833.5" font-family="sans bold" font-size="10.00" fill="#4a1486">Gi1/10</text>
</g>
<!-- 192.0.2.7&#45;&gt;192.0.2.110 -->
<g id="edge12" class="edge"><title>192.0.2.7&#45;&gt;192.0.2.110:w</title>
<path fill="none" stroke="#bcbddc" stroke-width="2" d="M507.276,-645C574.252,-645 654,-645 654,-645"/>
<text text-anchor="middle" x="629" y="-642.5" font-family="sans bold" font-size="10.00" fill="#4a1486">Gi1/24</text>
<text text-anchor="middle" x="532.276" y="-642.5" font-family="sans bold" font-size="10.00" fill="#4a1486">Gi1/11</text>
</g>
<!-- 192.0.2.7&#45;&gt;192.0.2.120 -->
<g id="edge13" class="edge"><title>192.0.2.7&#45;&gt;192.0.2.120:w</title>
<path fill="none" stroke="#bcbddc" stroke-width="2" d="M507.276,-606C574.252,-606 654,-606 654,-606"/>
<text text-anchor="middle" x="629" y="-603.5" font-family="sans bold" font-size="10.00" fill="#4a1486">Gi1/24</text>
<text text-anchor="middle" x="532.276" y="-603.5" font-family="sans bold" font-size="10.00" fill="#4a1486">Gi1/12</text>
</g>
<!-- 192.0.2.7&#45;&gt;192.0.2.130 -->
<g id="edge14" class="edge"><title>192.0.2.7&#45;&gt;192.0.2.130:w</title>
<path fill="none" stroke="#bcbddc" stroke-width="2" d="M507.276,-567C574.252,-567 654,-567 654,-567"/>
<text text-anchor="middle" x="629" y="-564.5" font-family="sans bold" font-size="10.00" fill="#4a1486">Gi1/24</text>
<text text-anchor="middle" x="532.276" y="-564.5" font-family="sans bold" font-size="10.00" fill="#4a1486">Gi1/13</text>
</g>
<!-- 192.0.2.7&#45;&gt;192.0.2.140 -->
<g id="edge15" class="edge"><title>192.0.2.7&#45;&gt;192.0.2.140:w</title>
<path fill="none" stroke="#bcbddc" stroke-width="2" d="M507.276,-528C574.252,-528 654,-528 654,-528"/>
<text text-anchor="middle" x="629" y="-525.5" font-family="sans bold" font-size="10.00" fill="#4a1486">Gi1/24</text>
<text text-anchor="middle" x="532.276" y="-525.5" font-family="sans bold" font-size="10.00" fill="#4a1486">Gi1/14</text>
</g>
<!-- 192.0.2.7&#45;&gt;192.0.2.150 -->
<g id="edge16" class="edge"><title>192.0.2.7&#45;&gt;192.0.2.150:w</title>
<path fill="none" stroke="#bcbddc" stroke-width="2" d="M507.276,-489C574.252,-489 654,-489 654,-489"/>
<text text-anchor="middle" x="629" y="-486.5" font-family="sans bold" font-size="10.00" fill="#4a1486">Gi1/24</text>
<text text-anchor="middle" x="532.276" y="-486.5" font-family="sans bold" font-size="10.00" fill="#4a1486">Gi1/15</text>
</g>
<!-- 192.0.2.7&#45;&gt;192.0.2.160 -->
<g id="edge17" class="edge"><title>192.0.2.7&#45;&gt;192.0.2.160:w</title>
<path fill="none" stroke="#bcbddc" stroke-width="2" d="M507.276,-450C574.252,-450 654,-450 654,-450"/>
<text text-anchor="middle" x="629" y="-447.5" font-family="sans bold" font-size="10.00" fill="#4a1486">Gi1/24</text>
<text text-anchor="middle" x="532.276" y="-447.5" font-family="sans bold" font-size="10.00" fill="#4a1486">Gi1/16</text>
</g>
<!-- 192.0.2.7&#45;&gt;192.0.2.170 -->
<g id="edge18" class="edge"><title>192.0.2.7&#45;&gt;192.0.2.170:w</title>
<path fill="none" stroke="#bcbddc" stroke-width="2" d="M507.276,-411C574.252,-411 654,-411 654,-411"/>
<text text-anchor="middle" x="629" y="-408.5" font-family="sans bold" font-size="10.00" fill="#4a1486">Gi1/24</text>
<text text-anchor="middle" x="532.276" y="-408.5" font-family="sans bold" font-size="10.00" fill="#4a1486">Gi1/17</text>
</g>
<!-- 192.0.2.7&#45;&gt;192.0.2.180 -->
<g id="edge19" class="edge"><title>192.0.2.7&#45;&gt;192.0.2.180:w</title>
<path fill="none" stroke="#bcbddc" stroke-width="2" d="M507.276,-372C574.252,-372 654,-372 654,-372"/>
<text text-anchor="middle" x="629" y="-369.5" font-family="sans bold" font-size="10.00" fill="#4a1486">Gi1/24</text>
<text text-anchor="middle" x="532.276" y="-369.5" font-family="sans bold" font-size="10.00" fill="#4a1486">Gi1/18</text>
</g>
<!-- 192.0.2.7&#45;&gt;192.0.2.190 -->
<g id="edge20" class="edge"><title>192.0.2.7&#45;&gt;192.0.2.190:w</title>
<path fill="none" stroke="#bcbddc" stroke-width="2" d="M507.276,-333C574.252,-333 654,-333 654,-333"/>
<text text-anchor="middle" x="629" y="-330.5" font-family="sans bold" font-size="10.00" fill="#4a1486">Gi1/24</text>
<text text-anchor="middle" x="532.276" y="-330.5" font-family="sans bold" font-size="10.00" fill="#4a1486">Gi1/19</text>
</g>
<!-- 192.0.2.7&#45;&gt;192.0.2.200 -->
<g id="edge21" class="edge"><title>192.0.2.7&#45;&gt;192.0.2.200:w</title>
<path fill="none" stroke="#bcbddc" stroke-width="2" d="M507.276,-294C574.252,-294 654,-294 654,-294"/>
<text text-anchor="middle" x="629" y="-291.5" font-family="sans bold" font-size="10.00" fill="#4a1486">Gi1/24</text>
<text text-anchor="middle" x="532.276" y="-291.5" font-family="sans bold" font-size="10.00" fill="#4a1486">Gi1/20</text>
</g>
<!-- 192.0.2.50&#45;&gt;192.0.2.51 -->
<g id="edge22" class="edge"><title>192.0.2.50&#45;&gt;192.0.2.51:w</title>
<path fill="none" stroke="#bcbddc" stroke-width="2" d="M834.276,-1413C901.252,-1413 981,-1413 981,-1413"/>
<text text-anchor="middle" x="956" y="-1410.5" font-family="sans bold" font-size="10.00" fill="#4a1486">Gi1/24</text>
<text text-anchor="middle" x="859.276" y="-1410.5" font-family="sans bold" font-size="10.00" fill="#4a1486">Gi1/1</text>
</g>
<!-- 192.0.2.50&#45;&gt;192.0.2.52 -->
<g id="edge23" class="edge"><title>192.0.2.50&#45;&gt;192.0.2.52:w</title>
<path fill="none" stroke="#bcbddc" stroke-width="2" d="M834.276,-1374C901.252,-1374 981,-1374 981,-1374"/>
<text text-anchor="middle" x="956" y="-1371.5" font-family="sans bold" font-size="10.00" fill="#4a1486">Gi1/24</text>
<text text-anchor="middle" x="859.276" y="-1371.5" font-family="sans bold" font-size="10.00" fill="#4a1486">Gi1/2</text>
</g>
<!-- 192.0.2.50&#45;&gt;192.0.2.53 -->
<g id="edge24" class="edge"><title>192.0.2.50&#45;&gt;192.0.2.53:w</title>
<path fill="none" stroke="#bcbddc" stroke-width="2" d="M834.276,-1335C901.252,-1335 981,-1335 981,-1335"/>
<text text-anchor="middle" x="956" y="-1332.5" font-family="sans bold" font-size="10.00" fill="#4a1486">Gi1/24</text>
<text text-anchor="middle" x="859.276" y="-1332.5" font-family="sans bold" font-size="10.00" fill="#4a1486">Gi1/3</text>
</g>
<!-- 192.0.2.50&#45;&gt;192.0.2.54 -->
<g id="edge25" class="edge"><title>192.0.2.50&#45;&gt;192.0.2.54:w</title>
<path fill="none" stroke="#bcbddc" stroke-width="2" d="M834.276,-1296C901.252,-1296 981,-1296 981,-1296"/>
<text text-anchor="middle" x="956" y="-1293.5" font-family="sans bold" font-size="10.00" fill="#4a1486">Gi1/24</text>
<text text-anchor="middle" x="859.276" y="-1293.5" font-family="sans bold" font-size="10.00" fill="#4a1486">Gi1/4</text>
</g>
<!-- 192.0.2.50&#45;&gt;192.0.2.55 -->
<g id="edge26" class="edge"><title>192.0.2.50&#45;&gt;192.0.2.55:w</title>
<path fill="none" stroke="#bcbddc" stroke-width="2" d="M834.276,-1220C901.252,-1220 981,-1220 981,-1220"/>
<text text-anchor="middle" x="956" y="-1217.5" font-family="sans bold" font-size="10.00" fill="#4a1486">Gi1/24</text>
<text text-anchor="middle" x="859.276" y="-1217.5" font-family="sans bold" font-size="10.00" fill="#4a1486">Gi1/5</text>
</g>
<!-- 192.0.2.55&#45;&gt;192.0.2.56 -->
<g id="edge27" class="edge"><title>192.0.2.55&#45;&gt;192.0.2.56:w</title>
<path fill="none" stroke="#bcbddc" stroke-width="2" d="M1161.28,-1254C1228.25,-1254 1308,-1254 1308,-1254"/>
<text text-anchor="middle" x="1283" y="-1251.5" font-family="sans bold" font-size="10.00" fill="#4a1486">Gi1/24</text>
<text text-anchor="middle" x="1186.28" y="-1251.5" font-family="sans bold" font-size="10.00" fill="#4a1486">Gi1/1</text>
</g>
<!-- 192.0.2.55&#45;&gt;192.0.2.57 -->
<g id="edge28" class="edge"><title>192.0.2.55&#45;&gt;192.0.2.57:w</title>
<path fill="none" stroke="#bcbddc" stroke-width="2" d="M1161.28,-1215C1228.25,-1215 1308,-1215 1308,-1215"/>
<text text-anchor="middle" x="1283" y="-1212.5" font-family="sans bold" font-size="10.00" fill="#4a1486">Gi1/24</text>
<text text-anchor="middle" x="1186.28" y="-1212.5" font-family="sans bold" font-size="10.00" fill="#4a1486">Gi1/2</text>
</g>
<!-- 192.0.2.55&#45;&gt;192.0.2.58 -->
<g id="edge29" class="edge"><title>192.0.2.55&#45;&gt;192.0.2.58:w</title>
<path fill="none" stroke="#bcbddc" stroke-width="2" d="M1161.28,-1176C1228.25,-1176 1308,-1176 1308,-1176"/>
<text text-anchor="middle" x="1283" y="-1173.5" font-family="sans bold" font-size="10.00" fill="#4a1486">Gi1/24</text>
<text text-anchor="middle" x="1186.28" y="-1173.5" font-family="sans bold" font-size="10.00" fill="#4a1486">Gi1/3</text>
</g>
<!-- 192.0.2.55&#45;&gt;192.0.2.59 -->
<g id="edge30" class="edge"><title>192.0.2.55&#45;&gt;192.0.2.59:w</title>
<path fill="none" stroke="#bcbddc" stroke-width="2" d="M1161.28,-1137C1228.25,-1137 1308,-1137 1308,-1137"/>
<text text-anchor="middle" x="1283" y="-1134.5" font-family="sans bold" font-size="10.00" fill="#4a1486">Gi1/24</text>
<text text-anchor="middle" x="1186.28" y="-1134.5" font-family="sans bold" font-size="10.00" fill="#4a1486">Gi1/4</text>
</g>
<!-- 192.0.2.100&#45;&gt;192.0.2.101 -->
<g id="edge31" class="edge"><title>192.0.2.100&#45;&gt;192.0.2.101:w</title>
<path fill="none" stroke="#bcbddc" stroke-width="2" d="M834.276,-989.75C901.252,-989.75 981,-989.75 981,-989.75"/>
<text text-anchor="middle" x="956" y="-987.25" font-family="sans bold" font-size="10.00" fill="#4a1486">Gi1/24</text>
<text text-anchor="middle" x="859.276" y="-987.25" font-family="sans bold" font-size="10.00" fill="#4a1486">Gi1/1</text>
</g>
<!-- 192.0.2.100&#45;&gt;192.0.2.102 -->
<g id="edge32" class="edge"><title>192.0.2.100&#45;&gt;192.0.2.102:w</title>
<path fill="none" stroke="#bcbddc" stroke-width="2" d="M834.276,-953C901.252,-953 981,-953 981,-953"/>
<text text-anchor="middle" x="956" y="-950.5" font-family="sans bold" font-size="10.00" fill="#4a1486">Gi1/24</text>
<text text-anchor="middle" x="859.276" y="-950.5" font-family="sans bold" font-size="10.00" fill="#4a1486">Gi1/2</text>
</g>
<!-- 192.0.2.100&#45;&gt;192.0.2.103 -->
<g id="edge33" class="edge"><title>192.0.2.100&#45;&gt;192.0.2.103:w</title>
<path fill="none" stroke="#bcbddc" stroke-width="2" d="M834.276,-914C901.252,-914 981,-914 981,-914"/>
<text text-anchor="middle" x="956" y="-911.5" font-family="sans bold" font-size="10.00" fill="#4a1486">Gi1/24</text>
<text text-anchor="middle" x="859.276" y="-911.5" font-family="sans bold" font-size="10.00" fill="#4a1486">Gi1/3</text>
</g>
<!-- 192.0.2.100&#45;&gt;192.0.2.104 -->
<g id="edge34" class="edge"><title>192.0.2.100&#45;&gt;192.0.2.104:w</title>
<path fill="none" stroke="#bcbddc" stroke-width="2" d="M834.276,-875C901.252,-875 981,-875 981,-875"/>
<text text-anchor="middle" x="956" y="-872.5" font-family="sans bold" font-size="10.00" fill="#4a1486">Gi1/24</text>
<text text-anchor="middle" x="859.276" y="-872.5" font-family="sans bold" font-size="10.00" fill="#4a1486">Gi1/4</text>
</g>
<!-- 192.0.2.100&#45;&gt;192.0.2.105 -->
<g id="edge35" class="edge"><title>192.0.2.100&#45;&gt;192.0.2.105:w</title>
<path fill="none" stroke="#bcbddc" stroke-width="2" d="M834.276,-836C901.252,-836 981,-836 981,-836"/>
<text text-anchor="middle" x="956" y="-833.5" font-family="sans bold" font-size="10.00" fill="#4a1486">Gi1/24</text>
<text text-anchor="middle" x="859.276" y="-833.5" font-family="sans bold" font-size="10.00" fill="#4a1486">Gi1/5</text>
</g>
<!-- 192.0.2.100&#45;&gt;192.0.2.106 -->
<g id="edge36" class="edge"><title>192.0.2.100&#45;&gt;192.0.2.106:w</title>
<path fill="none" stroke="#bcbddc" stroke-width="2" d="M834.276,-797C901.252,-797 981,-797 981,-797"/>
<text text-anchor="middle" x="956" y="-794.5" font-family="sans bold" font-size="10.00" fill="#4a1486">Gi1/24</text>
<text text-anchor="middle" x="859.276" y="-794.5" font-family="sans bold" font-size="10.00" fill="#4a1486">Gi1/6</text>
</g>
<!-- 192.0.2.100&#45;&gt;192.0.2.107 -->
<g id="edge37" class="edge"><title>192.0.2.100&#45;&gt;192.0.2.107:w</title>
<path fill="none" stroke="#bcbddc" stroke-width="2" d="M834.276,-758C901.252,-758 981,-758 981,-758"/>
<text text-anchor="middle" x="956" y="-755.5" font-family="sans bold" font-size="10.00" fill="#4a1486">Gi1/24</text>
<text text-anchor="middle" x="859.276" y="-755.5" font-family="sans bold" font-size="10.00" fill="#4a1486">Gi1/7</text>
</g>
<!-- 192.0.2.100&#45;&gt;192.0.2.108 -->
<g id="edge38" class="edge"><title>192.0.2.100&#45;&gt;192.0.2.108:w</title>
<path fill="none" stroke="#bcbddc" stroke-width="2" d="M834.276,-719C901.252,-719 981,-719 981,-719"/>
<text text-anchor="middle" x="956" y="-716.5" font-family="sans bold" font-size="10.00" fill="#4a1486">Gi1/24</text>
<text text-anchor="middle" x="859.276" y="-716.5" font-family="sans bold" font-size="10.00" fill="#4a1486">Gi1/8</text>
</g>
<!-- 192.0.2.100&#45;&gt;192.0.2.109 -->
<g id="edge39" class="edge"><title>192.0.2.100&#45;&gt;192.0.2.109:w</title>
<path fill="none" stroke="#bcbddc" stroke-width="2" d="M834.276,-682.25C901.252,-682.25 981,-682.25 981,-682.25"/>
<text text-anchor="middle" x="956" y="-679.75" font-family="sans bold" font-size="10.00" fill="#4a1486">Gi1/24</text>
<text text-anchor="middle" x="859.276" y="-679.75" font-family="sans bold" font-size="10.00" fill="#4a1486">Gi1/9</text>
</g>
<!-- 192.0.2.3 -->
<g id="node1" class="node"><title>192.0.2.3</title>
<path fill="#dadaeb" stroke="#4a1486" stroke-width="2" d="M168,-1404C168,-1404 12,-1404 12,-1404 6,-1404 0,-1398 0,-1392 0,-1392 0,-12 0,-12 0,-6 6,-0 12,-0 12,-0 168,-0 168,-0 174,-0 180,-6 180,-12 180,-12 180,-1392 180,-1392 180,-1398 174,-1404 168,-1404"/>
<text text-anchor="middle" x="90" y="-698.9" font-family="sans bold" font-size="12.00" fill="#4a1486">192.0.2.3</text>
</g>
<!-- 192.0.2.7 -->
<g id="node2" class="node"><title>192.0.2.7</title>
<path fill="#dadaeb" stroke="#4a1486" stroke-width="2" d="M495,-1386C495,-1386 339,-1386 339,-1386 333,-1386 327,-1380 327,-1374 327,-1374 327,-30 327,-30 327,-24 333,-18 339,-18 339,-18 495,-18 495,-18 501,-18 507,-24 507,-30 507,-30 507,-1374 507,-1374 507,-1380 501,-1386 495,-1386"/>
<text text-anchor="middle" x="417" y="-698.9" font-family="sans bold" font-size="12.00" fill="#4a1486">192.0.2.7</text>
</g>
<!-- 192.0.2.10 -->
<g id="node3" class="node"><title>192.0.2.10</title>
<path fill="#dadaeb" stroke="#4a1486" stroke-width="2" d="M827,-1653.5C827,-1653.5 661,-1653.5 661,-1653.5 657.5,-1653.5 654,-1650 654,-1646.5 654,-1646.5 654,-1639.5 654,-1639.5 654,-1636 657.5,-1632.5 661,-1632.5 661,-1632.5 827,-1632.5 827,-1632.5 830.5,-1632.5 834,-1636 834,-1639.5 834,-1639.5 834,-1646.5 834,-1646.5 834,-1650 830.5,-1653.5 827,-1653.5"/>
<text text-anchor="middle" x="744" y="-1639.9" font-family="sans bold" font-size="12.00" fill="#4a1486">192.0.2.10</text>
</g>
<!-- 192.0.2.20 -->
<g id="node4" class="node"><title>192.0.2.20</title>
<path fill="#dadaeb" stroke="#4a1486" stroke-width="2" d="M827,-1614.5C827,-1614.5 661,-1614.5 661,-1614.5 657.5,-1614.5 654,-1611 654,-1607.5 654,-1607.5 654,-1600.5 654,-1600.5 654,-1597 657.5,-1593.5 661,-1593.5 661,-1593.5 827,-1593.5 827,-1593.5 830.5,-1593.5 834,-1597 834,-1600.5 834,-1600.5 834,-1607.5 834,-1607.5 834,-1611 830.5,-1614.5 827,-1614.5"/>
<text text-anchor="middle" x="744" y="-1600.9" font-family="sans bold" font-size="12.00" fill="#4a1486">192.0.2.20</text>
</g>
<!-- 192.0.2.30 -->
<g id="node5" class="node"><title>192.0.2.30</title>
<path fill="#dadaeb" stroke="#4a1486" stroke-width="2" d="M827,-1575.5C827,-1575.5 661,-1575.5 661,-1575.5 657.5,-1575.5 654,-1572 654,-1568.5 654,-1568.5 654,-1561.5 654,-1561.5 654,-1558 657.5,-1554.5 661,-1554.5 661,-1554.5 827,-1554.5 827,-1554.5 830.5,-1554.5 834,-1558 834,-1561.5 834,-1561.5 834,-1568.5 834,-1568.5 834,-1572 830.5,-1575.5 827,-1575.5"/>
<text text-anchor="middle" x="744" y="-1561.9" font-family="sans bold" font-size="12.00" fill="#4a1486">192.0.2.30</text>
</g>
<!-- 192.0.2.40 -->
<g id="node6" class="node"><title>192.0.2.40</title>
<path fill="#dadaeb" stroke="#4a1486" stroke-width="2" d="M827,-1536.5C827,-1536.5 661,-1536.5 661,-1536.5 657.5,-1536.5 654,-1533 654,-1529.5 654,-1529.5 654,-1522.5 654,-1522.5 654,-1519 657.5,-1515.5 661,-1515.5 661,-1515.5 827,-1515.5 827,-1515.5 830.5,-1515.5 834,-1519 834,-1522.5 834,-1522.5 834,-1529.5 834,-1529.5 834,-1533 830.5,-1536.5 827,-1536.5"/>
<text text-anchor="middle" x="744" y="-1522.9" font-family="sans bold" font-size="12.00" fill="#4a1486">192.0.2.40</text>
</g>
<!-- 192.0.2.50 -->
<g id="node7" class="node"><title>192.0.2.50</title>
<path fill="#dadaeb" stroke="#4a1486" stroke-width="2" d="M822,-1497C822,-1497 666,-1497 666,-1497 660,-1497 654,-1491 654,-1485 654,-1485 654,-1185 654,-1185 654,-1179 660,-1173 666,-1173 666,-1173 822,-1173 822,-1173 828,-1173 834,-1179 834,-1185 834,-1185 834,-1485 834,-1485 834,-1491 828,-1497 822,-1497"/>
<text text-anchor="middle" x="744" y="-1331.9" font-family="sans bold" font-size="12.00" fill="#4a1486">192.0.2.50</text>
</g>
<!-- 192.0.2.51 -->
<g id="node8" class="node"><title>192.0.2.51</title>
<path fill="#dadaeb" stroke="#4a1486" stroke-width="2" d="M1154,-1423.5C1154,-1423.5 988,-1423.5 988,-1423.5 984.5,-1423.5 981,-1420 981,-1416.5 981,-1416.5 981,-1409.5 981,-1409.5 981,-1406 984.5,-1402.5 988,-1402.5 988,-1402.5 1154,-1402.5 1154,-1402.5 1157.5,-1402.5 1161,-1406 1161,-1409.5 1161,-1409.5 1161,-1416.5 1161,-1416.5 1161,-1420 1157.5,-1423.5 1154,-1423.5"/>
<text text-anchor="middle" x="1071" y="-1409.9" font-family="sans bold" font-size="12.00" fill="#4a1486">192.0.2.51</text>
</g>
<!-- 192.0.2.52 -->
<g id="node9" class="node"><title>192.0.2.52</title>
<path fill="#dadaeb" stroke="#4a1486" stroke-width="2" d="M1154,-1384.5C1154,-1384.5 988,-1384.5 988,-1384.5 984.5,-1384.5 981,-1381 981,-1377.5 981,-1377.5 981,-1370.5 981,-1370.5 981,-1367 984.5,-1363.5 988,-1363.5 988,-1363.5 1154,-1363.5 1154,-1363.5 1157.5,-1363.5 1161,-1367 1161,-1370.5 1161,-1370.5 1161,-1377.5 1161,-1377.5 1161,-1381 1157.5,-1384.5 1154,-1384.5"/>
<text text-anchor="middle" x="1071" y="-1370.9" font-family="sans bold" font-size="12.00" fill="#4a1486">192.0.2.52</text>
</g>
<!-- 192.0.2.53 -->
<g id="node10" class="node"><title>192.0.2.53</title>
<path fill="#dadaeb" stroke="#4a1486" stroke-width="2" d="M1154,-1345.5C1154,-1345.5 988,-1345.5 988,-1345.5 984.5,-1345.5 981,-1342 981,-1338.5 981,-1338.5 981,-1331.5 981,-1331.5 981,-1328 984.5,-1324.5 988,-1324.5 988,-1324.5 1154,-1324.5 1154,-1324.5 1157.5,-1324.5 1161,-1328 1161,-1331.5 1161,-1331.5 1161,-1338.5 1161,-1338.5 1161,-1342 1157.5,-1345.5 1154,-1345.5"/>
<text text-anchor="middle" x="1071" y="-1331.9" font-family="sans bold" font-size="12.00" fill="#4a1486">192.0.2.53</text>
</g>
<!-- 192.0.2.54 -->
<g id="node11" class="node"><title>192.0.2.54</title>
<path fill="#dadaeb" stroke="#4a1486" stroke-width="2" d="M1154,-1306.5C1154,-1306.5 988,-1306.5 988,-1306.5 984.5,-1306.5 981,-1303 981,-1299.5 981,-1299.5 981,-1292.5 981,-1292.5 981,-1289 984.5,-1285.5 988,-1285.5 988,-1285.5 1154,-1285.5 1154,-1285.5 1157.5,-1285.5 1161,-1289 1161,-1292.5 1161,-1292.5 1161,-1299.5 1161,-1299.5 1161,-1303 1157.5,-1306.5 1154,-1306.5"/>
<text text-anchor="middle" x="1071" y="-1292.9" font-family="sans bold" font-size="12.00" fill="#4a1486">192.0.2.54</text>
</g>
<!-- 192.0.2.55 -->
<g id="node12" class="node"><title>192.0.2.55</title>
<path fill="#dadaeb" stroke="#4a1486" stroke-width="2" d="M1149,-1267C1149,-1267 993,-1267 993,-1267 987,-1267 981,-1261 981,-1255 981,-1255 981,-1135 981,-1135 981,-1129 987,-1123 993,-1123 993,-1123 1149,-1123 1149,-1123 1155,-1123 1161,-1129 1161,-1135 1161,-1135 1161,-1255 1161,-1255 1161,-1261 1155,-1267 1149,-1267"/>
<text text-anchor="middle" x="1071" y="-1191.9" font-family="sans bold" font-size="12.00" fill="#4a1486">192.0.2.55</text>
</g>
<!-- 192.0.2.56 -->
<g id="node13" class="node"><title>192.0.2.56</title>
<path fill="#dadaeb" stroke="#4a1486" stroke-width="2" d="M1481,-1264.5C1481,-1264.5 1315,-1264.5 1315,-1264.5 1311.5,-1264.5 1308,-1261 1308,-1257.5 1308,-1257.5 1308,-1250.5 1308,-1250.5 1308,-1247 1311.5,-1243.5 1315,-1243.5 1315,-1243.5 1481,-1243.5 1481,-1243.5 1484.5,-1243.5 1488,-1247 1488,-1250.5 1488,-1250.5 1488,-1257.5 1488,-1257.5 1488,-1261 1484.5,-1264.5 1481,-1264.5"/>
<text text-anchor="middle" x="1398" y="-1250.9" font-family="sans bold" font-size="12.00" fill="#4a1486">192.0.2.56</text>
</g>
<!-- 192.0.2.57 -->
<g id="node14" class="node"><title>192.0.2.57</title>
<path fill="#dadaeb" stroke="#4a1486" stroke-width="2" d="M1481,-1225.5C1481,-1225.5 1315,-1225.5 1315,-1225.5 1311.5,-1225.5 1308,-1222 1308,-1218.5 1308,-1218.5 1308,-1211.5 1308,-1211.5 1308,-1208 1311.5,-1204.5 1315,-1204.5 1315,-1204.5 1481,-1204.5 1481,-1204.5 1484.5,-1204.5 1488,-1208 1488,-1211.5 1488,-1211.5 1488,-1218.5 1488,-1218.5 1488,-1222 1484.5,-1225.5 1481,-1225.5"/>
<text text-anchor="middle" x="1398" y="-1211.9" font-family="sans bold" font-size="12.00" fill="#4a1486">192.0.2.57</text>
</g>
<!-- 192.0.2.58 -->
<g id="node15" class="node"><title>192.0.2.58</title>
<path fill="#dadaeb" stroke="#4a1486" stroke-width="2" d="M1481,-1186.5C1481,-1186.5 1315,-1186.5 1315,-1186.5 1311.5,-1186.5 1308,-1183 1308,-1179.5 1308,-1179.5 1308,-1172.5 1308,-1172.5 1308,-1169 1311.5,-1165.5 1315,-1165.5 1315,-1165.5 1481,-1165.5 1481,-1165.5 1484.5,-1165.5 1488,-1169 1488,-1172.5 1488,-1172.5 1488,-1179.5 1488,-1179.5 1488,-1183 1484.5,-1186.5 1481,-1186.5"/>
<text text-anchor="middle" x="1398" y="-1172.9" font-family="sans bold" font-size="12.00" fill="#4a1486">192.0.2.58</text>
</g>
<!-- 192.0.2.59 -->
<g id="node16" class="node"><title>192.0.2.59</title>
<path fill="#dadaeb" stroke="#4a1486" stroke-width="2" d="M1481,-1147.5C1481,-1147.5 1315,-1147.5 1315,-1147.5 1311.5,-1147.5 1308,-1144 1308,-1140.5 1308,-1140.5 1308,-1133.5 1308,-1133.5 1308,-1130 1311.5,-1126.5 1315,-1126.5 1315,-1126.5 1481,-1126.5 1481,-1126.5 1484.5,-1126.5 1488,-1130 1488,-1133.5 1488,-1133.5 1488,-1140.5 1488,-1140.5 1488,-1144 1484.5,-1147.5 1481,-1147.5"/>
<text text-anchor="middle" x="1398" y="-1133.9" font-family="sans bold" font-size="12.00" fill="#4a1486">192.0.2.59</text>
</g>
<!-- 192.0.2.60 -->
<g id="node17" class="node"><title>192.0.2.60</title>
<path fill="#dadaeb" stroke="#4a1486" stroke-width="2" d="M827,-1154.5C827,-1154.5 661,-1154.5 661,-1154.5 657.5,-1154.5 654,-1151 654,-1147.5 654,-1147.5 654,-1140.5 654,-1140.5 654,-1137 657.5,-1133.5 661,-1133.5 661,-1133.5 827,-1133.5 827,-1133.5 830.5,-1133.5 834,-1137 834,-1140.5 834,-1140.5 834,-1147.5 834,-1147.5 834,-1151 830.5,-1154.5 827,-1154.5"/>
<text text-anchor="middle" x="744" y="-1140.9" font-family="sans bold" font-size="12.00" fill="#4a1486">192.0.2.60</text>
</g>
<!-- 192.0.2.70 -->
<g id="node18" class="node"><title>192.0.2.70</title>
<path fill="#dadaeb" stroke="#4a1486" stroke-width="2" d="M827,-1115.5C827,-1115.5 661,-1115.5 661,-1115.5 657.5,-1115.5 654,-1112 654,-1108.5 654,-1108.5 654,-1101.5 654,-1101.5 654,-1098 657.5,-1094.5 661,-1094.5 661,-1094.5 827,-1094.5 827,-1094.5 830.5,-1094.5 834,-1098 834,-1101.5 834,-1101.5 834,-1108.5 834,-1108.5 834,-1112 830.5,-1115.5 827,-1115.5"/>
<text text-anchor="middle" x="744" y="-1101.9" font-family="sans bold" font-size="12.00" fill="#4a1486">192.0.2.70</text>
</g>
<!-- 192.0.2.80 -->
<g id="node19" class="node"><title>192.0.2.80</title>
<path fill="#dadaeb" stroke="#4a1486" stroke-width="2" d="M827,-1076.5C827,-1076.5 661,-1076.5 661,-1076.5 657.5,-1076.5 654,-1073 654,-1069.5 654,-1069.5 654,-1062.5 654,-1062.5 654,-1059 657.5,-1055.5 661,-1055.5 661,-1055.5 827,-1055.5 827,-1055.5 830.5,-1055.5 834,-1059 834,-1062.5 834,-1062.5 834,-1069.5 834,-1069.5 834,-1073 830.5,-1076.5 827,-1076.5"/>
<text text-anchor="middle" x="744" y="-1062.9" font-family="sans bold" font-size="12.00" fill="#4a1486">192.0.2.80</text>
</g>
<!-- 192.0.2.90 -->
<g id="node20" class="node"><title>192.0.2.90</title>
<path fill="#dadaeb" stroke="#4a1486" stroke-width="2" d="M827,-1037.5C827,-1037.5 661,-1037.5 661,-1037.5 657.5,-1037.5 654,-1034 654,-1030.5 654,-1030.5 654,-1023.5 654,-1023.5 654,-1020 657.5,-1016.5 661,-1016.5 661,-1016.5 827,-1016.5 827,-1016.5 830.5,-1016.5 834,-1020 834,-1023.5 834,-1023.5 834,-1030.5 834,-1030.5 834,-1034 830.5,-1037.5 827,-1037.5"/>
<text text-anchor="middle" x="744" y="-1023.9" font-family="sans bold" font-size="12.00" fill="#4a1486">192.0.2.90</text>
</g>
<!-- 192.0.2.100 -->
<g id="node21" class="node"><title>192.0.2.100</title>
<path fill="#dadaeb" stroke="#4a1486" stroke-width="2" d="M822,-998C822,-998 666,-998 666,-998 660,-998 654,-992 654,-986 654,-986 654,-686 654,-686 654,-680 660,-674 666,-674 666,-674 822,-674 822,-674 828,-674 834,-680 834,-686 834,-686 834,-986 834,-986 834,-992 828,-998 822,-998"/>
<text text-anchor="middle" x="744" y="-832.9" font-family="sans bold" font-size="12.00" fill="#4a1486">192.0.2.100</text>
</g>
<!-- 192.0.2.101 -->
<g id="node22" class="node"><title>192.0.2.101</title>
<path fill="#dadaeb" stroke="#4a1486" stroke-width="2" d="M1154,-1002.5C1154,-1002.5 988,-1002.5 988,-1002.5 984.5,-1002.5 981,-999 981,-995.5 981,-995.5 981,-988.5 981,-988.5 981,-985 984.5,-981.5 988,-981.5 988,-981.5 1154,-981.5 1154,-981.5 1157.5,-981.5 1161,-985 1161,-988.5 1161,-988.5 1161,-995.5 1161,-995.5 1161,-999 1157.5,-1002.5 1154,-1002.5"/>
<text text-anchor="middle" x="1071" y="-988.9" font-family="sans bold" font-size="12.00" fill="#4a1486">192.0.2.101</text>
</g>
<!-- 192.0.2.102 -->
<g id="node23" class="node"><title>192.0.2.102</title>
<path fill="#dadaeb" stroke="#4a1486" stroke-width="2" d="M1154,-963.5C1154,-963.5 988,-963.5 988,-963.5 984.5,-963.5 981,-960 981,-956.5 981,-956.5 981,-949.5 981,-949.5 981,-946 984.5,-942.5 988,-942.5 988,-942.5 1154,-942.5 1154,-942.5 1157.5,-942.5 1161,-946 1161,-949.5 1161,-949.5 1161,-956.5 1161,-956.5 1161,-960 1157.5,-963.5 1154,-963.5"/>
<text text-anchor="middle" x="1071" y="-949.9" font-family="sans bold" font-size="12.00" fill="#4a1486">192.0.2.102</text>
</g>
<!-- 192.0.2.103 -->
<g id="node24" class="node"><title>192.0.2.103</title>
<path fill="#dadaeb" stroke="#4a1486" stroke-width="2" d="M1154,-924.5C1154,-924.5 988,-924.5 988,-924.5 984.5,-924.5 981,-921 981,-917.5 981,-917.5 981,-910.5 981,-910.5 981,-907 984.5,-903.5 988,-903.5 988,-903.5 1154,-903.5 1154,-903.5 1157.5,-903.5 1161,-907 1161,-910.5 1161,-910.5 1161,-917.5 1161,-917.5 1161,-921 1157.5,-924.5 1154,-924.5"/>
<text text-anchor="middle" x="1071" y="-910.9" font-family="sans bold" font-size="12.00" fill="#4a1486">192.0.2.103</text>
</g>
<!-- 192.0.2.104 -->
<g id="node25" class="node"><title>192.0.2.104</title>
<path fill="#dadaeb" stroke="#4a1486" stroke-width="2" d="M1154,-885.5C1154,-885.5 988,-885.5 988,-885.5 984.5,-885.5 981,-882 981,-878.5 981,-878.5 981,-871.5 981,-871.5 981,-868 984.5,-864.5 988,-864.5 988,-864.5 1154,-864.5 1154,-864.5 1157.5,-864.5 1161,-868 1161,-871.5 1161,-871.5 1161,-878.5 1161,-878.5 1161,-882 1157.5,-885.5 1154,-885.5"/>
<text text-anchor="middle" x="1071" y="-871.9" font-family="sans bold" font-size="12.00" fill="#4a1486">192.0.2.104</text>
</g>
<!-- 192.0.2.105 -->
<g id="node26" class="node"><title>192.0.2.105</title>
<path fill="#dadaeb" stroke="#4a1486" stroke-width="2" d="M1154,-846.5C1154,-846.5 988,-846.5 988,-846.5 984.5,-846.5 981,-843 981,-839.5 981,-839.5 981,-832.5 981,-832.5 981,-829 984.5,-825.5 988,-825.5 988,-825.5 1154,-825.5 1154,-825.5 1157.5,-825.5 1161,-829 1161,-832.5 1161,-832.5 1161,-839.5 1161,-839.5 1161,-843 1157.5,-846.5 1154,-846.5"/>
<text text-anchor="middle" x="1071" y="-832.9" font-family="sans bold" font-size="12.00" fill="#4a1486">192.0.2.105</text>
</g>
<!-- 192.0.2.106 -->
<g id="node27" class="node"><title>192.0.2.106</title>
<path fill="#dadaeb" stroke="#4a1486" stroke-width="2" d="M1154,-807.5C1154,-807.5 988,-807.5 988,-807.5 984.5,-807.5 981,-804 981,-800.5 981,-800.5 981,-793.5 981,-793.5 981,-790 984.5,-786.5 988,-786.5 988,-786.5 1154,-786.5 1154,-786.5 1157.5,-786.5 1161,-790 1161,-793.5 1161,-793.5 1161,-800.5 1161,-800.5 1161,-804 1157.5,-807.5 1154,-807.5"/>
<text text-anchor="middle" x="1071" y="-793.9" font-family="sans bold" font-size="12.00" fill="#4a1486">192.0.2.106</text>
</g>
<!-- 192.0.2.107 -->
<g id="node28" class="node"><title>192.0.2.107</title>
<path fill="#dadaeb" stroke="#4a1486" stroke-width="2" d="M1154,-768.5C1154,-768.5 988,-768.5 988,-768.5 984.5,-768.5 981,-765 981,-761.5 981,-761.5 981,-754.5 981,-754.5 981,-751 984.5,-747.5 988,-747.5 988,-747.5 1154,-747.5 1154,-747.5 1157.5,-747.5 1161,-751 1161,-754.5 1161,-754.5 1161,-761.5 1161,-761.5 1161,-765 1157.5,-768.5 1154,-768.5"/>
<text text-anchor="middle" x="1071" y="-754.9" font-family="sans bold" font-size="12.00" fill="#4a1486">192.0.2.107</text>
</g>
<!-- 192.0.2.108 -->
<g id="node29" class="node"><title>192.0.2.108</title>
<path fill="#dadaeb" stroke="#4a1486" stroke-width="2" d="M1154,-729.5C1154,-729.5 988,-729.5 988,-729.5 984.5,-729.5 981,-726 981,-722.5 981,-722.5 981,-715.5 981,-715.5 981,-712 984.5,-708.5 988,-708.5 988,-708.5 1154,-708.5 1154,-708.5 1157.5,-708.5 1161,-712 1161,-715.5 1161,-715.5 1161,-722.5 1161,-722.5 1161,-726 1157.5,-729.5 1154,-729.5"/>
<text text-anchor="middle" x="1071" y="-715.9" font-family="sans bold" font-size="12.00" fill="#4a1486">192.0.2.108</text>
</g>
<!-- 192.0.2.109 -->
<g id="node30" class="node"><title>192.0.2.109</title>
<path fill="#dadaeb" stroke="#4a1486" stroke-width="2" d="M1154,-690.5C1154,-690.5 988,-690.5 988,-690.5 984.5,-690.5 981,-687 981,-683.5 981,-683.5 981,-676.5 981,-676.5 981,-673 984.5,-669.5 988,-669.5 988,-669.5 1154,-669.5 1154,-669.5 1157.5,-669.5 1161,-673 1161,-676.5 1161,-676.5 1161,-683.5 1161,-683.5 1161,-687 1157.5,-690.5 1154,-690.5"/>
<text text-anchor="middle" x="1071" y="-676.9" font-family="sans bold" font-size="12.00" fill="#4a1486">192.0.2.109</text>
</g>
<!-- 192.0.2.110 -->
<g id="node31" class="node"><title>192.0.2.110</title>
<path fill="#dadaeb" stroke="#4a1486" stroke-width="2" d="M827,-655.5C827,-655.5 661,-655.5 661,-655.5 657.5,-655.5 654,-652 654,-648.5 654,-648.5 654,-641.5 654,-641.5 654,-638 657.5,-634.5 661,-634.5 661,-634.5 827,-634.5 827,-634.5 830.5,-634.5 834,-638 834,-641.5 834,-641.5 834,-648.5 834,-648.5 834,-652 830.5,-655.5 827,-655.5"/>
<text text-anchor="middle" x="744" y="-641.9" font-family="sans bold" font-size="12.00" fill="#4a1486">192.0.2.110</text>
</g>
<!-- 192.0.2.120 -->
<g id="node32" class="node"><title>192.0.2.120</title>
<path fill="#dadaeb" stroke="#4a1486" stroke-width="2" d="M827,-616.5C827,-616.5 661,-616.5 661,-616.5 657.5,-616.5 654,-613 654,-609.5 654,-609.5 654,-602.5 654,-602.5 654,-599 657.5,-595.5 661,-595.5 661,-595.5 827,-595.5 827,-595.5 830.5,-595.5 834,-599 834,-602.5 834,-602.5 834,-609.5 834,-609.5 834,-613 830.5,-616.5 827,-616.5"/>
<text text-anchor="middle" x="744" y="-602.9" font-family="sans bold" font-size="12.00" fill="#4a1486">192.0.2.120</text>
</g>
<!-- 192.0.2.130 -->
<g id="node33" class="node"><title>192.0.2.130</title>
<path fill="#dadaeb" stroke="#4a1486" stroke-width="2" d="M827,-577.5C827,-577.5 661,-577.5 661,-577.5 657.5,-577.5 654,-574 654,-570.5 654,-570.5 654,-563.5 654,-563.5 654,-560 657.5,-556.5 661,-556.5 661,-556.5 827,-556.5 827,-556.5 830.5,-556.5 834,-560 834,-563.5 834,-563.5 834,-570.5 834,-570.5 834,-574 830.5,-577.5 827,-577.5"/>
<text text-anchor="middle" x="744" y="-563.9" font-family="sans bold" font-size="12.00" fill="#4a1486">192.0.2.130</text>
</g>
<!-- 192.0.2.140 -->
<g id="node34" class="node"><title>192.0.2.140</title>
<path fill="#dadaeb" stroke="#4a1486" stroke-width="2" d="M827,-538.5C827,-538.5 661,-538.5 661,-538.5 657.5,-538.5 654,-535 654,-531.5 654,-531.5 654,-524.5 654,-524.5 654,-521 657.5,-517.5 661,-517.5 661,-517.5 827,-517.5 827,-517.5 830.5,-517.5 834,-521 834,-524.5 834,-524.5 834,-531.5 834,-531.5 834,-535 830.5,-538.5 827,-538.5"/>
<text text-anchor="middle" x="744" y="-524.9" font-family="sans bold" font-size="12.00" fill="#4a1486">192.0.2.140</text>
</g>
<!-- 192.0.2.150 -->
<g id="node35" class="node"><title>192.0.2.150</title>
<path fill="#dadaeb" stroke="#4a1486" stroke-width="2" d="M827,-499.5C827,-499.5 661,-499.5 661,-499.5 657.5,-499.5 654,-496 654,-492.5 654,-492.5 654,-485.5 654,-485.5 654,-482 657.5,-478.5 661,-478.5 661,-478.5 827,-478.5 827,-478.5 830.5,-478.5 834,-482 834,-485.5 834,-485.5 834,-492.5 834,-492.5 834,-496 830.5,-499.5 827,-499.5"/>
<text text-anchor="middle" x="744" y="-485.9" font-family="sans bold" font-size="12.00" fill="#4a1486">192.0.2.150</text>
</g>
<!-- 192.0.2.160 -->
<g id="node36" class="node"><title>192.0.2.160</title>
<path fill="#dadaeb" stroke="#4a1486" stroke-width="2" d="M827,-460.5C827,-460.5 661,-460.5 661,-460.5 657.5,-460.5 654,-457 654,-453.5 654,-453.5 654,-446.5 654,-446.5 654,-443 657.5,-439.5 661,-439.5 661,-439.5 827,-439.5 827,-439.5 830.5,-439.5 834,-443 834,-446.5 834,-446.5 834,-453.5 834,-453.5 834,-457 830.5,-460.5 827,-460.5"/>
<text text-anchor="middle" x="744" y="-446.9" font-family="sans bold" font-size="12.00" fill="#4a1486">192.0.2.160</text>
</g>
<!-- 192.0.2.170 -->
<g id="node37" class="node"><title>192.0.2.170</title>
<path fill="#dadaeb" stroke="#4a1486" stroke-width="2" d="M827,-421.5C827,-421.5 661,-421.5 661,-421.5 657.5,-421.5 654,-418 654,-414.5 654,-414.5 654,-407.5 654,-407.5 654,-404 657.5,-400.5 661,-400.5 661,-400.5 827,-400.5 827,-400.5 830.5,-400.5 834,-404 834,-407.5 834,-407.5 834,-414.5 834,-414.5 834,-418 830.5,-421.5 827,-421.5"/>
<text text-anchor="middle" x="744" y="-407.9" font-family="sans bold" font-size="12.00" fill="#4a1486">192.0.2.170</text>
</g>
<!-- 192.0.2.180 -->
<g id="node38" class="node"><title>192.0.2.180</title>
<path fill="#dadaeb" stroke="#4a1486" stroke-width="2" d="M827,-382.5C827,-382.5 661,-382.5 661,-382.5 657.5,-382.5 654,-379 654,-375.5 654,-375.5 654,-368.5 654,-368.5 654,-365 657.5,-361.5 661,-361.5 661,-361.5 827,-361.5 827,-361.5 830.5,-361.5 834,-365 834,-368.5 834,-368.5 834,-375.5 834,-375.5 834,-379 830.5,-382.5 827,-382.5"/>
<text text-anchor="middle" x="744" y="-368.9" font-family="sans bold" font-size="12.00" fill="#4a1486">192.0.2.180</text>
</g>
<!-- 192.0.2.190 -->
<g id="node39" class="node"><title>192.0.2.190</title>
<path fill="#dadaeb" stroke="#4a1486" stroke-width="2" d="M827,-343.5C827,-343.5 661,-343.5 661,-343.5 657.5,-343.5 654,-340 654,-336.5 654,-336.5 654,-329.5 654,-329.5 654,-326 657.5,-322.5 661,-322.5 661,-322.5 827,-322.5 827,-322.5 830.5,-322.5 834,-326 834,-329.5 834,-329.5 834,-336.5 834,-336.5 834,-340 830.5,-343.5 827,-343.5"/>
<text text-anchor="middle" x="744" y="-329.9" font-family="sans bold" font-size="12.00" fill="#4a1486">192.0.2.190</text>
</g>
<!-- 192.0.2.200 -->
<g id="node40" class="node"><title>192.0.2.200</title>
<path fill="#dadaeb" stroke="#4a1486" stroke-width="2" d="M827,-304.5C827,-304.5 661,-304.5 661,-304.5 657.5,-304.5 654,-301 654,-297.5 654,-297.5 654,-290.5 654,-290.5 654,-287 657.5,-283.5 661,-283.5 661,-283.5 827,-283.5 827,-283.5 830.5,-283.5 834,-287 834,-290.5 834,-290.5 834,-297.5 834,-297.5 834,-301 830.5,-304.5 827,-304.5"/>
<text text-anchor="middle" x="744" y="-290.9" font-family="sans bold" font-size="12.00" fill="#4a1486">192.0.2.200</text>
</g>
</g>
</svg>
